G04 #@! TF.GenerationSoftware,KiCad,Pcbnew,(5.0.0)*
G04 #@! TF.CreationDate,2019-01-08T20:34:23-08:00*
G04 #@! TF.ProjectId,ears_panel,656172735F70616E656C2E6B69636164,rev?*
G04 #@! TF.SameCoordinates,Original*
G04 #@! TF.FileFunction,Copper,L2,Bot,Signal*
G04 #@! TF.FilePolarity,Positive*
%FSLAX46Y46*%
G04 Gerber Fmt 4.6, Leading zero omitted, Abs format (unit mm)*
G04 Created by KiCad (PCBNEW (5.0.0)) date 01/08/19 20:34:23*
%MOMM*%
%LPD*%
G01*
G04 APERTURE LIST*
G04 #@! TA.AperFunction,ViaPad*
%ADD10C,4.191000*%
G04 #@! TD*
G04 #@! TA.AperFunction,NonConductor*
%ADD11C,0.406400*%
G04 #@! TD*
G04 APERTURE END LIST*
D10*
G04 #@! TO.N,N$3*
X146001100Y-43753600D03*
X146001100Y-166253600D03*
G04 #@! TD*
D11*
G36*
X153954974Y-116072970D02*
X154393783Y-116134174D01*
X154825057Y-116235602D01*
X155245141Y-116376394D01*
X155650439Y-116555346D01*
X156037501Y-116770935D01*
X156403015Y-117021315D01*
X156743865Y-117304352D01*
X157057148Y-117617634D01*
X157340185Y-117958485D01*
X157590565Y-118323999D01*
X157806154Y-118711061D01*
X157985106Y-119116359D01*
X158125898Y-119536443D01*
X158222900Y-119948897D01*
X158222900Y-156749225D01*
X158125874Y-157161755D01*
X157985082Y-157581822D01*
X157806124Y-157987122D01*
X157590536Y-158374177D01*
X157340160Y-158739681D01*
X157057113Y-159080542D01*
X156743842Y-159393813D01*
X156402981Y-159676860D01*
X156037477Y-159927236D01*
X155650422Y-160142824D01*
X155245122Y-160321782D01*
X154825055Y-160462574D01*
X154393762Y-160564013D01*
X153954974Y-160625222D01*
X153507710Y-160645900D01*
X143512400Y-160645900D01*
X143499897Y-160646285D01*
X143066377Y-160673011D01*
X142642295Y-160657480D01*
X142221784Y-160600458D01*
X141808888Y-160502494D01*
X141407584Y-160364530D01*
X141021723Y-160187891D01*
X140655045Y-159974289D01*
X140311063Y-159725769D01*
X139993100Y-159444733D01*
X139704212Y-159133882D01*
X139447188Y-158796216D01*
X139224495Y-158434979D01*
X139038282Y-158053653D01*
X138892089Y-157660609D01*
X138779300Y-157128389D01*
X138779300Y-120097909D01*
X138797457Y-119967714D01*
X138898882Y-119536426D01*
X139039669Y-119116343D01*
X139218621Y-118711035D01*
X139434201Y-118323982D01*
X139684587Y-117958456D01*
X139967623Y-117617606D01*
X140280907Y-117304322D01*
X140621757Y-117021286D01*
X140987282Y-116770901D01*
X141374335Y-116555321D01*
X141779641Y-116376371D01*
X142199730Y-116235582D01*
X142631015Y-116134158D01*
X143069806Y-116072964D01*
X143517101Y-116052300D01*
X153507714Y-116052300D01*
X153954974Y-116072970D01*
X153954974Y-116072970D01*
G37*
X153954974Y-116072970D02*
X154393783Y-116134174D01*
X154825057Y-116235602D01*
X155245141Y-116376394D01*
X155650439Y-116555346D01*
X156037501Y-116770935D01*
X156403015Y-117021315D01*
X156743865Y-117304352D01*
X157057148Y-117617634D01*
X157340185Y-117958485D01*
X157590565Y-118323999D01*
X157806154Y-118711061D01*
X157985106Y-119116359D01*
X158125898Y-119536443D01*
X158222900Y-119948897D01*
X158222900Y-156749225D01*
X158125874Y-157161755D01*
X157985082Y-157581822D01*
X157806124Y-157987122D01*
X157590536Y-158374177D01*
X157340160Y-158739681D01*
X157057113Y-159080542D01*
X156743842Y-159393813D01*
X156402981Y-159676860D01*
X156037477Y-159927236D01*
X155650422Y-160142824D01*
X155245122Y-160321782D01*
X154825055Y-160462574D01*
X154393762Y-160564013D01*
X153954974Y-160625222D01*
X153507710Y-160645900D01*
X143512400Y-160645900D01*
X143499897Y-160646285D01*
X143066377Y-160673011D01*
X142642295Y-160657480D01*
X142221784Y-160600458D01*
X141808888Y-160502494D01*
X141407584Y-160364530D01*
X141021723Y-160187891D01*
X140655045Y-159974289D01*
X140311063Y-159725769D01*
X139993100Y-159444733D01*
X139704212Y-159133882D01*
X139447188Y-158796216D01*
X139224495Y-158434979D01*
X139038282Y-158053653D01*
X138892089Y-157660609D01*
X138779300Y-157128389D01*
X138779300Y-120097909D01*
X138797457Y-119967714D01*
X138898882Y-119536426D01*
X139039669Y-119116343D01*
X139218621Y-118711035D01*
X139434201Y-118323982D01*
X139684587Y-117958456D01*
X139967623Y-117617606D01*
X140280907Y-117304322D01*
X140621757Y-117021286D01*
X140987282Y-116770901D01*
X141374335Y-116555321D01*
X141779641Y-116376371D01*
X142199730Y-116235582D01*
X142631015Y-116134158D01*
X143069806Y-116072964D01*
X143517101Y-116052300D01*
X153507714Y-116052300D01*
X153954974Y-116072970D01*
M02*
