G04 #@! TF.GenerationSoftware,KiCad,Pcbnew,(5.0.0)*
G04 #@! TF.CreationDate,2019-01-08T20:34:23-08:00*
G04 #@! TF.ProjectId,ears_panel,656172735F70616E656C2E6B69636164,rev?*
G04 #@! TF.SameCoordinates,Original*
G04 #@! TF.FileFunction,Legend,Bot*
G04 #@! TF.FilePolarity,Positive*
%FSLAX46Y46*%
G04 Gerber Fmt 4.6, Leading zero omitted, Abs format (unit mm)*
G04 Created by KiCad (PCBNEW (5.0.0)) date 01/08/19 20:34:23*
%MOMM*%
%LPD*%
G01*
G04 APERTURE LIST*
%ADD10C,0.300000*%
G04 APERTURE END LIST*
D10*
X155447451Y-161520131D02*
X155447451Y-162591560D01*
X155518880Y-162805845D01*
X155661737Y-162948702D01*
X155876022Y-163020131D01*
X156018880Y-163020131D01*
X154018880Y-163020131D02*
X154733165Y-163020131D01*
X154733165Y-161520131D01*
X152661737Y-162877274D02*
X152733165Y-162948702D01*
X152947451Y-163020131D01*
X153090308Y-163020131D01*
X153304594Y-162948702D01*
X153447451Y-162805845D01*
X153518880Y-162662988D01*
X153590308Y-162377274D01*
X153590308Y-162162988D01*
X153518880Y-161877274D01*
X153447451Y-161734417D01*
X153304594Y-161591560D01*
X153090308Y-161520131D01*
X152947451Y-161520131D01*
X152733165Y-161591560D01*
X152661737Y-161662988D01*
X151590308Y-161520131D02*
X151590308Y-162591560D01*
X151661737Y-162805845D01*
X151804594Y-162948702D01*
X152018880Y-163020131D01*
X152161737Y-163020131D01*
X150161737Y-163020131D02*
X150876022Y-163020131D01*
X150876022Y-161520131D01*
X148804594Y-162877274D02*
X148876022Y-162948702D01*
X149090308Y-163020131D01*
X149233165Y-163020131D01*
X149447451Y-162948702D01*
X149590308Y-162805845D01*
X149661737Y-162662988D01*
X149733165Y-162377274D01*
X149733165Y-162162988D01*
X149661737Y-161877274D01*
X149590308Y-161734417D01*
X149447451Y-161591560D01*
X149233165Y-161520131D01*
X149090308Y-161520131D01*
X148876022Y-161591560D01*
X148804594Y-161662988D01*
X147733165Y-161520131D02*
X147733165Y-162591560D01*
X147804594Y-162805845D01*
X147947451Y-162948702D01*
X148161737Y-163020131D01*
X148304594Y-163020131D01*
X146304594Y-163020131D02*
X147018880Y-163020131D01*
X147018880Y-161520131D01*
X144947451Y-162877274D02*
X145018880Y-162948702D01*
X145233165Y-163020131D01*
X145376022Y-163020131D01*
X145590308Y-162948702D01*
X145733165Y-162805845D01*
X145804594Y-162662988D01*
X145876022Y-162377274D01*
X145876022Y-162162988D01*
X145804594Y-161877274D01*
X145733165Y-161734417D01*
X145590308Y-161591560D01*
X145376022Y-161520131D01*
X145233165Y-161520131D01*
X145018880Y-161591560D01*
X144947451Y-161662988D01*
X143876022Y-161520131D02*
X143876022Y-162591560D01*
X143947451Y-162805845D01*
X144090308Y-162948702D01*
X144304594Y-163020131D01*
X144447451Y-163020131D01*
X142447451Y-163020131D02*
X143161737Y-163020131D01*
X143161737Y-161520131D01*
X141090308Y-162877274D02*
X141161737Y-162948702D01*
X141376022Y-163020131D01*
X141518880Y-163020131D01*
X141733165Y-162948702D01*
X141876022Y-162805845D01*
X141947451Y-162662988D01*
X142018880Y-162377274D01*
X142018880Y-162162988D01*
X141947451Y-161877274D01*
X141876022Y-161734417D01*
X141733165Y-161591560D01*
X141518880Y-161520131D01*
X141376022Y-161520131D01*
X141161737Y-161591560D01*
X141090308Y-161662988D01*
M02*
