M48
;DRILL file {KiCad (5.0.0)} date 01/08/19 13:59:15
;FORMAT={-:-/ absolute / inch / decimal}
FMAT,2
INCH,TZ
T1C0.0157
T2C0.0354
T3C0.0394
T4C0.0630
T5C0.0709
%
G90
G05
M72
T1
X5.5413Y-2.2146
X5.5413Y-5.4331
X5.5512Y-5.3937
X5.5581Y-4.5768
X5.6102Y-3.376
X5.6102Y-3.435
X5.6102Y-3.4843
X5.6102Y-3.6319
X5.6102Y-4.4685
X5.6398Y-5.2854
X5.6594Y-4.5768
X5.6594Y-4.8524
X5.6988Y-3.408
X5.7283Y-3.3268
X5.7283Y-5.561
X5.7776Y-3.3366
X5.7776Y-4.6336
X5.7776Y-4.7835
X5.7776Y-5.2657
X5.7874Y-2.6969
X5.7874Y-2.9429
X5.7874Y-4.2224
X5.7874Y-5.561
X5.8081Y-3.7106
X5.8169Y-4.9705
X5.8268Y-3.2382
X5.8268Y-3.3563
X5.9055Y-3.1299
X5.9055Y-3.6122
X5.9154Y-2.2835
X5.9252Y-5.7087
X5.935Y-5.561
X5.9547Y-5.4931
X5.9646Y-4.626
X5.9744Y-5.374
X6.0138Y-4.4094
X6.0138Y-4.5866
X6.0138Y-5.4528
X6.0236Y-3.0118
X6.0433Y-5.5217
X6.0531Y-4.7244
X6.0925Y-4.7047
X6.1072Y-3.1791
X6.1122Y-5.6988
X6.122Y-4.8622
X6.1357Y-3.6319
X6.1417Y-2.2146
X6.1516Y-2.687
X6.1516Y-5.5118
X6.1521Y-3.0999
X6.1614Y-3.7008
T2
X6.0941Y-4.2972
X6.0941Y-4.3972
X5.8457Y-4.2972
X5.8457Y-4.3972
X5.5949Y-4.2972
X5.5949Y-4.3972
T3
X5.6496Y-2.026
X5.6496Y-2.126
X5.7496Y-2.026
X5.7496Y-2.126
X5.8496Y-2.026
X5.8496Y-2.126
X5.9496Y-2.026
X5.9496Y-2.126
X6.0496Y-2.026
X6.0496Y-2.126
X5.6299Y-4.928
X5.6299Y-5.028
X5.6299Y-5.128
X5.9449Y-4.9311
X5.9449Y-5.0311
X5.9449Y-5.1311
X6.0433Y-4.9299
X6.0433Y-5.0299
X6.0433Y-5.1299
X5.748Y-4.1594
X5.8465Y-4.1594
X5.9449Y-4.1594
X5.6988Y-3.4925
X5.6988Y-3.5925
T4
X6.0335Y-3.1547
X6.0335Y-3.2768
X5.6594Y-2.828
X5.6594Y-3.1547
X5.6594Y-3.2768
X6.0335Y-2.2665
X6.0335Y-2.3886
X6.0335Y-2.7154
X5.6594Y-2.2665
X5.6594Y-2.3886
X5.6594Y-2.7154
X6.0335Y-2.828
T5
X5.6575Y-3.8642
X6.0354Y-3.8642
T0
M30
