G04 #@! TF.GenerationSoftware,KiCad,Pcbnew,(5.0.0)*
G04 #@! TF.CreationDate,2019-01-08T13:59:11-08:00*
G04 #@! TF.ProjectId,pcb,7063622E6B696361645F706362000000,rev?*
G04 #@! TF.SameCoordinates,Original*
G04 #@! TF.FileFunction,Copper,L1,Top,Signal*
G04 #@! TF.FilePolarity,Positive*
%FSLAX46Y46*%
G04 Gerber Fmt 4.6, Leading zero omitted, Abs format (unit mm)*
G04 Created by KiCad (PCBNEW (5.0.0)) date 01/08/19 13:59:11*
%MOMM*%
%LPD*%
G01*
G04 APERTURE LIST*
G04 #@! TA.AperFunction,SMDPad,CuDef*
%ADD10R,0.750000X0.800000*%
G04 #@! TD*
G04 #@! TA.AperFunction,SMDPad,CuDef*
%ADD11R,0.800000X0.750000*%
G04 #@! TD*
G04 #@! TA.AperFunction,SMDPad,CuDef*
%ADD12R,0.600000X0.700000*%
G04 #@! TD*
G04 #@! TA.AperFunction,ComponentPad*
%ADD13C,1.300000*%
G04 #@! TD*
G04 #@! TA.AperFunction,ComponentPad*
%ADD14C,2.000000*%
G04 #@! TD*
G04 #@! TA.AperFunction,SMDPad,CuDef*
%ADD15R,0.900000X0.500000*%
G04 #@! TD*
G04 #@! TA.AperFunction,SMDPad,CuDef*
%ADD16R,0.500000X0.900000*%
G04 #@! TD*
G04 #@! TA.AperFunction,SMDPad,CuDef*
%ADD17R,0.700000X0.600000*%
G04 #@! TD*
G04 #@! TA.AperFunction,ComponentPad*
%ADD18C,1.800000*%
G04 #@! TD*
G04 #@! TA.AperFunction,ComponentPad*
%ADD19O,1.700000X1.700000*%
G04 #@! TD*
G04 #@! TA.AperFunction,ComponentPad*
%ADD20R,1.700000X1.700000*%
G04 #@! TD*
G04 #@! TA.AperFunction,SMDPad,CuDef*
%ADD21R,1.676400X0.355600*%
G04 #@! TD*
G04 #@! TA.AperFunction,SMDPad,CuDef*
%ADD22R,1.422400X0.431800*%
G04 #@! TD*
G04 #@! TA.AperFunction,ComponentPad*
%ADD23R,1.800000X1.800000*%
G04 #@! TD*
G04 #@! TA.AperFunction,ViaPad*
%ADD24C,0.800000*%
G04 #@! TD*
G04 #@! TA.AperFunction,Conductor*
%ADD25C,0.250000*%
G04 #@! TD*
G04 #@! TA.AperFunction,Conductor*
%ADD26C,0.400000*%
G04 #@! TD*
G04 #@! TA.AperFunction,Conductor*
%ADD27C,0.254000*%
G04 #@! TD*
G04 APERTURE END LIST*
D10*
G04 #@! TO.P,C10,2*
G04 #@! TO.N,GATE*
X146750000Y-114750000D03*
G04 #@! TO.P,C10,1*
G04 #@! TO.N,Net-(C10-Pad1)*
X146750000Y-116250000D03*
G04 #@! TD*
D11*
G04 #@! TO.P,C14,1*
G04 #@! TO.N,Net-(C14-Pad1)*
X153750000Y-143250000D03*
G04 #@! TO.P,C14,2*
G04 #@! TO.N,FULL_WAVE*
X152250000Y-143250000D03*
G04 #@! TD*
D12*
G04 #@! TO.P,D8,1*
G04 #@! TO.N,Net-(D7-Pad2)*
X140800000Y-147500000D03*
G04 #@! TO.P,D8,2*
G04 #@! TO.N,Net-(D8-Pad2)*
X142200000Y-147500000D03*
G04 #@! TD*
D13*
G04 #@! TO.P,R7,1*
G04 #@! TO.N,AMP_OUT*
X146000000Y-105650000D03*
G04 #@! TO.P,R7,2*
G04 #@! TO.N,Net-(C7-Pad1)*
X148500000Y-105650000D03*
G04 #@! TO.P,R7,3*
G04 #@! TO.N,Net-(R7-Pad3)*
X151000000Y-105650000D03*
D14*
G04 #@! TO.P,R7,*
G04 #@! TO.N,*
X143700000Y-98150000D03*
X153300000Y-98150000D03*
G04 #@! TD*
D10*
G04 #@! TO.P,C15,2*
G04 #@! TO.N,Net-(C15-Pad2)*
X152750000Y-92250000D03*
G04 #@! TO.P,C15,1*
G04 #@! TO.N,AMP_OUT*
X152750000Y-90750000D03*
G04 #@! TD*
G04 #@! TO.P,C11,1*
G04 #@! TO.N,Net-(C11-Pad1)*
X147750000Y-136750000D03*
G04 #@! TO.P,C11,2*
G04 #@! TO.N,GND*
X147750000Y-135250000D03*
G04 #@! TD*
G04 #@! TO.P,C7,1*
G04 #@! TO.N,Net-(C7-Pad1)*
X151250000Y-92250000D03*
G04 #@! TO.P,C7,2*
G04 #@! TO.N,AMP_OUT*
X151250000Y-90750000D03*
G04 #@! TD*
D11*
G04 #@! TO.P,C6,2*
G04 #@! TO.N,VEE*
X149500000Y-83750000D03*
G04 #@! TO.P,C6,1*
G04 #@! TO.N,GND*
X151000000Y-83750000D03*
G04 #@! TD*
G04 #@! TO.P,C4,2*
G04 #@! TO.N,GND*
X151000000Y-85250000D03*
G04 #@! TO.P,C4,1*
G04 #@! TO.N,VCC*
X149500000Y-85250000D03*
G04 #@! TD*
D15*
G04 #@! TO.P,L1,1*
G04 #@! TO.N,Net-(D1-Pad1)*
X140750000Y-53500000D03*
G04 #@! TO.P,L1,2*
G04 #@! TO.N,VCC*
X140750000Y-55000000D03*
G04 #@! TD*
G04 #@! TO.P,L2,2*
G04 #@! TO.N,VEE*
X156500000Y-55000000D03*
G04 #@! TO.P,L2,1*
G04 #@! TO.N,Net-(D2-Pad2)*
X156500000Y-53500000D03*
G04 #@! TD*
G04 #@! TO.P,R34,2*
G04 #@! TO.N,Net-(D8-Pad2)*
X147000000Y-147750000D03*
G04 #@! TO.P,R34,1*
G04 #@! TO.N,Net-(C14-Pad1)*
X147000000Y-146250000D03*
G04 #@! TD*
G04 #@! TO.P,R33,1*
G04 #@! TO.N,Net-(D8-Pad2)*
X144500000Y-147750000D03*
G04 #@! TO.P,R33,2*
G04 #@! TO.N,Net-(D7-Pad1)*
X144500000Y-146250000D03*
G04 #@! TD*
D16*
G04 #@! TO.P,R20,1*
G04 #@! TO.N,Net-(Gate1-Pad3)*
X145000000Y-125000000D03*
G04 #@! TO.P,R20,2*
G04 #@! TO.N,GND*
X146500000Y-125000000D03*
G04 #@! TD*
G04 #@! TO.P,R21,2*
G04 #@! TO.N,GND*
X146500000Y-127750000D03*
G04 #@! TO.P,R21,1*
G04 #@! TO.N,Net-(Gate1-Pad2)*
X145000000Y-127750000D03*
G04 #@! TD*
G04 #@! TO.P,R30,2*
G04 #@! TO.N,Net-(C14-Pad1)*
X153750000Y-147250000D03*
G04 #@! TO.P,R30,1*
G04 #@! TO.N,FULL_WAVE*
X152250000Y-147250000D03*
G04 #@! TD*
D15*
G04 #@! TO.P,R23,1*
G04 #@! TO.N,Net-(C11-Pad1)*
X149500000Y-135250000D03*
G04 #@! TO.P,R23,2*
G04 #@! TO.N,Net-(Decay1-Pad1)*
X149500000Y-133750000D03*
G04 #@! TD*
G04 #@! TO.P,R24,2*
G04 #@! TO.N,Net-(Decay1-Pad3)*
X151250000Y-133750000D03*
G04 #@! TO.P,R24,1*
G04 #@! TO.N,Net-(C11-Pad1)*
X151250000Y-135250000D03*
G04 #@! TD*
G04 #@! TO.P,R25,1*
G04 #@! TO.N,Net-(C11-Pad1)*
X153000000Y-135250000D03*
G04 #@! TO.P,R25,2*
G04 #@! TO.N,Net-(Attack1-Pad1)*
X153000000Y-133750000D03*
G04 #@! TD*
D16*
G04 #@! TO.P,R18,2*
G04 #@! TO.N,Net-(R18-Pad2)*
X151500000Y-121500000D03*
G04 #@! TO.P,R18,1*
G04 #@! TO.N,VCC*
X150000000Y-121500000D03*
G04 #@! TD*
D15*
G04 #@! TO.P,R26,1*
G04 #@! TO.N,Net-(C11-Pad1)*
X154750000Y-135250000D03*
G04 #@! TO.P,R26,2*
G04 #@! TO.N,Net-(Attack1-Pad3)*
X154750000Y-133750000D03*
G04 #@! TD*
G04 #@! TO.P,R27,2*
G04 #@! TO.N,Net-(C11-Pad1)*
X146000000Y-136750000D03*
G04 #@! TO.P,R27,1*
G04 #@! TO.N,GND*
X146000000Y-135250000D03*
G04 #@! TD*
G04 #@! TO.P,R17,1*
G04 #@! TO.N,~GATE*
X145000000Y-121750000D03*
G04 #@! TO.P,R17,2*
G04 #@! TO.N,Net-(Gate1-Pad2)*
X145000000Y-120250000D03*
G04 #@! TD*
D16*
G04 #@! TO.P,R19,2*
G04 #@! TO.N,GND*
X154500000Y-121500000D03*
G04 #@! TO.P,R19,1*
G04 #@! TO.N,Net-(R18-Pad2)*
X153000000Y-121500000D03*
G04 #@! TD*
D15*
G04 #@! TO.P,R6,1*
G04 #@! TO.N,Net-(C7-Pad1)*
X148250000Y-92500000D03*
G04 #@! TO.P,R6,2*
G04 #@! TO.N,GND*
X148250000Y-91000000D03*
G04 #@! TD*
G04 #@! TO.P,R9,1*
G04 #@! TO.N,Net-(LED2-Pad1)*
X145250000Y-109750000D03*
G04 #@! TO.P,R9,2*
G04 #@! TO.N,GND*
X145250000Y-108250000D03*
G04 #@! TD*
G04 #@! TO.P,R13,1*
G04 #@! TO.N,Net-(C10-Pad1)*
X144000000Y-119000000D03*
G04 #@! TO.P,R13,2*
G04 #@! TO.N,Net-(R12-Pad2)*
X144000000Y-117500000D03*
G04 #@! TD*
G04 #@! TO.P,R14,2*
G04 #@! TO.N,Net-(C10-Pad1)*
X145000000Y-116250000D03*
G04 #@! TO.P,R14,1*
G04 #@! TO.N,GATE*
X145000000Y-114750000D03*
G04 #@! TD*
G04 #@! TO.P,R15,1*
G04 #@! TO.N,Net-(C10-Pad1)*
X143000000Y-120250000D03*
G04 #@! TO.P,R15,2*
G04 #@! TO.N,~GATE*
X143000000Y-121750000D03*
G04 #@! TD*
G04 #@! TO.P,R16,2*
G04 #@! TO.N,VCC*
X146750000Y-118750000D03*
G04 #@! TO.P,R16,1*
G04 #@! TO.N,Net-(Gate1-Pad2)*
X146750000Y-120250000D03*
G04 #@! TD*
D16*
G04 #@! TO.P,R22,1*
G04 #@! TO.N,Net-(Gate1-Pad1)*
X145000000Y-130250000D03*
G04 #@! TO.P,R22,2*
G04 #@! TO.N,GND*
X146500000Y-130250000D03*
G04 #@! TD*
D12*
G04 #@! TO.P,D5,1*
G04 #@! TO.N,Net-(Attack1-Pad2)*
X153700000Y-145250000D03*
G04 #@! TO.P,D5,2*
G04 #@! TO.N,FULL_WAVE*
X152300000Y-145250000D03*
G04 #@! TD*
G04 #@! TO.P,D7,1*
G04 #@! TO.N,Net-(D7-Pad1)*
X142200000Y-145250000D03*
G04 #@! TO.P,D7,2*
G04 #@! TO.N,Net-(D7-Pad2)*
X140800000Y-145250000D03*
G04 #@! TD*
D17*
G04 #@! TO.P,D2,2*
G04 #@! TO.N,Net-(D2-Pad2)*
X156250000Y-52200000D03*
G04 #@! TO.P,D2,1*
G04 #@! TO.N,Net-(D2-Pad1)*
X156250000Y-50800000D03*
G04 #@! TD*
G04 #@! TO.P,D1,1*
G04 #@! TO.N,Net-(D1-Pad1)*
X140750000Y-52200000D03*
G04 #@! TO.P,D1,2*
G04 #@! TO.N,Net-(D1-Pad2)*
X140750000Y-50800000D03*
G04 #@! TD*
D12*
G04 #@! TO.P,D6,1*
G04 #@! TO.N,FULL_WAVE*
X152300000Y-141500000D03*
G04 #@! TO.P,D6,2*
G04 #@! TO.N,Net-(D6-Pad2)*
X153700000Y-141500000D03*
G04 #@! TD*
D18*
G04 #@! TO.P,J1,3*
G04 #@! TO.N,Net-(C3-Pad1)*
X143750000Y-68970000D03*
G04 #@! TO.P,J1,1*
G04 #@! TO.N,GND*
X143750000Y-57570000D03*
G04 #@! TO.P,J1,2*
G04 #@! TO.N,Net-(J1-Pad2)*
X143750000Y-60670000D03*
G04 #@! TD*
G04 #@! TO.P,J2,2*
G04 #@! TO.N,Net-(J2-Pad2)*
X153250000Y-60670000D03*
G04 #@! TO.P,J2,1*
G04 #@! TO.N,GND*
X153250000Y-57570000D03*
G04 #@! TO.P,J2,3*
G04 #@! TO.N,Net-(J2-Pad3)*
X153250000Y-68970000D03*
G04 #@! TD*
G04 #@! TO.P,J3,3*
G04 #@! TO.N,Net-(J3-Pad3)*
X143750000Y-71830000D03*
G04 #@! TO.P,J3,1*
G04 #@! TO.N,GND*
X143750000Y-83230000D03*
G04 #@! TO.P,J3,2*
G04 #@! TO.N,Net-(J3-Pad2)*
X143750000Y-80130000D03*
G04 #@! TD*
G04 #@! TO.P,J4,2*
G04 #@! TO.N,Net-(J4-Pad2)*
X153250000Y-80130000D03*
G04 #@! TO.P,J4,1*
G04 #@! TO.N,GND*
X153250000Y-83230000D03*
G04 #@! TO.P,J4,3*
G04 #@! TO.N,Net-(J4-Pad3)*
X153250000Y-71830000D03*
G04 #@! TD*
D19*
G04 #@! TO.P,MIC1,2*
G04 #@! TO.N,Net-(J1-Pad2)*
X144750000Y-88710000D03*
D20*
G04 #@! TO.P,MIC1,1*
G04 #@! TO.N,GND*
X144750000Y-91250000D03*
G04 #@! TD*
D19*
G04 #@! TO.P,Attack1,3*
G04 #@! TO.N,Net-(Attack1-Pad3)*
X153500000Y-125220000D03*
G04 #@! TO.P,Attack1,2*
G04 #@! TO.N,Net-(Attack1-Pad2)*
X153500000Y-127760000D03*
D20*
G04 #@! TO.P,Attack1,1*
G04 #@! TO.N,Net-(Attack1-Pad1)*
X153500000Y-130300000D03*
G04 #@! TD*
G04 #@! TO.P,Decay1,1*
G04 #@! TO.N,Net-(Decay1-Pad1)*
X151000000Y-125250000D03*
D19*
G04 #@! TO.P,Decay1,2*
G04 #@! TO.N,Net-(D6-Pad2)*
X151000000Y-127790000D03*
G04 #@! TO.P,Decay1,3*
G04 #@! TO.N,Net-(Decay1-Pad3)*
X151000000Y-130330000D03*
G04 #@! TD*
G04 #@! TO.P,Gate1,3*
G04 #@! TO.N,Net-(Gate1-Pad3)*
X143000000Y-125170000D03*
G04 #@! TO.P,Gate1,2*
G04 #@! TO.N,Net-(Gate1-Pad2)*
X143000000Y-127710000D03*
D20*
G04 #@! TO.P,Gate1,1*
G04 #@! TO.N,Net-(Gate1-Pad1)*
X143000000Y-130250000D03*
G04 #@! TD*
D21*
G04 #@! TO.P,U2,14*
G04 #@! TO.N,Net-(LED3-Pad2)*
X154819400Y-114550001D03*
G04 #@! TO.P,U2,13*
G04 #@! TO.N,Net-(LED3-Pad1)*
X154819400Y-115200000D03*
G04 #@! TO.P,U2,12*
G04 #@! TO.N,GATE*
X154819400Y-115850001D03*
G04 #@! TO.P,U2,11*
G04 #@! TO.N,GND*
X154819400Y-116500000D03*
G04 #@! TO.P,U2,10*
G04 #@! TO.N,FULL_WAVE*
X154819400Y-117150001D03*
G04 #@! TO.P,U2,9*
G04 #@! TO.N,Net-(R18-Pad2)*
X154819400Y-117800000D03*
G04 #@! TO.P,U2,8*
G04 #@! TO.N,CLIP*
X154819400Y-118450001D03*
G04 #@! TO.P,U2,7*
G04 #@! TO.N,~GATE*
X149180600Y-118449999D03*
G04 #@! TO.P,U2,6*
G04 #@! TO.N,ENVELOPE*
X149180600Y-117800000D03*
G04 #@! TO.P,U2,5*
G04 #@! TO.N,Net-(Gate1-Pad2)*
X149180600Y-117149999D03*
G04 #@! TO.P,U2,4*
G04 #@! TO.N,VCC*
X149180600Y-116500000D03*
G04 #@! TO.P,U2,3*
G04 #@! TO.N,GND*
X149180600Y-115850001D03*
G04 #@! TO.P,U2,2*
G04 #@! TO.N,Net-(C10-Pad1)*
X149180600Y-115200000D03*
G04 #@! TO.P,U2,1*
G04 #@! TO.N,GATE*
X149180600Y-114549999D03*
G04 #@! TD*
G04 #@! TO.P,U3,1*
G04 #@! TO.N,ENVELOPE*
X143430600Y-138799999D03*
G04 #@! TO.P,U3,2*
X143430600Y-139450000D03*
G04 #@! TO.P,U3,3*
G04 #@! TO.N,Net-(C11-Pad1)*
X143430600Y-140100001D03*
G04 #@! TO.P,U3,4*
G04 #@! TO.N,VCC*
X143430600Y-140750000D03*
G04 #@! TO.P,U3,5*
G04 #@! TO.N,ENVELOPE*
X143430600Y-141399999D03*
G04 #@! TO.P,U3,6*
G04 #@! TO.N,Net-(LED2-Pad1)*
X143430600Y-142050000D03*
G04 #@! TO.P,U3,7*
G04 #@! TO.N,Net-(LED2-Pad2)*
X143430600Y-142699999D03*
G04 #@! TO.P,U3,8*
G04 #@! TO.N,Net-(D7-Pad2)*
X149069400Y-142700001D03*
G04 #@! TO.P,U3,9*
G04 #@! TO.N,Net-(D7-Pad1)*
X149069400Y-142050000D03*
G04 #@! TO.P,U3,10*
G04 #@! TO.N,GND*
X149069400Y-141400001D03*
G04 #@! TO.P,U3,11*
G04 #@! TO.N,VEE*
X149069400Y-140750000D03*
G04 #@! TO.P,U3,12*
G04 #@! TO.N,GND*
X149069400Y-140100001D03*
G04 #@! TO.P,U3,13*
G04 #@! TO.N,Net-(C14-Pad1)*
X149069400Y-139450000D03*
G04 #@! TO.P,U3,14*
G04 #@! TO.N,FULL_WAVE*
X149069400Y-138800001D03*
G04 #@! TD*
D22*
G04 #@! TO.P,U1,1*
G04 #@! TO.N,Net-(U1-Pad1)*
X148328300Y-87275001D03*
G04 #@! TO.P,U1,2*
G04 #@! TO.N,Net-(C7-Pad1)*
X148328300Y-87924999D03*
G04 #@! TO.P,U1,3*
G04 #@! TO.N,Net-(R4-Pad1)*
X148328300Y-88575001D03*
G04 #@! TO.P,U1,4*
G04 #@! TO.N,VEE*
X148328300Y-89224999D03*
G04 #@! TO.P,U1,5*
G04 #@! TO.N,Net-(U1-Pad5)*
X152671700Y-89224999D03*
G04 #@! TO.P,U1,6*
G04 #@! TO.N,AMP_OUT*
X152671700Y-88575001D03*
G04 #@! TO.P,U1,7*
G04 #@! TO.N,VCC*
X152671700Y-87924999D03*
G04 #@! TO.P,U1,8*
G04 #@! TO.N,Net-(U1-Pad8)*
X152671700Y-87275001D03*
G04 #@! TD*
D19*
G04 #@! TO.P,JP4,10*
G04 #@! TO.N,Net-(D2-Pad1)*
X153660000Y-51460000D03*
G04 #@! TO.P,JP4,9*
X153660000Y-54000000D03*
G04 #@! TO.P,JP4,8*
G04 #@! TO.N,GND*
X151120000Y-51460000D03*
G04 #@! TO.P,JP4,7*
X151120000Y-54000000D03*
G04 #@! TO.P,JP4,6*
X148580000Y-51460000D03*
G04 #@! TO.P,JP4,5*
X148580000Y-54000000D03*
G04 #@! TO.P,JP4,4*
X146040000Y-51460000D03*
G04 #@! TO.P,JP4,3*
X146040000Y-54000000D03*
G04 #@! TO.P,JP4,2*
G04 #@! TO.N,Net-(D1-Pad2)*
X143500000Y-51460000D03*
D20*
G04 #@! TO.P,JP4,1*
X143500000Y-54000000D03*
G04 #@! TD*
D18*
G04 #@! TO.P,LED1,2*
G04 #@! TO.N,Net-(LED1-Pad2)*
X142110000Y-111690000D03*
D23*
G04 #@! TO.P,LED1,1*
G04 #@! TO.N,GND*
X142110000Y-109150000D03*
G04 #@! TD*
D18*
G04 #@! TO.P,LED2,2*
G04 #@! TO.N,Net-(LED2-Pad2)*
X148480000Y-111690000D03*
D23*
G04 #@! TO.P,LED2,1*
G04 #@! TO.N,Net-(LED2-Pad1)*
X148480000Y-109150000D03*
G04 #@! TD*
G04 #@! TO.P,LED3,1*
G04 #@! TO.N,Net-(LED3-Pad1)*
X154790000Y-109150000D03*
D18*
G04 #@! TO.P,LED3,2*
G04 #@! TO.N,Net-(LED3-Pad2)*
X154790000Y-111690000D03*
G04 #@! TD*
D15*
G04 #@! TO.P,R35,2*
G04 #@! TO.N,Net-(D8-Pad2)*
X149500000Y-147750000D03*
G04 #@! TO.P,R35,1*
G04 #@! TO.N,Net-(C14-Pad1)*
X149500000Y-146250000D03*
G04 #@! TD*
D24*
G04 #@! TO.N,VCC*
X140750000Y-56250000D03*
X140750000Y-138000000D03*
X145500000Y-141250000D03*
X151500000Y-117500000D03*
X141174990Y-116250000D03*
X146750000Y-117692400D03*
X142500000Y-87250000D03*
X148000000Y-85250000D03*
G04 #@! TO.N,AMP_OUT*
X147525000Y-94250000D03*
X150000000Y-91750000D03*
X155123002Y-80750000D03*
X156262653Y-78737347D03*
X156250000Y-68250000D03*
G04 #@! TO.N,VEE*
X156000000Y-56250000D03*
X141000000Y-137000000D03*
X147000000Y-141250000D03*
X142500000Y-113500000D03*
X142500000Y-85750000D03*
X145500000Y-84500000D03*
X142500000Y-88500000D03*
G04 #@! TO.N,ENVELOPE*
X155500000Y-123500000D03*
X155848002Y-92250000D03*
X147000000Y-74750000D03*
G04 #@! TO.N,GND*
X150750000Y-141250000D03*
X146750000Y-133750000D03*
X153750000Y-120000000D03*
X147750000Y-126250000D03*
X143750000Y-123250000D03*
X143250000Y-134250000D03*
X142500000Y-92250000D03*
X152750000Y-116500000D03*
X150250000Y-58000000D03*
X150000000Y-79500000D03*
G04 #@! TO.N,GATE*
X153000000Y-76500000D03*
G04 #@! TO.N,CLIP*
X154750000Y-119500000D03*
X152750000Y-112000000D03*
X147000000Y-107250000D03*
G04 #@! TO.N,Net-(Gate1-Pad2)*
X146750000Y-121500000D03*
G04 #@! TO.N,Net-(Attack1-Pad2)*
X155250000Y-144750000D03*
G04 #@! TO.N,Net-(D6-Pad2)*
X153500000Y-140250000D03*
G04 #@! TO.N,Net-(J1-Pad2)*
X144750000Y-86562653D03*
G04 #@! TO.N,Net-(C11-Pad1)*
X151750000Y-136500000D03*
G04 #@! TO.N,Net-(C14-Pad1)*
X152750000Y-138500000D03*
X151250000Y-139525001D03*
X156250000Y-140000000D03*
G04 #@! TO.N,Net-(D7-Pad1)*
X150500000Y-145000000D03*
G04 #@! TO.N,Net-(C15-Pad2)*
X156500000Y-94000000D03*
G04 #@! TO.N,Net-(R4-Pad1)*
X146750000Y-84750000D03*
X148000000Y-82250000D03*
X147000000Y-68500000D03*
G04 #@! TO.N,Net-(R12-Pad2)*
X143750000Y-116250000D03*
G04 #@! TD*
D25*
G04 #@! TO.N,AMP_OUT*
X146000000Y-104730762D02*
X146715480Y-104015282D01*
X146000000Y-105650000D02*
X146000000Y-104730762D01*
D26*
G04 #@! TO.N,Net-(D2-Pad1)*
X153598880Y-51363880D02*
X153598880Y-53903880D01*
X153598880Y-51363880D02*
X154010360Y-51363880D01*
D25*
G04 #@! TO.N,Net-(D1-Pad2)*
X143438880Y-51363880D02*
X142900400Y-51363880D01*
X143438880Y-51363880D02*
X142803880Y-51363880D01*
D26*
X143438880Y-51363880D02*
X142910560Y-51363880D01*
X143438880Y-51363880D02*
X143438880Y-53903880D01*
X143500000Y-51460000D02*
X142210000Y-51460000D01*
X141550000Y-50800000D02*
X140750000Y-50800000D01*
X142210000Y-51460000D02*
X141550000Y-50800000D01*
G04 #@! TO.N,VCC*
X140750000Y-55000000D02*
X140750000Y-56250000D01*
X140500000Y-137750000D02*
X140750000Y-138000000D01*
X145000000Y-140750000D02*
X145500000Y-141250000D01*
X143430600Y-140750000D02*
X145000000Y-140750000D01*
X150500000Y-116500000D02*
X149180600Y-116500000D01*
X151500000Y-117500000D02*
X151500000Y-117500000D01*
X151500000Y-119750000D02*
X151500000Y-117500000D01*
X150000000Y-121250000D02*
X151500000Y-119750000D01*
X150000000Y-121500000D02*
X150000000Y-121250000D01*
X151000000Y-117000000D02*
X150750000Y-116750000D01*
X150750000Y-116750000D02*
X150500000Y-116500000D01*
X151500000Y-117500000D02*
X150750000Y-116750000D01*
X146750000Y-117692400D02*
X146750000Y-117692400D01*
X149180600Y-116500000D02*
X147942400Y-116500000D01*
X147942400Y-116500000D02*
X146750000Y-117692400D01*
X140000000Y-137250000D02*
X140750000Y-138000000D01*
X140000000Y-119000000D02*
X140000000Y-137250000D01*
X141174990Y-117825010D02*
X140000000Y-119000000D01*
X141174990Y-116250000D02*
X141174990Y-117825010D01*
X140750000Y-57250000D02*
X140750000Y-56250000D01*
X140000000Y-58000000D02*
X140750000Y-57250000D01*
X141174990Y-114174990D02*
X140000000Y-113000000D01*
X141174990Y-116250000D02*
X141174990Y-114174990D01*
X146750000Y-117692400D02*
X146750000Y-118750000D01*
X140000000Y-113000000D02*
X140000000Y-84000000D01*
D25*
X149367845Y-85117845D02*
X149500000Y-85250000D01*
X148000000Y-85250000D02*
X149500000Y-85250000D01*
X149500000Y-85875000D02*
X149500000Y-85250000D01*
X151549999Y-87924999D02*
X149500000Y-85875000D01*
X152671700Y-87924999D02*
X151549999Y-87924999D01*
X140000000Y-84750000D02*
X140000000Y-83250000D01*
X142500000Y-87250000D02*
X140000000Y-84750000D01*
D26*
X140000000Y-84000000D02*
X140000000Y-83250000D01*
X140000000Y-83250000D02*
X140000000Y-58000000D01*
D25*
G04 #@! TO.N,AMP_OUT*
X151250000Y-90750000D02*
X152750000Y-90750000D01*
X153375000Y-90750000D02*
X154250000Y-89875000D01*
X152750000Y-90750000D02*
X153375000Y-90750000D01*
X153632900Y-88575001D02*
X152671700Y-88575001D01*
X154250000Y-89875000D02*
X154250000Y-89192101D01*
X146715480Y-104015282D02*
X146984718Y-104015282D01*
X146984718Y-104015282D02*
X148000000Y-103000000D01*
X148000000Y-103000000D02*
X148000000Y-96250000D01*
X148000000Y-96250000D02*
X147525000Y-95775000D01*
X147525000Y-95775000D02*
X147525000Y-94250000D01*
X150000000Y-91750000D02*
X150000000Y-91000000D01*
X150250000Y-90750000D02*
X151250000Y-90750000D01*
X150000000Y-91000000D02*
X150250000Y-90750000D01*
X154057899Y-89000000D02*
X154057899Y-88942101D01*
X154057899Y-89000000D02*
X153632900Y-88575001D01*
X154250000Y-89192101D02*
X154057899Y-89000000D01*
X154057899Y-88942101D02*
X155123002Y-87876998D01*
X155123002Y-87876998D02*
X155123002Y-80750000D01*
X156262653Y-78737347D02*
X156662652Y-78337348D01*
X156662652Y-78337348D02*
X156662652Y-68662652D01*
X156662652Y-68662652D02*
X156250000Y-68250000D01*
D26*
G04 #@! TO.N,VEE*
X156500000Y-55000000D02*
X156500000Y-55750000D01*
X156500000Y-55750000D02*
X156000000Y-56250000D01*
X155040800Y-56250000D02*
X154645400Y-55854600D01*
X156000000Y-56250000D02*
X155040800Y-56250000D01*
X154645400Y-55854600D02*
X148803360Y-55854600D01*
X148803360Y-55854600D02*
X145516600Y-59141360D01*
X145516600Y-59141360D02*
X141858640Y-59141360D01*
X141858640Y-59141360D02*
X140600010Y-60399990D01*
X147500000Y-140750000D02*
X149069400Y-140750000D01*
X147000000Y-141250000D02*
X147500000Y-140750000D01*
X141000000Y-137000000D02*
X140600010Y-136600010D01*
X141750000Y-113500000D02*
X142500000Y-113500000D01*
X140600010Y-112350010D02*
X141750000Y-113500000D01*
X141974990Y-118025010D02*
X141974990Y-115025010D01*
X142500000Y-113500000D02*
X142500000Y-114500000D01*
X141974990Y-115025010D02*
X142500000Y-114500000D01*
X140600010Y-119399990D02*
X140600010Y-119750000D01*
X141250000Y-118750000D02*
X141974990Y-118025010D01*
X140750000Y-119250000D02*
X141250000Y-118750000D01*
X140600010Y-119399990D02*
X141250000Y-118750000D01*
X140600010Y-120000000D02*
X140600010Y-119399990D01*
X140600010Y-120000000D02*
X140600010Y-119750000D01*
X140600010Y-136600010D02*
X140600010Y-120000000D01*
X140600010Y-83250000D02*
X140600010Y-83625316D01*
X140600010Y-60399990D02*
X140600010Y-83250000D01*
X140600010Y-83625316D02*
X140625316Y-83625316D01*
D25*
X147367100Y-89224999D02*
X148328300Y-89224999D01*
X145925001Y-87782900D02*
X147367100Y-89224999D01*
X145925001Y-84925001D02*
X145925001Y-87782900D01*
X145500000Y-84500000D02*
X145925001Y-84925001D01*
X145500000Y-84500000D02*
X146250000Y-83750000D01*
X146250000Y-83750000D02*
X147250000Y-83750000D01*
X147000000Y-83750000D02*
X147250000Y-83750000D01*
X147250000Y-83750000D02*
X149500000Y-83750000D01*
D26*
X141000000Y-90000000D02*
X140600010Y-90000000D01*
X142500000Y-88500000D02*
X141000000Y-90000000D01*
X140600010Y-90000000D02*
X140600010Y-112350010D01*
X140600010Y-83850010D02*
X142500000Y-85750000D01*
X140600010Y-83625316D02*
X140600010Y-83850010D01*
D25*
G04 #@! TO.N,ENVELOPE*
X142342400Y-141399999D02*
X142000000Y-141057599D01*
X143430600Y-141399999D02*
X142342400Y-141399999D01*
X143430600Y-139450000D02*
X143430600Y-138799999D01*
X142342400Y-139450000D02*
X143430600Y-139450000D01*
X142000000Y-139792400D02*
X142342400Y-139450000D01*
X142000000Y-141057599D02*
X142000000Y-139792400D01*
X150750000Y-119000000D02*
X150750000Y-118281200D01*
X149000000Y-120750000D02*
X150750000Y-119000000D01*
X143430600Y-138799999D02*
X143430600Y-138372199D01*
X143430600Y-138372199D02*
X144750000Y-137052799D01*
X144750000Y-137052799D02*
X144750000Y-133250000D01*
X144750000Y-133250000D02*
X145750000Y-132250000D01*
X150268800Y-117800000D02*
X149180600Y-117800000D01*
X145750000Y-132250000D02*
X148500000Y-132250000D01*
X150750000Y-118281200D02*
X150268800Y-117800000D01*
X148500000Y-132250000D02*
X149000000Y-131750000D01*
X155250000Y-123250000D02*
X155500000Y-123500000D01*
X149000000Y-123250000D02*
X155250000Y-123250000D01*
X149000000Y-123250000D02*
X149000000Y-120750000D01*
X149000000Y-131750000D02*
X149000000Y-123250000D01*
X155848002Y-92250000D02*
X155848002Y-80098002D01*
X149475001Y-77225001D02*
X147000000Y-74750000D01*
X155848002Y-80098002D02*
X152975001Y-77225001D01*
X152975001Y-77225001D02*
X149475001Y-77225001D01*
G04 #@! TO.N,Net-(C7-Pad1)*
X148500000Y-105650000D02*
X148500000Y-95750000D01*
X151250000Y-92275000D02*
X151250000Y-92250000D01*
X148250000Y-95500000D02*
X148250000Y-92500000D01*
X148500000Y-95750000D02*
X148250000Y-95500000D01*
X151000000Y-92500000D02*
X151250000Y-92250000D01*
X148250000Y-92500000D02*
X151000000Y-92500000D01*
X149289500Y-87924999D02*
X148328300Y-87924999D01*
X149750000Y-88385499D02*
X149289500Y-87924999D01*
X149750000Y-89315401D02*
X149750000Y-88385499D01*
X149025001Y-90040400D02*
X149750000Y-89315401D01*
X149025001Y-91924999D02*
X149025001Y-90040400D01*
X148450000Y-92500000D02*
X149025001Y-91924999D01*
X148250000Y-92500000D02*
X148450000Y-92500000D01*
G04 #@! TO.N,GND*
X150750000Y-140692401D02*
X150750000Y-141250000D01*
X149069400Y-140100001D02*
X150157600Y-140100001D01*
X150157600Y-140100001D02*
X150750000Y-140692401D01*
X150599999Y-141400001D02*
X150750000Y-141250000D01*
X149069400Y-141400001D02*
X150599999Y-141400001D01*
X149180600Y-115850001D02*
X150850001Y-115850001D01*
X151500000Y-116500000D02*
X152750000Y-116500000D01*
X150850001Y-115850001D02*
X151500000Y-116500000D01*
X152750000Y-116500000D02*
X154819400Y-116500000D01*
X154500000Y-120750000D02*
X153750000Y-120000000D01*
X154500000Y-121500000D02*
X154500000Y-120750000D01*
X143010000Y-108250000D02*
X142110000Y-109150000D01*
X145250000Y-108250000D02*
X143010000Y-108250000D01*
X152750000Y-116500000D02*
X152750000Y-116500000D01*
G04 #@! TO.N,FULL_WAVE*
X152250000Y-145300000D02*
X152300000Y-145250000D01*
X152250000Y-147250000D02*
X152250000Y-145300000D01*
X152300000Y-143300000D02*
X152250000Y-143250000D01*
X152300000Y-145250000D02*
X152300000Y-143300000D01*
X152250000Y-141550000D02*
X152300000Y-141500000D01*
X152250000Y-143250000D02*
X152250000Y-141550000D01*
X152300000Y-141500000D02*
X152300000Y-141450000D01*
X149069400Y-138800001D02*
X151699999Y-138800001D01*
X152300000Y-139400002D02*
X152300000Y-141500000D01*
X151699999Y-138800001D02*
X152300000Y-139400002D01*
X155907600Y-117150001D02*
X154819400Y-117150001D01*
X151699999Y-138800001D02*
X151699999Y-138476999D01*
X151699999Y-138476999D02*
X152676998Y-137500000D01*
X152676998Y-137500000D02*
X155750000Y-137500000D01*
X155750000Y-137500000D02*
X156500000Y-136750000D01*
X156500000Y-136750000D02*
X156500000Y-117742401D01*
X156500000Y-117742401D02*
X155907600Y-117150001D01*
G04 #@! TO.N,Net-(D8-Pad2)*
X144250000Y-147500000D02*
X144500000Y-147750000D01*
X142200000Y-147500000D02*
X144250000Y-147500000D01*
X144500000Y-147750000D02*
X147000000Y-147750000D01*
X147700000Y-147750000D02*
X149500000Y-147750000D01*
X147000000Y-147750000D02*
X147700000Y-147750000D01*
G04 #@! TO.N,GATE*
X150268800Y-114549999D02*
X149180600Y-114549999D01*
X150486407Y-114549999D02*
X150268800Y-114549999D01*
X146950001Y-114549999D02*
X146750000Y-114750000D01*
X149180600Y-114549999D02*
X146950001Y-114549999D01*
X146750000Y-114750000D02*
X145000000Y-114750000D01*
X153475001Y-112348001D02*
X153475001Y-111651999D01*
X150486407Y-114549999D02*
X151273003Y-114549999D01*
X151273003Y-114549999D02*
X153475001Y-112348001D01*
X153475001Y-111651999D02*
X153250000Y-111426998D01*
X153250000Y-111426998D02*
X153250000Y-108000000D01*
X153250000Y-108000000D02*
X153750000Y-107500000D01*
X153750000Y-107500000D02*
X156000000Y-107500000D01*
X156000000Y-107500000D02*
X156500000Y-107000000D01*
X156500000Y-107000000D02*
X156500000Y-95000000D01*
X157225001Y-93651999D02*
X156573002Y-93000000D01*
X157225001Y-94348001D02*
X157225001Y-93651999D01*
X156848001Y-94725001D02*
X157225001Y-94348001D01*
X156500000Y-95000000D02*
X156774999Y-94725001D01*
X156774999Y-94725001D02*
X156848001Y-94725001D01*
X156573002Y-93000000D02*
X156573002Y-80073002D01*
X156573002Y-80073002D02*
X153000000Y-76500000D01*
X153475001Y-115593802D02*
X153475001Y-112348001D01*
X153731200Y-115850001D02*
X153475001Y-115593802D01*
X154819400Y-115850001D02*
X153731200Y-115850001D01*
G04 #@! TO.N,CLIP*
X154819400Y-118450001D02*
X154819400Y-119430600D01*
X154819400Y-119430600D02*
X154750000Y-119500000D01*
X152750000Y-112000000D02*
X151000000Y-110250000D01*
X151000000Y-110250000D02*
X150500000Y-109750000D01*
X150500000Y-109750000D02*
X150500000Y-108000000D01*
X150500000Y-108000000D02*
X149750000Y-107250000D01*
X149750000Y-107250000D02*
X147000000Y-107250000D01*
G04 #@! TO.N,Net-(Gate1-Pad2)*
X144960000Y-127710000D02*
X145000000Y-127750000D01*
X143000000Y-127710000D02*
X144960000Y-127710000D01*
X145200000Y-120250000D02*
X145000000Y-120250000D01*
X148092400Y-117149999D02*
X149180600Y-117149999D01*
X146750000Y-121500000D02*
X146750000Y-120250000D01*
X146750000Y-120250000D02*
X145000000Y-120250000D01*
X146950000Y-120250000D02*
X147750000Y-119450000D01*
X146750000Y-120250000D02*
X146950000Y-120250000D01*
X147750000Y-119450000D02*
X147750000Y-117492399D01*
X147750000Y-117492399D02*
X148092400Y-117149999D01*
G04 #@! TO.N,Net-(Attack1-Pad2)*
X154200000Y-144750000D02*
X153700000Y-145250000D01*
X155250000Y-144750000D02*
X154200000Y-144750000D01*
G04 #@! TO.N,Net-(D6-Pad2)*
X153700000Y-140450000D02*
X153500000Y-140250000D01*
X153700000Y-141500000D02*
X153700000Y-140450000D01*
G04 #@! TO.N,Net-(Decay1-Pad1)*
X149900000Y-125250000D02*
X151000000Y-125250000D01*
X149500000Y-125650000D02*
X149900000Y-125250000D01*
X149500000Y-133750000D02*
X149500000Y-125650000D01*
G04 #@! TO.N,Net-(Decay1-Pad3)*
X151250000Y-130580000D02*
X151000000Y-130330000D01*
X151250000Y-133750000D02*
X151250000Y-130580000D01*
G04 #@! TO.N,Net-(Attack1-Pad3)*
X154750000Y-133750000D02*
X154750000Y-132500000D01*
X154750000Y-132500000D02*
X155000000Y-132250000D01*
X155000000Y-126720000D02*
X153500000Y-125220000D01*
X155000000Y-132250000D02*
X155000000Y-126720000D01*
G04 #@! TO.N,Net-(Gate1-Pad1)*
X143000000Y-130250000D02*
X145000000Y-130250000D01*
G04 #@! TO.N,Net-(Gate1-Pad3)*
X144830000Y-125170000D02*
X145000000Y-125000000D01*
X143000000Y-125170000D02*
X144830000Y-125170000D01*
G04 #@! TO.N,Net-(Attack1-Pad1)*
X153000000Y-133750000D02*
X153000000Y-132500000D01*
X153500000Y-132000000D02*
X153500000Y-130300000D01*
X153000000Y-132500000D02*
X153500000Y-132000000D01*
G04 #@! TO.N,Net-(J1-Pad2)*
X141125020Y-63294980D02*
X143750000Y-60670000D01*
X141125020Y-82937673D02*
X141125020Y-81500000D01*
X144750000Y-86562653D02*
X141125020Y-82937673D01*
X141125020Y-82750000D02*
X141125020Y-81500000D01*
X141125020Y-81500000D02*
X141125020Y-63294980D01*
G04 #@! TO.N,~GATE*
X143000000Y-121750000D02*
X145000000Y-121750000D01*
X148474990Y-120525010D02*
X149180600Y-119819400D01*
X148474990Y-121974990D02*
X148474990Y-120525010D01*
X148500000Y-122000000D02*
X148474990Y-121974990D01*
X149180600Y-118750000D02*
X149180600Y-118449999D01*
X149180600Y-118877799D02*
X149180600Y-118750000D01*
X145000000Y-121750000D02*
X145000000Y-122250000D01*
X145000000Y-122250000D02*
X145500000Y-122750000D01*
X149180600Y-119819400D02*
X149180600Y-118750000D01*
X145500000Y-122750000D02*
X147750000Y-122750000D01*
X147750000Y-122750000D02*
X148500000Y-122000000D01*
G04 #@! TO.N,Net-(C10-Pad1)*
X145000000Y-116250000D02*
X146750000Y-116250000D01*
X148092400Y-115200000D02*
X149180600Y-115200000D01*
X147750000Y-115542400D02*
X148092400Y-115200000D01*
X147750000Y-115875000D02*
X147750000Y-115542400D01*
X147375000Y-116250000D02*
X147750000Y-115875000D01*
X146750000Y-116250000D02*
X147375000Y-116250000D01*
X143000000Y-120000000D02*
X144000000Y-119000000D01*
X143000000Y-120250000D02*
X143000000Y-120000000D01*
X145000000Y-116750000D02*
X145000000Y-116250000D01*
X145000000Y-118700000D02*
X145000000Y-116750000D01*
X144700000Y-119000000D02*
X145000000Y-118700000D01*
X144000000Y-119000000D02*
X144700000Y-119000000D01*
G04 #@! TO.N,Net-(C11-Pad1)*
X152750000Y-135500000D02*
X153000000Y-135250000D01*
X153000000Y-135250000D02*
X154750000Y-135250000D01*
X153000000Y-135250000D02*
X151250000Y-135250000D01*
X151250000Y-135250000D02*
X149500000Y-135250000D01*
X153000000Y-135250000D02*
X151750000Y-136500000D01*
X146000000Y-139600001D02*
X145500000Y-140100001D01*
X146000000Y-136750000D02*
X146000000Y-139600001D01*
X143430600Y-140100001D02*
X145500000Y-140100001D01*
X146000000Y-136750000D02*
X147750000Y-136750000D01*
X148000000Y-136750000D02*
X149500000Y-135250000D01*
X147750000Y-136750000D02*
X148000000Y-136750000D01*
G04 #@! TO.N,Net-(C14-Pad1)*
X150000000Y-146250000D02*
X149500000Y-146250000D01*
X151250000Y-148250000D02*
X150750000Y-147750000D01*
X150750000Y-147750000D02*
X150750000Y-147000000D01*
X150750000Y-147000000D02*
X150000000Y-146250000D01*
X154000000Y-147250000D02*
X153750000Y-147250000D01*
X147000000Y-146250000D02*
X149500000Y-146250000D01*
X153750000Y-147450000D02*
X153750000Y-147250000D01*
X152950000Y-148250000D02*
X153750000Y-147450000D01*
X151250000Y-148250000D02*
X152950000Y-148250000D01*
X154250000Y-147250000D02*
X156500000Y-147250000D01*
X153750000Y-147250000D02*
X154250000Y-147250000D01*
X156500000Y-147250000D02*
X156750000Y-147000000D01*
X156250000Y-142000000D02*
X156250000Y-142750000D01*
X156250000Y-142750000D02*
X156750000Y-143250000D01*
X156750000Y-147000000D02*
X156750000Y-143250000D01*
X153750000Y-143250000D02*
X153775000Y-143250000D01*
X156250000Y-142500000D02*
X156250000Y-142000000D01*
X155500000Y-143250000D02*
X156250000Y-142500000D01*
X153750000Y-143250000D02*
X155500000Y-143250000D01*
X155550000Y-142000000D02*
X155050000Y-141500000D01*
X156250000Y-142000000D02*
X155550000Y-142000000D01*
X155050000Y-141500000D02*
X155050000Y-140300000D01*
X155050000Y-140300000D02*
X153250000Y-138500000D01*
X153250000Y-138500000D02*
X152750000Y-138500000D01*
X149144401Y-139525001D02*
X149069400Y-139450000D01*
X151250000Y-139525001D02*
X149144401Y-139525001D01*
X155350000Y-140000000D02*
X155050000Y-140300000D01*
X156250000Y-140000000D02*
X155350000Y-140000000D01*
D26*
G04 #@! TO.N,Net-(D1-Pad1)*
X140750000Y-52200000D02*
X140750000Y-53500000D01*
G04 #@! TO.N,Net-(D2-Pad2)*
X156250000Y-52900000D02*
X156500000Y-53150000D01*
X156250000Y-52200000D02*
X156250000Y-52900000D01*
X156500000Y-53150000D02*
X156500000Y-53500000D01*
G04 #@! TO.N,Net-(D2-Pad1)*
X154862081Y-51460000D02*
X155000000Y-51322081D01*
X153660000Y-51460000D02*
X154862081Y-51460000D01*
X155500000Y-50800000D02*
X156250000Y-50800000D01*
X155000000Y-51300000D02*
X155500000Y-50800000D01*
X155000000Y-51322081D02*
X155000000Y-51300000D01*
D25*
G04 #@! TO.N,Net-(D7-Pad1)*
X144500000Y-145750000D02*
X144500000Y-146250000D01*
X144000000Y-145250000D02*
X144500000Y-145750000D01*
X142200000Y-145250000D02*
X144000000Y-145250000D01*
X150157600Y-142050000D02*
X149069400Y-142050000D01*
X150500000Y-143500000D02*
X150500000Y-142392400D01*
X144250000Y-145250000D02*
X145000000Y-144500000D01*
X144000000Y-145250000D02*
X144250000Y-145250000D01*
X150500000Y-142392400D02*
X150157600Y-142050000D01*
X145000000Y-144500000D02*
X145500000Y-144500000D01*
X145500000Y-144500000D02*
X146000000Y-144000000D01*
X146000000Y-144000000D02*
X150000000Y-144000000D01*
X150000000Y-144000000D02*
X150500000Y-143500000D01*
X150065685Y-144000000D02*
X150000000Y-144000000D01*
X150500000Y-144434315D02*
X150065685Y-144000000D01*
X150500000Y-145000000D02*
X150500000Y-144434315D01*
G04 #@! TO.N,Net-(C15-Pad2)*
X155750000Y-93250000D02*
X156500000Y-94000000D01*
X154750000Y-92250000D02*
X152750000Y-92250000D01*
X156500000Y-94000000D02*
X154750000Y-92250000D01*
G04 #@! TO.N,Net-(D7-Pad2)*
X140800000Y-147500000D02*
X140800000Y-145250000D01*
X147235001Y-142700001D02*
X149069400Y-142700001D01*
X141450000Y-144000000D02*
X145185002Y-144000000D01*
X140800000Y-145250000D02*
X140800000Y-144650000D01*
X140800000Y-144650000D02*
X141450000Y-144000000D01*
X146485001Y-142700001D02*
X147235001Y-142700001D01*
X145185002Y-144000000D02*
X146485001Y-142700001D01*
G04 #@! TO.N,Net-(LED2-Pad2)*
X144750000Y-111690000D02*
X148480000Y-111690000D01*
X142500000Y-115363590D02*
X143250000Y-114613590D01*
X142500000Y-118250000D02*
X142500000Y-115363590D01*
X143250000Y-113190000D02*
X144750000Y-111690000D01*
X141125020Y-119624980D02*
X142500000Y-118250000D01*
X141125020Y-136000000D02*
X141125020Y-119624980D01*
X143250000Y-114613590D02*
X143250000Y-113190000D01*
X141725001Y-136599981D02*
X141125020Y-136000000D01*
X141725001Y-137348001D02*
X141725001Y-136599981D01*
X141449999Y-142699999D02*
X140500000Y-141750000D01*
X143430600Y-142699999D02*
X141449999Y-142699999D01*
X140500000Y-141750000D02*
X140500000Y-139323002D01*
X140500000Y-139323002D02*
X141500000Y-138323002D01*
X141500000Y-138323002D02*
X141500000Y-137573002D01*
X141500000Y-137573002D02*
X141725001Y-137348001D01*
G04 #@! TO.N,Net-(LED2-Pad1)*
X147880000Y-109750000D02*
X148480000Y-109150000D01*
X145250000Y-109750000D02*
X147880000Y-109750000D01*
X150250000Y-110920000D02*
X148480000Y-109150000D01*
X150250000Y-112750000D02*
X150250000Y-110920000D01*
X142250000Y-136419255D02*
X141575030Y-135744285D01*
X142250000Y-138905990D02*
X142250000Y-136419255D01*
X143430600Y-142050000D02*
X142050000Y-142050000D01*
X141250000Y-139905990D02*
X142250000Y-138905990D01*
X141250000Y-141250000D02*
X141250000Y-139905990D01*
X142050000Y-142050000D02*
X141250000Y-141250000D01*
X141575030Y-135744285D02*
X141575030Y-119924970D01*
X142250000Y-119250000D02*
X142500000Y-119250000D01*
X143750000Y-114250000D02*
X144250000Y-113750000D01*
X141575030Y-119924970D02*
X142250000Y-119250000D01*
X142500000Y-119250000D02*
X143000000Y-118750000D01*
X143000000Y-118750000D02*
X143000000Y-115500000D01*
X143000000Y-115500000D02*
X143750000Y-114750000D01*
X143750000Y-114750000D02*
X143750000Y-114250000D01*
X144250000Y-113750000D02*
X149250000Y-113750000D01*
X149250000Y-113750000D02*
X150250000Y-112750000D01*
G04 #@! TO.N,Net-(LED3-Pad1)*
X155907600Y-115200000D02*
X156500000Y-114607600D01*
X154819400Y-115200000D02*
X155907600Y-115200000D01*
X155940000Y-109150000D02*
X154790000Y-109150000D01*
X156500000Y-109710000D02*
X155940000Y-109150000D01*
X156500000Y-114607600D02*
X156500000Y-109710000D01*
G04 #@! TO.N,Net-(LED3-Pad2)*
X154790000Y-114520601D02*
X154819400Y-114550001D01*
X154790000Y-111690000D02*
X154790000Y-114520601D01*
G04 #@! TO.N,Net-(R4-Pad1)*
X146750000Y-87957901D02*
X146750000Y-84750000D01*
X148328300Y-88575001D02*
X147367100Y-88575001D01*
X147367100Y-88575001D02*
X146750000Y-87957901D01*
X146274999Y-69225001D02*
X147000000Y-68500000D01*
X148000000Y-82250000D02*
X146274999Y-80524999D01*
X146274999Y-80524999D02*
X146274999Y-69225001D01*
G04 #@! TO.N,Net-(R12-Pad2)*
X143750000Y-117250000D02*
X144000000Y-117500000D01*
X143750000Y-116250000D02*
X143750000Y-117250000D01*
G04 #@! TO.N,Net-(R18-Pad2)*
X151500000Y-121500000D02*
X153000000Y-121500000D01*
X153731200Y-117800000D02*
X154819400Y-117800000D01*
X153000000Y-118531200D02*
X153731200Y-117800000D01*
X153000000Y-121500000D02*
X153000000Y-118531200D01*
G04 #@! TD*
D27*
G04 #@! TO.N,GND*
G36*
X150663720Y-140402432D02*
X151044126Y-140560001D01*
X151455874Y-140560001D01*
X151540001Y-140525155D01*
X151540001Y-140695469D01*
X151401843Y-140902235D01*
X151352560Y-141150000D01*
X151352560Y-141850000D01*
X151401843Y-142097765D01*
X151490001Y-142229701D01*
X151490001Y-142351836D01*
X151392191Y-142417191D01*
X151260000Y-142615027D01*
X151260000Y-142467248D01*
X151274888Y-142392400D01*
X151260000Y-142317552D01*
X151260000Y-142317548D01*
X151216315Y-142097929D01*
X151215904Y-142095862D01*
X151141223Y-141984095D01*
X151047929Y-141844471D01*
X150984470Y-141802069D01*
X150747931Y-141565530D01*
X150705529Y-141502071D01*
X150454137Y-141334096D01*
X150406200Y-141324561D01*
X150505757Y-141175565D01*
X150555040Y-140927800D01*
X150555040Y-140572200D01*
X150505757Y-140324435D01*
X150479408Y-140285001D01*
X150546289Y-140285001D01*
X150663720Y-140402432D01*
X150663720Y-140402432D01*
G37*
X150663720Y-140402432D02*
X151044126Y-140560001D01*
X151455874Y-140560001D01*
X151540001Y-140525155D01*
X151540001Y-140695469D01*
X151401843Y-140902235D01*
X151352560Y-141150000D01*
X151352560Y-141850000D01*
X151401843Y-142097765D01*
X151490001Y-142229701D01*
X151490001Y-142351836D01*
X151392191Y-142417191D01*
X151260000Y-142615027D01*
X151260000Y-142467248D01*
X151274888Y-142392400D01*
X151260000Y-142317552D01*
X151260000Y-142317548D01*
X151216315Y-142097929D01*
X151215904Y-142095862D01*
X151141223Y-141984095D01*
X151047929Y-141844471D01*
X150984470Y-141802069D01*
X150747931Y-141565530D01*
X150705529Y-141502071D01*
X150454137Y-141334096D01*
X150406200Y-141324561D01*
X150505757Y-141175565D01*
X150555040Y-140927800D01*
X150555040Y-140572200D01*
X150505757Y-140324435D01*
X150479408Y-140285001D01*
X150546289Y-140285001D01*
X150663720Y-140402432D01*
G36*
X144302235Y-122598157D02*
X144321094Y-122601908D01*
X144452072Y-122797929D01*
X144515527Y-122840329D01*
X144909671Y-123234472D01*
X144952071Y-123297929D01*
X145015527Y-123340329D01*
X145203462Y-123465904D01*
X145251605Y-123475480D01*
X145425148Y-123510000D01*
X145425152Y-123510000D01*
X145500000Y-123524888D01*
X145574848Y-123510000D01*
X147675153Y-123510000D01*
X147750000Y-123524888D01*
X147824847Y-123510000D01*
X147824852Y-123510000D01*
X148046537Y-123465904D01*
X148240001Y-123336635D01*
X148240000Y-131435198D01*
X148185199Y-131490000D01*
X145824848Y-131490000D01*
X145750000Y-131475112D01*
X145675152Y-131490000D01*
X145675148Y-131490000D01*
X145453463Y-131534096D01*
X145202071Y-131702071D01*
X145159671Y-131765527D01*
X144265528Y-132659671D01*
X144202072Y-132702071D01*
X144159672Y-132765527D01*
X144159671Y-132765528D01*
X144109691Y-132840329D01*
X144034097Y-132953463D01*
X144015307Y-133047929D01*
X143975112Y-133250000D01*
X143990001Y-133324852D01*
X143990000Y-136737996D01*
X143010000Y-137717998D01*
X143010000Y-136494103D01*
X143024888Y-136419255D01*
X143010000Y-136344407D01*
X143010000Y-136344403D01*
X142965904Y-136122718D01*
X142965904Y-136122717D01*
X142840329Y-135934782D01*
X142797929Y-135871326D01*
X142734473Y-135828926D01*
X142335030Y-135429484D01*
X142335030Y-131747440D01*
X143850000Y-131747440D01*
X144097765Y-131698157D01*
X144307809Y-131557809D01*
X144448157Y-131347765D01*
X144463211Y-131272082D01*
X144502235Y-131298157D01*
X144750000Y-131347440D01*
X145250000Y-131347440D01*
X145497765Y-131298157D01*
X145707809Y-131157809D01*
X145848157Y-130947765D01*
X145897440Y-130700000D01*
X145897440Y-129800000D01*
X145848157Y-129552235D01*
X145707809Y-129342191D01*
X145497765Y-129201843D01*
X145250000Y-129152560D01*
X144750000Y-129152560D01*
X144502235Y-129201843D01*
X144463211Y-129227918D01*
X144448157Y-129152235D01*
X144307809Y-128942191D01*
X144097765Y-128801843D01*
X144052381Y-128792816D01*
X144070625Y-128780625D01*
X144222439Y-128553419D01*
X144292191Y-128657809D01*
X144502235Y-128798157D01*
X144750000Y-128847440D01*
X145250000Y-128847440D01*
X145497765Y-128798157D01*
X145707809Y-128657809D01*
X145848157Y-128447765D01*
X145897440Y-128200000D01*
X145897440Y-127300000D01*
X145848157Y-127052235D01*
X145707809Y-126842191D01*
X145497765Y-126701843D01*
X145250000Y-126652560D01*
X144750000Y-126652560D01*
X144502235Y-126701843D01*
X144292191Y-126842191D01*
X144249166Y-126906581D01*
X144070625Y-126639375D01*
X143772239Y-126440000D01*
X144070625Y-126240625D01*
X144278178Y-125930000D01*
X144325402Y-125930000D01*
X144502235Y-126048157D01*
X144750000Y-126097440D01*
X145250000Y-126097440D01*
X145497765Y-126048157D01*
X145707809Y-125907809D01*
X145848157Y-125697765D01*
X145897440Y-125450000D01*
X145897440Y-124550000D01*
X145848157Y-124302235D01*
X145707809Y-124092191D01*
X145497765Y-123951843D01*
X145250000Y-123902560D01*
X144750000Y-123902560D01*
X144502235Y-123951843D01*
X144292191Y-124092191D01*
X144179007Y-124261581D01*
X144070625Y-124099375D01*
X143579418Y-123771161D01*
X143146256Y-123685000D01*
X142853744Y-123685000D01*
X142420582Y-123771161D01*
X142335030Y-123828325D01*
X142335030Y-122604680D01*
X142550000Y-122647440D01*
X143450000Y-122647440D01*
X143697765Y-122598157D01*
X143829700Y-122510000D01*
X144170300Y-122510000D01*
X144302235Y-122598157D01*
X144302235Y-122598157D01*
G37*
X144302235Y-122598157D02*
X144321094Y-122601908D01*
X144452072Y-122797929D01*
X144515527Y-122840329D01*
X144909671Y-123234472D01*
X144952071Y-123297929D01*
X145015527Y-123340329D01*
X145203462Y-123465904D01*
X145251605Y-123475480D01*
X145425148Y-123510000D01*
X145425152Y-123510000D01*
X145500000Y-123524888D01*
X145574848Y-123510000D01*
X147675153Y-123510000D01*
X147750000Y-123524888D01*
X147824847Y-123510000D01*
X147824852Y-123510000D01*
X148046537Y-123465904D01*
X148240001Y-123336635D01*
X148240000Y-131435198D01*
X148185199Y-131490000D01*
X145824848Y-131490000D01*
X145750000Y-131475112D01*
X145675152Y-131490000D01*
X145675148Y-131490000D01*
X145453463Y-131534096D01*
X145202071Y-131702071D01*
X145159671Y-131765527D01*
X144265528Y-132659671D01*
X144202072Y-132702071D01*
X144159672Y-132765527D01*
X144159671Y-132765528D01*
X144109691Y-132840329D01*
X144034097Y-132953463D01*
X144015307Y-133047929D01*
X143975112Y-133250000D01*
X143990001Y-133324852D01*
X143990000Y-136737996D01*
X143010000Y-137717998D01*
X143010000Y-136494103D01*
X143024888Y-136419255D01*
X143010000Y-136344407D01*
X143010000Y-136344403D01*
X142965904Y-136122718D01*
X142965904Y-136122717D01*
X142840329Y-135934782D01*
X142797929Y-135871326D01*
X142734473Y-135828926D01*
X142335030Y-135429484D01*
X142335030Y-131747440D01*
X143850000Y-131747440D01*
X144097765Y-131698157D01*
X144307809Y-131557809D01*
X144448157Y-131347765D01*
X144463211Y-131272082D01*
X144502235Y-131298157D01*
X144750000Y-131347440D01*
X145250000Y-131347440D01*
X145497765Y-131298157D01*
X145707809Y-131157809D01*
X145848157Y-130947765D01*
X145897440Y-130700000D01*
X145897440Y-129800000D01*
X145848157Y-129552235D01*
X145707809Y-129342191D01*
X145497765Y-129201843D01*
X145250000Y-129152560D01*
X144750000Y-129152560D01*
X144502235Y-129201843D01*
X144463211Y-129227918D01*
X144448157Y-129152235D01*
X144307809Y-128942191D01*
X144097765Y-128801843D01*
X144052381Y-128792816D01*
X144070625Y-128780625D01*
X144222439Y-128553419D01*
X144292191Y-128657809D01*
X144502235Y-128798157D01*
X144750000Y-128847440D01*
X145250000Y-128847440D01*
X145497765Y-128798157D01*
X145707809Y-128657809D01*
X145848157Y-128447765D01*
X145897440Y-128200000D01*
X145897440Y-127300000D01*
X145848157Y-127052235D01*
X145707809Y-126842191D01*
X145497765Y-126701843D01*
X145250000Y-126652560D01*
X144750000Y-126652560D01*
X144502235Y-126701843D01*
X144292191Y-126842191D01*
X144249166Y-126906581D01*
X144070625Y-126639375D01*
X143772239Y-126440000D01*
X144070625Y-126240625D01*
X144278178Y-125930000D01*
X144325402Y-125930000D01*
X144502235Y-126048157D01*
X144750000Y-126097440D01*
X145250000Y-126097440D01*
X145497765Y-126048157D01*
X145707809Y-125907809D01*
X145848157Y-125697765D01*
X145897440Y-125450000D01*
X145897440Y-124550000D01*
X145848157Y-124302235D01*
X145707809Y-124092191D01*
X145497765Y-123951843D01*
X145250000Y-123902560D01*
X144750000Y-123902560D01*
X144502235Y-123951843D01*
X144292191Y-124092191D01*
X144179007Y-124261581D01*
X144070625Y-124099375D01*
X143579418Y-123771161D01*
X143146256Y-123685000D01*
X142853744Y-123685000D01*
X142420582Y-123771161D01*
X142335030Y-123828325D01*
X142335030Y-122604680D01*
X142550000Y-122647440D01*
X143450000Y-122647440D01*
X143697765Y-122598157D01*
X143829700Y-122510000D01*
X144170300Y-122510000D01*
X144302235Y-122598157D01*
G36*
X148592191Y-133042191D02*
X148451843Y-133252235D01*
X148402560Y-133500000D01*
X148402560Y-134000000D01*
X148451843Y-134247765D01*
X148592191Y-134457809D01*
X148655334Y-134500000D01*
X148592191Y-134542191D01*
X148451843Y-134752235D01*
X148402560Y-135000000D01*
X148402560Y-135272638D01*
X147972638Y-135702560D01*
X147375000Y-135702560D01*
X147127235Y-135751843D01*
X146917191Y-135892191D01*
X146851837Y-135990000D01*
X146829700Y-135990000D01*
X146697765Y-135901843D01*
X146450000Y-135852560D01*
X145550000Y-135852560D01*
X145510000Y-135860516D01*
X145510000Y-133564801D01*
X146064802Y-133010000D01*
X148425153Y-133010000D01*
X148500000Y-133024888D01*
X148574847Y-133010000D01*
X148574852Y-133010000D01*
X148668138Y-132991444D01*
X148592191Y-133042191D01*
X148592191Y-133042191D01*
G37*
X148592191Y-133042191D02*
X148451843Y-133252235D01*
X148402560Y-133500000D01*
X148402560Y-134000000D01*
X148451843Y-134247765D01*
X148592191Y-134457809D01*
X148655334Y-134500000D01*
X148592191Y-134542191D01*
X148451843Y-134752235D01*
X148402560Y-135000000D01*
X148402560Y-135272638D01*
X147972638Y-135702560D01*
X147375000Y-135702560D01*
X147127235Y-135751843D01*
X146917191Y-135892191D01*
X146851837Y-135990000D01*
X146829700Y-135990000D01*
X146697765Y-135901843D01*
X146450000Y-135852560D01*
X145550000Y-135852560D01*
X145510000Y-135860516D01*
X145510000Y-133564801D01*
X146064802Y-133010000D01*
X148425153Y-133010000D01*
X148500000Y-133024888D01*
X148574847Y-133010000D01*
X148574852Y-133010000D01*
X148668138Y-132991444D01*
X148592191Y-133042191D01*
G36*
X155740001Y-122479136D02*
X155705874Y-122465000D01*
X155294126Y-122465000D01*
X155263318Y-122477761D01*
X155250000Y-122475112D01*
X155175153Y-122490000D01*
X153584802Y-122490000D01*
X153707809Y-122407809D01*
X153848157Y-122197765D01*
X153897440Y-121950000D01*
X153897440Y-121050000D01*
X153848157Y-120802235D01*
X153760000Y-120670300D01*
X153760000Y-119814514D01*
X153872569Y-120086280D01*
X154163720Y-120377431D01*
X154544126Y-120535000D01*
X154955874Y-120535000D01*
X155336280Y-120377431D01*
X155627431Y-120086280D01*
X155740001Y-119814512D01*
X155740001Y-122479136D01*
X155740001Y-122479136D01*
G37*
X155740001Y-122479136D02*
X155705874Y-122465000D01*
X155294126Y-122465000D01*
X155263318Y-122477761D01*
X155250000Y-122475112D01*
X155175153Y-122490000D01*
X153584802Y-122490000D01*
X153707809Y-122407809D01*
X153848157Y-122197765D01*
X153897440Y-121950000D01*
X153897440Y-121050000D01*
X153848157Y-120802235D01*
X153760000Y-120670300D01*
X153760000Y-119814514D01*
X153872569Y-120086280D01*
X154163720Y-120377431D01*
X154544126Y-120535000D01*
X154955874Y-120535000D01*
X155336280Y-120377431D01*
X155627431Y-120086280D01*
X155740001Y-119814512D01*
X155740001Y-122479136D01*
G36*
X152715001Y-115518955D02*
X152700113Y-115593802D01*
X152715001Y-115668649D01*
X152715001Y-115668653D01*
X152759097Y-115890338D01*
X152927072Y-116141731D01*
X152990531Y-116184133D01*
X153140869Y-116334471D01*
X153183271Y-116397930D01*
X153434663Y-116565905D01*
X153482600Y-116575440D01*
X153383043Y-116724436D01*
X153333760Y-116972201D01*
X153333760Y-117151517D01*
X153183271Y-117252071D01*
X153140871Y-117315527D01*
X152515528Y-117940871D01*
X152452072Y-117983271D01*
X152409672Y-118046727D01*
X152409671Y-118046728D01*
X152335000Y-118158481D01*
X152335000Y-118128711D01*
X152377431Y-118086280D01*
X152535000Y-117705874D01*
X152535000Y-117294126D01*
X152377431Y-116913720D01*
X152086280Y-116622569D01*
X151705874Y-116465000D01*
X151645868Y-116465000D01*
X151398585Y-116217718D01*
X151398584Y-116217716D01*
X151148587Y-115967719D01*
X151102001Y-115897999D01*
X150825801Y-115713448D01*
X150589625Y-115666470D01*
X150616957Y-115625565D01*
X150666240Y-115377800D01*
X150666240Y-115309999D01*
X151198156Y-115309999D01*
X151273003Y-115324887D01*
X151347850Y-115309999D01*
X151347855Y-115309999D01*
X151569540Y-115265903D01*
X151820932Y-115097928D01*
X151863334Y-115034469D01*
X152715001Y-114182802D01*
X152715001Y-115518955D01*
X152715001Y-115518955D01*
G37*
X152715001Y-115518955D02*
X152700113Y-115593802D01*
X152715001Y-115668649D01*
X152715001Y-115668653D01*
X152759097Y-115890338D01*
X152927072Y-116141731D01*
X152990531Y-116184133D01*
X153140869Y-116334471D01*
X153183271Y-116397930D01*
X153434663Y-116565905D01*
X153482600Y-116575440D01*
X153383043Y-116724436D01*
X153333760Y-116972201D01*
X153333760Y-117151517D01*
X153183271Y-117252071D01*
X153140871Y-117315527D01*
X152515528Y-117940871D01*
X152452072Y-117983271D01*
X152409672Y-118046727D01*
X152409671Y-118046728D01*
X152335000Y-118158481D01*
X152335000Y-118128711D01*
X152377431Y-118086280D01*
X152535000Y-117705874D01*
X152535000Y-117294126D01*
X152377431Y-116913720D01*
X152086280Y-116622569D01*
X151705874Y-116465000D01*
X151645868Y-116465000D01*
X151398585Y-116217718D01*
X151398584Y-116217716D01*
X151148587Y-115967719D01*
X151102001Y-115897999D01*
X150825801Y-115713448D01*
X150589625Y-115666470D01*
X150616957Y-115625565D01*
X150666240Y-115377800D01*
X150666240Y-115309999D01*
X151198156Y-115309999D01*
X151273003Y-115324887D01*
X151347850Y-115309999D01*
X151347855Y-115309999D01*
X151569540Y-115265903D01*
X151820932Y-115097928D01*
X151863334Y-115034469D01*
X152715001Y-114182802D01*
X152715001Y-115518955D01*
G36*
X146776771Y-89709472D02*
X146819171Y-89772928D01*
X147070563Y-89940903D01*
X147286817Y-89983919D01*
X147369335Y-90039056D01*
X147617100Y-90088339D01*
X148259649Y-90088339D01*
X148265002Y-90115252D01*
X148265001Y-91602560D01*
X147800000Y-91602560D01*
X147552235Y-91651843D01*
X147342191Y-91792191D01*
X147201843Y-92002235D01*
X147152560Y-92250000D01*
X147152560Y-92750000D01*
X147201843Y-92997765D01*
X147342191Y-93207809D01*
X147352953Y-93215000D01*
X147319126Y-93215000D01*
X146938720Y-93372569D01*
X146647569Y-93663720D01*
X146490000Y-94044126D01*
X146490000Y-94455874D01*
X146647569Y-94836280D01*
X146765001Y-94953712D01*
X146765000Y-95700153D01*
X146750112Y-95775000D01*
X146765000Y-95849847D01*
X146765000Y-95849851D01*
X146809096Y-96071536D01*
X146977071Y-96322929D01*
X147040529Y-96365331D01*
X147240001Y-96564802D01*
X147240000Y-102685198D01*
X146677188Y-103248011D01*
X146640632Y-103255282D01*
X146640628Y-103255282D01*
X146418943Y-103299378D01*
X146167551Y-103467353D01*
X146125151Y-103530809D01*
X145515528Y-104140433D01*
X145452072Y-104182833D01*
X145409672Y-104246289D01*
X145409671Y-104246290D01*
X145284097Y-104434225D01*
X145255688Y-104577047D01*
X144910629Y-104922106D01*
X144715000Y-105394398D01*
X144715000Y-105905602D01*
X144910629Y-106377894D01*
X145272106Y-106739371D01*
X145744398Y-106935000D01*
X146010201Y-106935000D01*
X145965000Y-107044126D01*
X145965000Y-107455874D01*
X146122569Y-107836280D01*
X146413720Y-108127431D01*
X146794126Y-108285000D01*
X146932560Y-108285000D01*
X146932560Y-108990000D01*
X146079700Y-108990000D01*
X145947765Y-108901843D01*
X145700000Y-108852560D01*
X144800000Y-108852560D01*
X144552235Y-108901843D01*
X144342191Y-109042191D01*
X144201843Y-109252235D01*
X144152560Y-109500000D01*
X144152560Y-110000000D01*
X144201843Y-110247765D01*
X144342191Y-110457809D01*
X144552235Y-110598157D01*
X144800000Y-110647440D01*
X145700000Y-110647440D01*
X145947765Y-110598157D01*
X146079700Y-110510000D01*
X147125470Y-110510000D01*
X147332235Y-110648157D01*
X147347908Y-110651275D01*
X147178690Y-110820493D01*
X147133331Y-110930000D01*
X144824846Y-110930000D01*
X144749999Y-110915112D01*
X144675152Y-110930000D01*
X144675148Y-110930000D01*
X144453463Y-110974096D01*
X144453461Y-110974097D01*
X144453462Y-110974097D01*
X144265526Y-111099671D01*
X144265524Y-111099673D01*
X144202071Y-111142071D01*
X144159673Y-111205524D01*
X143645000Y-111720198D01*
X143645000Y-111384670D01*
X143411310Y-110820493D01*
X142979507Y-110388690D01*
X142415330Y-110155000D01*
X141804670Y-110155000D01*
X141435010Y-110308118D01*
X141435010Y-97824778D01*
X142065000Y-97824778D01*
X142065000Y-98475222D01*
X142313914Y-99076153D01*
X142773847Y-99536086D01*
X143374778Y-99785000D01*
X144025222Y-99785000D01*
X144626153Y-99536086D01*
X145086086Y-99076153D01*
X145335000Y-98475222D01*
X145335000Y-97824778D01*
X145086086Y-97223847D01*
X144626153Y-96763914D01*
X144025222Y-96515000D01*
X143374778Y-96515000D01*
X142773847Y-96763914D01*
X142313914Y-97223847D01*
X142065000Y-97824778D01*
X141435010Y-97824778D01*
X141435010Y-90713581D01*
X141602001Y-90602001D01*
X141648587Y-90532280D01*
X142645868Y-89535000D01*
X142705874Y-89535000D01*
X143086280Y-89377431D01*
X143321817Y-89141894D01*
X143351161Y-89289418D01*
X143679375Y-89780625D01*
X144170582Y-90108839D01*
X144603744Y-90195000D01*
X144896256Y-90195000D01*
X145329418Y-90108839D01*
X145820625Y-89780625D01*
X146148839Y-89289418D01*
X146183328Y-89116029D01*
X146776771Y-89709472D01*
X146776771Y-89709472D01*
G37*
X146776771Y-89709472D02*
X146819171Y-89772928D01*
X147070563Y-89940903D01*
X147286817Y-89983919D01*
X147369335Y-90039056D01*
X147617100Y-90088339D01*
X148259649Y-90088339D01*
X148265002Y-90115252D01*
X148265001Y-91602560D01*
X147800000Y-91602560D01*
X147552235Y-91651843D01*
X147342191Y-91792191D01*
X147201843Y-92002235D01*
X147152560Y-92250000D01*
X147152560Y-92750000D01*
X147201843Y-92997765D01*
X147342191Y-93207809D01*
X147352953Y-93215000D01*
X147319126Y-93215000D01*
X146938720Y-93372569D01*
X146647569Y-93663720D01*
X146490000Y-94044126D01*
X146490000Y-94455874D01*
X146647569Y-94836280D01*
X146765001Y-94953712D01*
X146765000Y-95700153D01*
X146750112Y-95775000D01*
X146765000Y-95849847D01*
X146765000Y-95849851D01*
X146809096Y-96071536D01*
X146977071Y-96322929D01*
X147040529Y-96365331D01*
X147240001Y-96564802D01*
X147240000Y-102685198D01*
X146677188Y-103248011D01*
X146640632Y-103255282D01*
X146640628Y-103255282D01*
X146418943Y-103299378D01*
X146167551Y-103467353D01*
X146125151Y-103530809D01*
X145515528Y-104140433D01*
X145452072Y-104182833D01*
X145409672Y-104246289D01*
X145409671Y-104246290D01*
X145284097Y-104434225D01*
X145255688Y-104577047D01*
X144910629Y-104922106D01*
X144715000Y-105394398D01*
X144715000Y-105905602D01*
X144910629Y-106377894D01*
X145272106Y-106739371D01*
X145744398Y-106935000D01*
X146010201Y-106935000D01*
X145965000Y-107044126D01*
X145965000Y-107455874D01*
X146122569Y-107836280D01*
X146413720Y-108127431D01*
X146794126Y-108285000D01*
X146932560Y-108285000D01*
X146932560Y-108990000D01*
X146079700Y-108990000D01*
X145947765Y-108901843D01*
X145700000Y-108852560D01*
X144800000Y-108852560D01*
X144552235Y-108901843D01*
X144342191Y-109042191D01*
X144201843Y-109252235D01*
X144152560Y-109500000D01*
X144152560Y-110000000D01*
X144201843Y-110247765D01*
X144342191Y-110457809D01*
X144552235Y-110598157D01*
X144800000Y-110647440D01*
X145700000Y-110647440D01*
X145947765Y-110598157D01*
X146079700Y-110510000D01*
X147125470Y-110510000D01*
X147332235Y-110648157D01*
X147347908Y-110651275D01*
X147178690Y-110820493D01*
X147133331Y-110930000D01*
X144824846Y-110930000D01*
X144749999Y-110915112D01*
X144675152Y-110930000D01*
X144675148Y-110930000D01*
X144453463Y-110974096D01*
X144453461Y-110974097D01*
X144453462Y-110974097D01*
X144265526Y-111099671D01*
X144265524Y-111099673D01*
X144202071Y-111142071D01*
X144159673Y-111205524D01*
X143645000Y-111720198D01*
X143645000Y-111384670D01*
X143411310Y-110820493D01*
X142979507Y-110388690D01*
X142415330Y-110155000D01*
X141804670Y-110155000D01*
X141435010Y-110308118D01*
X141435010Y-97824778D01*
X142065000Y-97824778D01*
X142065000Y-98475222D01*
X142313914Y-99076153D01*
X142773847Y-99536086D01*
X143374778Y-99785000D01*
X144025222Y-99785000D01*
X144626153Y-99536086D01*
X145086086Y-99076153D01*
X145335000Y-98475222D01*
X145335000Y-97824778D01*
X145086086Y-97223847D01*
X144626153Y-96763914D01*
X144025222Y-96515000D01*
X143374778Y-96515000D01*
X142773847Y-96763914D01*
X142313914Y-97223847D01*
X142065000Y-97824778D01*
X141435010Y-97824778D01*
X141435010Y-90713581D01*
X141602001Y-90602001D01*
X141648587Y-90532280D01*
X142645868Y-89535000D01*
X142705874Y-89535000D01*
X143086280Y-89377431D01*
X143321817Y-89141894D01*
X143351161Y-89289418D01*
X143679375Y-89780625D01*
X144170582Y-90108839D01*
X144603744Y-90195000D01*
X144896256Y-90195000D01*
X145329418Y-90108839D01*
X145820625Y-89780625D01*
X146148839Y-89289418D01*
X146183328Y-89116029D01*
X146776771Y-89709472D01*
G36*
X148884671Y-77709473D02*
X148927072Y-77772930D01*
X149178464Y-77940905D01*
X149400149Y-77985001D01*
X149400154Y-77985001D01*
X149475001Y-77999889D01*
X149549848Y-77985001D01*
X152660200Y-77985001D01*
X153270199Y-78595000D01*
X152944670Y-78595000D01*
X152380493Y-78828690D01*
X151948690Y-79260493D01*
X151715000Y-79824670D01*
X151715000Y-80435330D01*
X151948690Y-80999507D01*
X152380493Y-81431310D01*
X152944670Y-81665000D01*
X153555330Y-81665000D01*
X154119507Y-81431310D01*
X154236481Y-81314336D01*
X154245571Y-81336280D01*
X154363003Y-81453712D01*
X154363002Y-87562196D01*
X154030340Y-87894859D01*
X154030340Y-87709099D01*
X154008639Y-87600000D01*
X154030340Y-87490901D01*
X154030340Y-87059101D01*
X153981057Y-86811336D01*
X153840709Y-86601292D01*
X153630665Y-86460944D01*
X153382900Y-86411661D01*
X151960500Y-86411661D01*
X151712735Y-86460944D01*
X151502691Y-86601292D01*
X151421942Y-86722140D01*
X150510502Y-85810701D01*
X150547440Y-85625000D01*
X150547440Y-84875000D01*
X150498157Y-84627235D01*
X150413141Y-84500000D01*
X150498157Y-84372765D01*
X150547440Y-84125000D01*
X150547440Y-83375000D01*
X150498157Y-83127235D01*
X150357809Y-82917191D01*
X150147765Y-82776843D01*
X149900000Y-82727560D01*
X149100000Y-82727560D01*
X148906523Y-82766044D01*
X149035000Y-82455874D01*
X149035000Y-82044126D01*
X148877431Y-81663720D01*
X148586280Y-81372569D01*
X148205874Y-81215000D01*
X148039802Y-81215000D01*
X147034999Y-80210198D01*
X147034999Y-75859800D01*
X148884671Y-77709473D01*
X148884671Y-77709473D01*
G37*
X148884671Y-77709473D02*
X148927072Y-77772930D01*
X149178464Y-77940905D01*
X149400149Y-77985001D01*
X149400154Y-77985001D01*
X149475001Y-77999889D01*
X149549848Y-77985001D01*
X152660200Y-77985001D01*
X153270199Y-78595000D01*
X152944670Y-78595000D01*
X152380493Y-78828690D01*
X151948690Y-79260493D01*
X151715000Y-79824670D01*
X151715000Y-80435330D01*
X151948690Y-80999507D01*
X152380493Y-81431310D01*
X152944670Y-81665000D01*
X153555330Y-81665000D01*
X154119507Y-81431310D01*
X154236481Y-81314336D01*
X154245571Y-81336280D01*
X154363003Y-81453712D01*
X154363002Y-87562196D01*
X154030340Y-87894859D01*
X154030340Y-87709099D01*
X154008639Y-87600000D01*
X154030340Y-87490901D01*
X154030340Y-87059101D01*
X153981057Y-86811336D01*
X153840709Y-86601292D01*
X153630665Y-86460944D01*
X153382900Y-86411661D01*
X151960500Y-86411661D01*
X151712735Y-86460944D01*
X151502691Y-86601292D01*
X151421942Y-86722140D01*
X150510502Y-85810701D01*
X150547440Y-85625000D01*
X150547440Y-84875000D01*
X150498157Y-84627235D01*
X150413141Y-84500000D01*
X150498157Y-84372765D01*
X150547440Y-84125000D01*
X150547440Y-83375000D01*
X150498157Y-83127235D01*
X150357809Y-82917191D01*
X150147765Y-82776843D01*
X149900000Y-82727560D01*
X149100000Y-82727560D01*
X148906523Y-82766044D01*
X149035000Y-82455874D01*
X149035000Y-82044126D01*
X148877431Y-81663720D01*
X148586280Y-81372569D01*
X148205874Y-81215000D01*
X148039802Y-81215000D01*
X147034999Y-80210198D01*
X147034999Y-75859800D01*
X148884671Y-77709473D01*
G36*
X157279000Y-68029641D02*
X157127431Y-67663720D01*
X156836280Y-67372569D01*
X156455874Y-67215000D01*
X156044126Y-67215000D01*
X155663720Y-67372569D01*
X155372569Y-67663720D01*
X155215000Y-68044126D01*
X155215000Y-68455874D01*
X155372569Y-68836280D01*
X155663720Y-69127431D01*
X155902653Y-69226400D01*
X155902652Y-77766188D01*
X155676373Y-77859916D01*
X155555545Y-77980744D01*
X154035000Y-76460199D01*
X154035000Y-76294126D01*
X153877431Y-75913720D01*
X153586280Y-75622569D01*
X153205874Y-75465000D01*
X152794126Y-75465000D01*
X152413720Y-75622569D01*
X152122569Y-75913720D01*
X151965000Y-76294126D01*
X151965000Y-76465001D01*
X149789803Y-76465001D01*
X148035000Y-74710199D01*
X148035000Y-74544126D01*
X147877431Y-74163720D01*
X147586280Y-73872569D01*
X147205874Y-73715000D01*
X147034999Y-73715000D01*
X147034999Y-69539802D01*
X147039801Y-69535000D01*
X147205874Y-69535000D01*
X147586280Y-69377431D01*
X147877431Y-69086280D01*
X148035000Y-68705874D01*
X148035000Y-68664670D01*
X151715000Y-68664670D01*
X151715000Y-69275330D01*
X151948690Y-69839507D01*
X152380493Y-70271310D01*
X152691178Y-70400000D01*
X152380493Y-70528690D01*
X151948690Y-70960493D01*
X151715000Y-71524670D01*
X151715000Y-72135330D01*
X151948690Y-72699507D01*
X152380493Y-73131310D01*
X152944670Y-73365000D01*
X153555330Y-73365000D01*
X154119507Y-73131310D01*
X154551310Y-72699507D01*
X154785000Y-72135330D01*
X154785000Y-71524670D01*
X154551310Y-70960493D01*
X154119507Y-70528690D01*
X153808822Y-70400000D01*
X154119507Y-70271310D01*
X154551310Y-69839507D01*
X154785000Y-69275330D01*
X154785000Y-68664670D01*
X154551310Y-68100493D01*
X154119507Y-67668690D01*
X153555330Y-67435000D01*
X152944670Y-67435000D01*
X152380493Y-67668690D01*
X151948690Y-68100493D01*
X151715000Y-68664670D01*
X148035000Y-68664670D01*
X148035000Y-68294126D01*
X147877431Y-67913720D01*
X147586280Y-67622569D01*
X147205874Y-67465000D01*
X146794126Y-67465000D01*
X146413720Y-67622569D01*
X146122569Y-67913720D01*
X145965000Y-68294126D01*
X145965000Y-68460199D01*
X145790527Y-68634672D01*
X145727071Y-68677072D01*
X145684671Y-68740528D01*
X145684670Y-68740529D01*
X145559096Y-68928464D01*
X145500111Y-69225001D01*
X145515000Y-69299853D01*
X145514999Y-80450152D01*
X145500111Y-80524999D01*
X145514999Y-80599846D01*
X145514999Y-80599850D01*
X145559095Y-80821535D01*
X145727070Y-81072928D01*
X145790529Y-81115330D01*
X146965000Y-82289802D01*
X146965000Y-82455874D01*
X147122569Y-82836280D01*
X147276289Y-82990000D01*
X146324846Y-82990000D01*
X146249999Y-82975112D01*
X146175152Y-82990000D01*
X146175148Y-82990000D01*
X145953463Y-83034096D01*
X145702071Y-83202071D01*
X145659671Y-83265527D01*
X145460198Y-83465000D01*
X145294126Y-83465000D01*
X144913720Y-83622569D01*
X144622569Y-83913720D01*
X144465000Y-84294126D01*
X144465000Y-84705874D01*
X144622569Y-85086280D01*
X144913720Y-85377431D01*
X145165001Y-85481515D01*
X145165001Y-85614276D01*
X144955874Y-85527653D01*
X144789802Y-85527653D01*
X141885020Y-82622872D01*
X141885020Y-79824670D01*
X142215000Y-79824670D01*
X142215000Y-80435330D01*
X142448690Y-80999507D01*
X142880493Y-81431310D01*
X143444670Y-81665000D01*
X144055330Y-81665000D01*
X144619507Y-81431310D01*
X145051310Y-80999507D01*
X145285000Y-80435330D01*
X145285000Y-79824670D01*
X145051310Y-79260493D01*
X144619507Y-78828690D01*
X144055330Y-78595000D01*
X143444670Y-78595000D01*
X142880493Y-78828690D01*
X142448690Y-79260493D01*
X142215000Y-79824670D01*
X141885020Y-79824670D01*
X141885020Y-68664670D01*
X142215000Y-68664670D01*
X142215000Y-69275330D01*
X142448690Y-69839507D01*
X142880493Y-70271310D01*
X143191178Y-70400000D01*
X142880493Y-70528690D01*
X142448690Y-70960493D01*
X142215000Y-71524670D01*
X142215000Y-72135330D01*
X142448690Y-72699507D01*
X142880493Y-73131310D01*
X143444670Y-73365000D01*
X144055330Y-73365000D01*
X144619507Y-73131310D01*
X145051310Y-72699507D01*
X145285000Y-72135330D01*
X145285000Y-71524670D01*
X145051310Y-70960493D01*
X144619507Y-70528690D01*
X144308822Y-70400000D01*
X144619507Y-70271310D01*
X145051310Y-69839507D01*
X145285000Y-69275330D01*
X145285000Y-68664670D01*
X145051310Y-68100493D01*
X144619507Y-67668690D01*
X144055330Y-67435000D01*
X143444670Y-67435000D01*
X142880493Y-67668690D01*
X142448690Y-68100493D01*
X142215000Y-68664670D01*
X141885020Y-68664670D01*
X141885020Y-63609781D01*
X143335162Y-62159640D01*
X143444670Y-62205000D01*
X144055330Y-62205000D01*
X144619507Y-61971310D01*
X145051310Y-61539507D01*
X145285000Y-60975330D01*
X145285000Y-60364670D01*
X151715000Y-60364670D01*
X151715000Y-60975330D01*
X151948690Y-61539507D01*
X152380493Y-61971310D01*
X152944670Y-62205000D01*
X153555330Y-62205000D01*
X154119507Y-61971310D01*
X154551310Y-61539507D01*
X154785000Y-60975330D01*
X154785000Y-60364670D01*
X154551310Y-59800493D01*
X154119507Y-59368690D01*
X153555330Y-59135000D01*
X152944670Y-59135000D01*
X152380493Y-59368690D01*
X151948690Y-59800493D01*
X151715000Y-60364670D01*
X145285000Y-60364670D01*
X145124157Y-59976360D01*
X145434367Y-59976360D01*
X145516600Y-59992717D01*
X145598833Y-59976360D01*
X145598837Y-59976360D01*
X145842401Y-59927912D01*
X146118601Y-59743361D01*
X146165187Y-59673640D01*
X149149228Y-56689600D01*
X154299533Y-56689600D01*
X154392213Y-56782280D01*
X154438799Y-56852001D01*
X154714999Y-57036552D01*
X154958563Y-57085000D01*
X154958566Y-57085000D01*
X155040799Y-57101357D01*
X155123032Y-57085000D01*
X155371289Y-57085000D01*
X155413720Y-57127431D01*
X155794126Y-57285000D01*
X156205874Y-57285000D01*
X156586280Y-57127431D01*
X156877431Y-56836280D01*
X157035000Y-56455874D01*
X157035000Y-56396770D01*
X157102001Y-56352001D01*
X157279000Y-56087103D01*
X157279000Y-68029641D01*
X157279000Y-68029641D01*
G37*
X157279000Y-68029641D02*
X157127431Y-67663720D01*
X156836280Y-67372569D01*
X156455874Y-67215000D01*
X156044126Y-67215000D01*
X155663720Y-67372569D01*
X155372569Y-67663720D01*
X155215000Y-68044126D01*
X155215000Y-68455874D01*
X155372569Y-68836280D01*
X155663720Y-69127431D01*
X155902653Y-69226400D01*
X155902652Y-77766188D01*
X155676373Y-77859916D01*
X155555545Y-77980744D01*
X154035000Y-76460199D01*
X154035000Y-76294126D01*
X153877431Y-75913720D01*
X153586280Y-75622569D01*
X153205874Y-75465000D01*
X152794126Y-75465000D01*
X152413720Y-75622569D01*
X152122569Y-75913720D01*
X151965000Y-76294126D01*
X151965000Y-76465001D01*
X149789803Y-76465001D01*
X148035000Y-74710199D01*
X148035000Y-74544126D01*
X147877431Y-74163720D01*
X147586280Y-73872569D01*
X147205874Y-73715000D01*
X147034999Y-73715000D01*
X147034999Y-69539802D01*
X147039801Y-69535000D01*
X147205874Y-69535000D01*
X147586280Y-69377431D01*
X147877431Y-69086280D01*
X148035000Y-68705874D01*
X148035000Y-68664670D01*
X151715000Y-68664670D01*
X151715000Y-69275330D01*
X151948690Y-69839507D01*
X152380493Y-70271310D01*
X152691178Y-70400000D01*
X152380493Y-70528690D01*
X151948690Y-70960493D01*
X151715000Y-71524670D01*
X151715000Y-72135330D01*
X151948690Y-72699507D01*
X152380493Y-73131310D01*
X152944670Y-73365000D01*
X153555330Y-73365000D01*
X154119507Y-73131310D01*
X154551310Y-72699507D01*
X154785000Y-72135330D01*
X154785000Y-71524670D01*
X154551310Y-70960493D01*
X154119507Y-70528690D01*
X153808822Y-70400000D01*
X154119507Y-70271310D01*
X154551310Y-69839507D01*
X154785000Y-69275330D01*
X154785000Y-68664670D01*
X154551310Y-68100493D01*
X154119507Y-67668690D01*
X153555330Y-67435000D01*
X152944670Y-67435000D01*
X152380493Y-67668690D01*
X151948690Y-68100493D01*
X151715000Y-68664670D01*
X148035000Y-68664670D01*
X148035000Y-68294126D01*
X147877431Y-67913720D01*
X147586280Y-67622569D01*
X147205874Y-67465000D01*
X146794126Y-67465000D01*
X146413720Y-67622569D01*
X146122569Y-67913720D01*
X145965000Y-68294126D01*
X145965000Y-68460199D01*
X145790527Y-68634672D01*
X145727071Y-68677072D01*
X145684671Y-68740528D01*
X145684670Y-68740529D01*
X145559096Y-68928464D01*
X145500111Y-69225001D01*
X145515000Y-69299853D01*
X145514999Y-80450152D01*
X145500111Y-80524999D01*
X145514999Y-80599846D01*
X145514999Y-80599850D01*
X145559095Y-80821535D01*
X145727070Y-81072928D01*
X145790529Y-81115330D01*
X146965000Y-82289802D01*
X146965000Y-82455874D01*
X147122569Y-82836280D01*
X147276289Y-82990000D01*
X146324846Y-82990000D01*
X146249999Y-82975112D01*
X146175152Y-82990000D01*
X146175148Y-82990000D01*
X145953463Y-83034096D01*
X145702071Y-83202071D01*
X145659671Y-83265527D01*
X145460198Y-83465000D01*
X145294126Y-83465000D01*
X144913720Y-83622569D01*
X144622569Y-83913720D01*
X144465000Y-84294126D01*
X144465000Y-84705874D01*
X144622569Y-85086280D01*
X144913720Y-85377431D01*
X145165001Y-85481515D01*
X145165001Y-85614276D01*
X144955874Y-85527653D01*
X144789802Y-85527653D01*
X141885020Y-82622872D01*
X141885020Y-79824670D01*
X142215000Y-79824670D01*
X142215000Y-80435330D01*
X142448690Y-80999507D01*
X142880493Y-81431310D01*
X143444670Y-81665000D01*
X144055330Y-81665000D01*
X144619507Y-81431310D01*
X145051310Y-80999507D01*
X145285000Y-80435330D01*
X145285000Y-79824670D01*
X145051310Y-79260493D01*
X144619507Y-78828690D01*
X144055330Y-78595000D01*
X143444670Y-78595000D01*
X142880493Y-78828690D01*
X142448690Y-79260493D01*
X142215000Y-79824670D01*
X141885020Y-79824670D01*
X141885020Y-68664670D01*
X142215000Y-68664670D01*
X142215000Y-69275330D01*
X142448690Y-69839507D01*
X142880493Y-70271310D01*
X143191178Y-70400000D01*
X142880493Y-70528690D01*
X142448690Y-70960493D01*
X142215000Y-71524670D01*
X142215000Y-72135330D01*
X142448690Y-72699507D01*
X142880493Y-73131310D01*
X143444670Y-73365000D01*
X144055330Y-73365000D01*
X144619507Y-73131310D01*
X145051310Y-72699507D01*
X145285000Y-72135330D01*
X145285000Y-71524670D01*
X145051310Y-70960493D01*
X144619507Y-70528690D01*
X144308822Y-70400000D01*
X144619507Y-70271310D01*
X145051310Y-69839507D01*
X145285000Y-69275330D01*
X145285000Y-68664670D01*
X145051310Y-68100493D01*
X144619507Y-67668690D01*
X144055330Y-67435000D01*
X143444670Y-67435000D01*
X142880493Y-67668690D01*
X142448690Y-68100493D01*
X142215000Y-68664670D01*
X141885020Y-68664670D01*
X141885020Y-63609781D01*
X143335162Y-62159640D01*
X143444670Y-62205000D01*
X144055330Y-62205000D01*
X144619507Y-61971310D01*
X145051310Y-61539507D01*
X145285000Y-60975330D01*
X145285000Y-60364670D01*
X151715000Y-60364670D01*
X151715000Y-60975330D01*
X151948690Y-61539507D01*
X152380493Y-61971310D01*
X152944670Y-62205000D01*
X153555330Y-62205000D01*
X154119507Y-61971310D01*
X154551310Y-61539507D01*
X154785000Y-60975330D01*
X154785000Y-60364670D01*
X154551310Y-59800493D01*
X154119507Y-59368690D01*
X153555330Y-59135000D01*
X152944670Y-59135000D01*
X152380493Y-59368690D01*
X151948690Y-59800493D01*
X151715000Y-60364670D01*
X145285000Y-60364670D01*
X145124157Y-59976360D01*
X145434367Y-59976360D01*
X145516600Y-59992717D01*
X145598833Y-59976360D01*
X145598837Y-59976360D01*
X145842401Y-59927912D01*
X146118601Y-59743361D01*
X146165187Y-59673640D01*
X149149228Y-56689600D01*
X154299533Y-56689600D01*
X154392213Y-56782280D01*
X154438799Y-56852001D01*
X154714999Y-57036552D01*
X154958563Y-57085000D01*
X154958566Y-57085000D01*
X155040799Y-57101357D01*
X155123032Y-57085000D01*
X155371289Y-57085000D01*
X155413720Y-57127431D01*
X155794126Y-57285000D01*
X156205874Y-57285000D01*
X156586280Y-57127431D01*
X156877431Y-56836280D01*
X157035000Y-56455874D01*
X157035000Y-56396770D01*
X157102001Y-56352001D01*
X157279000Y-56087103D01*
X157279000Y-68029641D01*
G36*
X152589375Y-50389375D02*
X152261161Y-50880582D01*
X152145908Y-51460000D01*
X152261161Y-52039418D01*
X152589375Y-52530625D01*
X152763881Y-52647226D01*
X152763881Y-52812774D01*
X152589375Y-52929375D01*
X152261161Y-53420582D01*
X152145908Y-54000000D01*
X152261161Y-54579418D01*
X152555281Y-55019600D01*
X148885597Y-55019600D01*
X148803360Y-55003242D01*
X148721123Y-55019600D01*
X148477559Y-55068048D01*
X148201359Y-55252599D01*
X148154775Y-55322317D01*
X145170733Y-58306360D01*
X141940877Y-58306360D01*
X141858640Y-58290002D01*
X141776403Y-58306360D01*
X141532839Y-58354808D01*
X141256639Y-58539359D01*
X141210055Y-58609077D01*
X140835000Y-58984132D01*
X140835000Y-58345867D01*
X141282283Y-57898585D01*
X141352001Y-57852001D01*
X141536552Y-57575801D01*
X141585000Y-57332237D01*
X141585000Y-57332234D01*
X141601357Y-57250001D01*
X141585000Y-57167768D01*
X141585000Y-56878711D01*
X141627431Y-56836280D01*
X141785000Y-56455874D01*
X141785000Y-56044126D01*
X141648320Y-55714150D01*
X141657809Y-55707809D01*
X141798157Y-55497765D01*
X141847440Y-55250000D01*
X141847440Y-54750000D01*
X141798157Y-54502235D01*
X141657809Y-54292191D01*
X141594666Y-54250000D01*
X141657809Y-54207809D01*
X141798157Y-53997765D01*
X141847440Y-53750000D01*
X141847440Y-53250000D01*
X141798157Y-53002235D01*
X141663141Y-52800170D01*
X141698157Y-52747765D01*
X141747440Y-52500000D01*
X141747440Y-52155172D01*
X141884199Y-52246552D01*
X142210000Y-52311358D01*
X142274317Y-52298564D01*
X142429375Y-52530625D01*
X142447619Y-52542816D01*
X142402235Y-52551843D01*
X142192191Y-52692191D01*
X142051843Y-52902235D01*
X142002560Y-53150000D01*
X142002560Y-54850000D01*
X142051843Y-55097765D01*
X142192191Y-55307809D01*
X142402235Y-55448157D01*
X142650000Y-55497440D01*
X144350000Y-55497440D01*
X144597765Y-55448157D01*
X144807809Y-55307809D01*
X144948157Y-55097765D01*
X144997440Y-54850000D01*
X144997440Y-53150000D01*
X144948157Y-52902235D01*
X144807809Y-52692191D01*
X144597765Y-52551843D01*
X144552381Y-52542816D01*
X144570625Y-52530625D01*
X144898839Y-52039418D01*
X145014092Y-51460000D01*
X144898839Y-50880582D01*
X144570625Y-50389375D01*
X144115335Y-50085160D01*
X153044665Y-50085160D01*
X152589375Y-50389375D01*
X152589375Y-50389375D01*
G37*
X152589375Y-50389375D02*
X152261161Y-50880582D01*
X152145908Y-51460000D01*
X152261161Y-52039418D01*
X152589375Y-52530625D01*
X152763881Y-52647226D01*
X152763881Y-52812774D01*
X152589375Y-52929375D01*
X152261161Y-53420582D01*
X152145908Y-54000000D01*
X152261161Y-54579418D01*
X152555281Y-55019600D01*
X148885597Y-55019600D01*
X148803360Y-55003242D01*
X148721123Y-55019600D01*
X148477559Y-55068048D01*
X148201359Y-55252599D01*
X148154775Y-55322317D01*
X145170733Y-58306360D01*
X141940877Y-58306360D01*
X141858640Y-58290002D01*
X141776403Y-58306360D01*
X141532839Y-58354808D01*
X141256639Y-58539359D01*
X141210055Y-58609077D01*
X140835000Y-58984132D01*
X140835000Y-58345867D01*
X141282283Y-57898585D01*
X141352001Y-57852001D01*
X141536552Y-57575801D01*
X141585000Y-57332237D01*
X141585000Y-57332234D01*
X141601357Y-57250001D01*
X141585000Y-57167768D01*
X141585000Y-56878711D01*
X141627431Y-56836280D01*
X141785000Y-56455874D01*
X141785000Y-56044126D01*
X141648320Y-55714150D01*
X141657809Y-55707809D01*
X141798157Y-55497765D01*
X141847440Y-55250000D01*
X141847440Y-54750000D01*
X141798157Y-54502235D01*
X141657809Y-54292191D01*
X141594666Y-54250000D01*
X141657809Y-54207809D01*
X141798157Y-53997765D01*
X141847440Y-53750000D01*
X141847440Y-53250000D01*
X141798157Y-53002235D01*
X141663141Y-52800170D01*
X141698157Y-52747765D01*
X141747440Y-52500000D01*
X141747440Y-52155172D01*
X141884199Y-52246552D01*
X142210000Y-52311358D01*
X142274317Y-52298564D01*
X142429375Y-52530625D01*
X142447619Y-52542816D01*
X142402235Y-52551843D01*
X142192191Y-52692191D01*
X142051843Y-52902235D01*
X142002560Y-53150000D01*
X142002560Y-54850000D01*
X142051843Y-55097765D01*
X142192191Y-55307809D01*
X142402235Y-55448157D01*
X142650000Y-55497440D01*
X144350000Y-55497440D01*
X144597765Y-55448157D01*
X144807809Y-55307809D01*
X144948157Y-55097765D01*
X144997440Y-54850000D01*
X144997440Y-53150000D01*
X144948157Y-52902235D01*
X144807809Y-52692191D01*
X144597765Y-52551843D01*
X144552381Y-52542816D01*
X144570625Y-52530625D01*
X144898839Y-52039418D01*
X145014092Y-51460000D01*
X144898839Y-50880582D01*
X144570625Y-50389375D01*
X144115335Y-50085160D01*
X153044665Y-50085160D01*
X152589375Y-50389375D01*
G04 #@! TD*
M02*
