G04 #@! TF.GenerationSoftware,KiCad,Pcbnew,(5.0.0)*
G04 #@! TF.CreationDate,2019-01-08T13:59:11-08:00*
G04 #@! TF.ProjectId,pcb,7063622E6B696361645F706362000000,rev?*
G04 #@! TF.SameCoordinates,Original*
G04 #@! TF.FileFunction,Copper,L2,Bot,Signal*
G04 #@! TF.FilePolarity,Positive*
%FSLAX46Y46*%
G04 Gerber Fmt 4.6, Leading zero omitted, Abs format (unit mm)*
G04 Created by KiCad (PCBNEW (5.0.0)) date 01/08/19 13:59:11*
%MOMM*%
%LPD*%
G01*
G04 APERTURE LIST*
G04 #@! TA.AperFunction,SMDPad,CuDef*
%ADD10R,1.600000X1.000000*%
G04 #@! TD*
G04 #@! TA.AperFunction,ComponentPad*
%ADD11C,1.300000*%
G04 #@! TD*
G04 #@! TA.AperFunction,ComponentPad*
%ADD12C,2.000000*%
G04 #@! TD*
G04 #@! TA.AperFunction,SMDPad,CuDef*
%ADD13R,0.750000X0.800000*%
G04 #@! TD*
G04 #@! TA.AperFunction,SMDPad,CuDef*
%ADD14R,0.800000X0.750000*%
G04 #@! TD*
G04 #@! TA.AperFunction,SMDPad,CuDef*
%ADD15R,0.900000X0.500000*%
G04 #@! TD*
G04 #@! TA.AperFunction,SMDPad,CuDef*
%ADD16R,0.500000X0.900000*%
G04 #@! TD*
G04 #@! TA.AperFunction,SMDPad,CuDef*
%ADD17R,0.600000X0.700000*%
G04 #@! TD*
G04 #@! TA.AperFunction,ComponentPad*
%ADD18C,1.800000*%
G04 #@! TD*
G04 #@! TA.AperFunction,ComponentPad*
%ADD19O,1.700000X1.700000*%
G04 #@! TD*
G04 #@! TA.AperFunction,ComponentPad*
%ADD20R,1.700000X1.700000*%
G04 #@! TD*
G04 #@! TA.AperFunction,ComponentPad*
%ADD21R,1.800000X1.800000*%
G04 #@! TD*
G04 #@! TA.AperFunction,ViaPad*
%ADD22C,0.800000*%
G04 #@! TD*
G04 #@! TA.AperFunction,Conductor*
%ADD23C,0.250000*%
G04 #@! TD*
G04 #@! TA.AperFunction,Conductor*
%ADD24C,0.400000*%
G04 #@! TD*
G04 #@! TA.AperFunction,Conductor*
%ADD25C,0.254000*%
G04 #@! TD*
G04 APERTURE END LIST*
D10*
G04 #@! TO.P,C2,1*
G04 #@! TO.N,GND*
X156000000Y-60750000D03*
G04 #@! TO.P,C2,2*
G04 #@! TO.N,VEE*
X156000000Y-57750000D03*
G04 #@! TD*
G04 #@! TO.P,C1,2*
G04 #@! TO.N,GND*
X141000000Y-61000000D03*
G04 #@! TO.P,C1,1*
G04 #@! TO.N,VCC*
X141000000Y-58000000D03*
G04 #@! TD*
D11*
G04 #@! TO.P,R7,1*
G04 #@! TO.N,AMP_OUT*
X146000000Y-105650000D03*
G04 #@! TO.P,R7,2*
G04 #@! TO.N,Net-(C7-Pad1)*
X148500000Y-105650000D03*
G04 #@! TO.P,R7,3*
G04 #@! TO.N,Net-(R7-Pad3)*
X151000000Y-105650000D03*
D12*
G04 #@! TO.P,R7,*
G04 #@! TO.N,*
X143700000Y-98150000D03*
X153300000Y-98150000D03*
G04 #@! TD*
D13*
G04 #@! TO.P,C16,1*
G04 #@! TO.N,AMP_OUT*
X155000000Y-66750000D03*
G04 #@! TO.P,C16,2*
G04 #@! TO.N,Net-(C16-Pad2)*
X155000000Y-65250000D03*
G04 #@! TD*
G04 #@! TO.P,C13,1*
G04 #@! TO.N,VCC*
X145500000Y-142500000D03*
G04 #@! TO.P,C13,2*
G04 #@! TO.N,GND*
X145500000Y-144000000D03*
G04 #@! TD*
G04 #@! TO.P,C12,2*
G04 #@! TO.N,VEE*
X147000000Y-142500000D03*
G04 #@! TO.P,C12,1*
G04 #@! TO.N,GND*
X147000000Y-144000000D03*
G04 #@! TD*
D14*
G04 #@! TO.P,C9,1*
G04 #@! TO.N,VCC*
X150000000Y-116000000D03*
G04 #@! TO.P,C9,2*
G04 #@! TO.N,GND*
X151500000Y-116000000D03*
G04 #@! TD*
G04 #@! TO.P,C8,2*
G04 #@! TO.N,GND*
X144250000Y-103750000D03*
G04 #@! TO.P,C8,1*
G04 #@! TO.N,Net-(C8-Pad1)*
X142750000Y-103750000D03*
G04 #@! TD*
D13*
G04 #@! TO.P,C5,1*
G04 #@! TO.N,Net-(C3-Pad1)*
X143800000Y-66650000D03*
G04 #@! TO.P,C5,2*
G04 #@! TO.N,Net-(C5-Pad2)*
X143800000Y-65150000D03*
G04 #@! TD*
G04 #@! TO.P,C3,1*
G04 #@! TO.N,Net-(C3-Pad1)*
X142300000Y-66600000D03*
G04 #@! TO.P,C3,2*
G04 #@! TO.N,GND*
X142300000Y-65100000D03*
G04 #@! TD*
D15*
G04 #@! TO.P,R5,1*
G04 #@! TO.N,Net-(C5-Pad2)*
X145300000Y-65150000D03*
G04 #@! TO.P,R5,2*
G04 #@! TO.N,GND*
X145300000Y-66650000D03*
G04 #@! TD*
G04 #@! TO.P,R32,2*
G04 #@! TO.N,Net-(C15-Pad2)*
X155000000Y-135500000D03*
G04 #@! TO.P,R32,1*
G04 #@! TO.N,Net-(D7-Pad1)*
X155000000Y-134000000D03*
G04 #@! TD*
G04 #@! TO.P,R31,1*
G04 #@! TO.N,Net-(C14-Pad1)*
X156250000Y-139000000D03*
G04 #@! TO.P,R31,2*
G04 #@! TO.N,Net-(C15-Pad2)*
X156250000Y-137500000D03*
G04 #@! TD*
D16*
G04 #@! TO.P,R28,1*
G04 #@! TO.N,Net-(C11-Pad1)*
X152250000Y-141500000D03*
G04 #@! TO.P,R28,2*
G04 #@! TO.N,Net-(D6-Pad2)*
X153750000Y-141500000D03*
G04 #@! TD*
G04 #@! TO.P,R29,2*
G04 #@! TO.N,Net-(Attack1-Pad2)*
X153750000Y-144000000D03*
G04 #@! TO.P,R29,1*
G04 #@! TO.N,Net-(C11-Pad1)*
X152250000Y-144000000D03*
G04 #@! TD*
D15*
G04 #@! TO.P,R4,2*
G04 #@! TO.N,Net-(C5-Pad2)*
X147000000Y-65150000D03*
G04 #@! TO.P,R4,1*
G04 #@! TO.N,Net-(R4-Pad1)*
X147000000Y-66650000D03*
G04 #@! TD*
D16*
G04 #@! TO.P,R3,1*
G04 #@! TO.N,Net-(J4-Pad3)*
X153500000Y-75000000D03*
G04 #@! TO.P,R3,2*
G04 #@! TO.N,GATE*
X152000000Y-75000000D03*
G04 #@! TD*
G04 #@! TO.P,R2,2*
G04 #@! TO.N,ENVELOPE*
X145250000Y-74750000D03*
G04 #@! TO.P,R2,1*
G04 #@! TO.N,Net-(J3-Pad3)*
X143750000Y-74750000D03*
G04 #@! TD*
D15*
G04 #@! TO.P,R1,1*
G04 #@! TO.N,Net-(J2-Pad3)*
X153250000Y-66750000D03*
G04 #@! TO.P,R1,2*
G04 #@! TO.N,Net-(C16-Pad2)*
X153250000Y-65250000D03*
G04 #@! TD*
G04 #@! TO.P,R8,2*
G04 #@! TO.N,GND*
X151000000Y-102000000D03*
G04 #@! TO.P,R8,1*
G04 #@! TO.N,Net-(R7-Pad3)*
X151000000Y-103500000D03*
G04 #@! TD*
G04 #@! TO.P,R10,2*
G04 #@! TO.N,GND*
X155000000Y-105500000D03*
G04 #@! TO.P,R10,1*
G04 #@! TO.N,Net-(LED3-Pad1)*
X155000000Y-107000000D03*
G04 #@! TD*
G04 #@! TO.P,R11,1*
G04 #@! TO.N,Net-(LED1-Pad2)*
X142750000Y-106750000D03*
G04 #@! TO.P,R11,2*
G04 #@! TO.N,Net-(C8-Pad1)*
X142750000Y-105250000D03*
G04 #@! TD*
G04 #@! TO.P,R12,2*
G04 #@! TO.N,Net-(R12-Pad2)*
X143750000Y-115000000D03*
G04 #@! TO.P,R12,1*
G04 #@! TO.N,VEE*
X143750000Y-113500000D03*
G04 #@! TD*
D17*
G04 #@! TO.P,D4,2*
G04 #@! TO.N,CLIP*
X144200000Y-102000000D03*
G04 #@! TO.P,D4,1*
G04 #@! TO.N,Net-(C8-Pad1)*
X142800000Y-102000000D03*
G04 #@! TD*
D18*
G04 #@! TO.P,J1,3*
G04 #@! TO.N,Net-(C3-Pad1)*
X143750000Y-68970000D03*
G04 #@! TO.P,J1,1*
G04 #@! TO.N,GND*
X143750000Y-57570000D03*
G04 #@! TO.P,J1,2*
G04 #@! TO.N,Net-(J1-Pad2)*
X143750000Y-60670000D03*
G04 #@! TD*
G04 #@! TO.P,J2,2*
G04 #@! TO.N,Net-(J2-Pad2)*
X153250000Y-60670000D03*
G04 #@! TO.P,J2,1*
G04 #@! TO.N,GND*
X153250000Y-57570000D03*
G04 #@! TO.P,J2,3*
G04 #@! TO.N,Net-(J2-Pad3)*
X153250000Y-68970000D03*
G04 #@! TD*
G04 #@! TO.P,J3,3*
G04 #@! TO.N,Net-(J3-Pad3)*
X143750000Y-71830000D03*
G04 #@! TO.P,J3,1*
G04 #@! TO.N,GND*
X143750000Y-83230000D03*
G04 #@! TO.P,J3,2*
G04 #@! TO.N,Net-(J3-Pad2)*
X143750000Y-80130000D03*
G04 #@! TD*
G04 #@! TO.P,J4,2*
G04 #@! TO.N,Net-(J4-Pad2)*
X153250000Y-80130000D03*
G04 #@! TO.P,J4,1*
G04 #@! TO.N,GND*
X153250000Y-83230000D03*
G04 #@! TO.P,J4,3*
G04 #@! TO.N,Net-(J4-Pad3)*
X153250000Y-71830000D03*
G04 #@! TD*
D19*
G04 #@! TO.P,MIC1,2*
G04 #@! TO.N,Net-(J1-Pad2)*
X144750000Y-88710000D03*
D20*
G04 #@! TO.P,MIC1,1*
G04 #@! TO.N,GND*
X144750000Y-91250000D03*
G04 #@! TD*
D19*
G04 #@! TO.P,Attack1,3*
G04 #@! TO.N,Net-(Attack1-Pad3)*
X153500000Y-125220000D03*
G04 #@! TO.P,Attack1,2*
G04 #@! TO.N,Net-(Attack1-Pad2)*
X153500000Y-127760000D03*
D20*
G04 #@! TO.P,Attack1,1*
G04 #@! TO.N,Net-(Attack1-Pad1)*
X153500000Y-130300000D03*
G04 #@! TD*
G04 #@! TO.P,Decay1,1*
G04 #@! TO.N,Net-(Decay1-Pad1)*
X151000000Y-125250000D03*
D19*
G04 #@! TO.P,Decay1,2*
G04 #@! TO.N,Net-(D6-Pad2)*
X151000000Y-127790000D03*
G04 #@! TO.P,Decay1,3*
G04 #@! TO.N,Net-(Decay1-Pad3)*
X151000000Y-130330000D03*
G04 #@! TD*
G04 #@! TO.P,Gate1,3*
G04 #@! TO.N,Net-(Gate1-Pad3)*
X143000000Y-125170000D03*
G04 #@! TO.P,Gate1,2*
G04 #@! TO.N,Net-(Gate1-Pad2)*
X143000000Y-127710000D03*
D20*
G04 #@! TO.P,Gate1,1*
G04 #@! TO.N,Net-(Gate1-Pad1)*
X143000000Y-130250000D03*
G04 #@! TD*
D19*
G04 #@! TO.P,JP4,10*
G04 #@! TO.N,Net-(D2-Pad1)*
X153660000Y-51460000D03*
G04 #@! TO.P,JP4,9*
X153660000Y-54000000D03*
G04 #@! TO.P,JP4,8*
G04 #@! TO.N,GND*
X151120000Y-51460000D03*
G04 #@! TO.P,JP4,7*
X151120000Y-54000000D03*
G04 #@! TO.P,JP4,6*
X148580000Y-51460000D03*
G04 #@! TO.P,JP4,5*
X148580000Y-54000000D03*
G04 #@! TO.P,JP4,4*
X146040000Y-51460000D03*
G04 #@! TO.P,JP4,3*
X146040000Y-54000000D03*
G04 #@! TO.P,JP4,2*
G04 #@! TO.N,Net-(D1-Pad2)*
X143500000Y-51460000D03*
D20*
G04 #@! TO.P,JP4,1*
X143500000Y-54000000D03*
G04 #@! TD*
D18*
G04 #@! TO.P,LED1,2*
G04 #@! TO.N,Net-(LED1-Pad2)*
X142110000Y-111690000D03*
D21*
G04 #@! TO.P,LED1,1*
G04 #@! TO.N,GND*
X142110000Y-109150000D03*
G04 #@! TD*
D18*
G04 #@! TO.P,LED2,2*
G04 #@! TO.N,Net-(LED2-Pad2)*
X148480000Y-111690000D03*
D21*
G04 #@! TO.P,LED2,1*
G04 #@! TO.N,Net-(LED2-Pad1)*
X148480000Y-109150000D03*
G04 #@! TD*
G04 #@! TO.P,LED3,1*
G04 #@! TO.N,Net-(LED3-Pad1)*
X154790000Y-109150000D03*
D18*
G04 #@! TO.P,LED3,2*
G04 #@! TO.N,Net-(LED3-Pad2)*
X154790000Y-111690000D03*
G04 #@! TD*
D22*
G04 #@! TO.N,VCC*
X140750000Y-56250000D03*
X140750000Y-138000000D03*
X145500000Y-141250000D03*
X151500000Y-117500000D03*
X141174990Y-116250000D03*
X146750000Y-117692400D03*
X142500000Y-87250000D03*
X148000000Y-85250000D03*
G04 #@! TO.N,AMP_OUT*
X147525000Y-94250000D03*
X150000000Y-91750000D03*
X155123002Y-80750000D03*
X156262653Y-78737347D03*
X156250000Y-68250000D03*
G04 #@! TO.N,VEE*
X156000000Y-56250000D03*
X141000000Y-137000000D03*
X147000000Y-141250000D03*
X142500000Y-113500000D03*
X142500000Y-85750000D03*
X145500000Y-84500000D03*
X142500000Y-88500000D03*
G04 #@! TO.N,ENVELOPE*
X155500000Y-123500000D03*
X155848002Y-92250000D03*
X147000000Y-74750000D03*
G04 #@! TO.N,GND*
X150750000Y-141250000D03*
X146750000Y-133750000D03*
X153750000Y-120000000D03*
X147750000Y-126250000D03*
X143750000Y-123250000D03*
X143250000Y-134250000D03*
X142500000Y-92250000D03*
X152750000Y-116500000D03*
X150250000Y-58000000D03*
X150000000Y-79500000D03*
G04 #@! TO.N,GATE*
X153000000Y-76500000D03*
G04 #@! TO.N,CLIP*
X154750000Y-119500000D03*
X152750000Y-112000000D03*
X147000000Y-107250000D03*
G04 #@! TO.N,Net-(Gate1-Pad2)*
X146750000Y-121500000D03*
G04 #@! TO.N,Net-(Attack1-Pad2)*
X155250000Y-144750000D03*
G04 #@! TO.N,Net-(D6-Pad2)*
X153500000Y-140250000D03*
G04 #@! TO.N,Net-(J1-Pad2)*
X144750000Y-86562653D03*
G04 #@! TO.N,Net-(C11-Pad1)*
X151750000Y-136500000D03*
G04 #@! TO.N,Net-(C14-Pad1)*
X152750000Y-138500000D03*
X151250000Y-139525001D03*
X156250000Y-140000000D03*
G04 #@! TO.N,Net-(D7-Pad1)*
X150500000Y-145000000D03*
G04 #@! TO.N,Net-(C15-Pad2)*
X156500000Y-94000000D03*
G04 #@! TO.N,Net-(R4-Pad1)*
X146750000Y-84750000D03*
X148000000Y-82250000D03*
X147000000Y-68500000D03*
G04 #@! TO.N,Net-(R12-Pad2)*
X143750000Y-116250000D03*
G04 #@! TD*
D23*
G04 #@! TO.N,Net-(C3-Pad1)*
X143750000Y-68970000D02*
X143750000Y-67824320D01*
D24*
G04 #@! TO.N,VCC*
X140750000Y-57750000D02*
X141000000Y-58000000D01*
X140750000Y-56250000D02*
X140750000Y-57750000D01*
X145500000Y-142500000D02*
X145500000Y-141250000D01*
X144500000Y-138000000D02*
X140750000Y-138000000D01*
X145000000Y-138000000D02*
X144500000Y-138000000D01*
X145500000Y-141250000D02*
X145500000Y-138500000D01*
X145500000Y-138500000D02*
X145000000Y-138000000D01*
X151500000Y-117500000D02*
X150000000Y-116000000D01*
X141174990Y-116250000D02*
X142184315Y-116250000D01*
X142184315Y-116250000D02*
X143434315Y-117500000D01*
X143626715Y-117692400D02*
X143434315Y-117500000D01*
X146750000Y-117692400D02*
X143626715Y-117692400D01*
D23*
X146233203Y-85600001D02*
X147649999Y-85600001D01*
X147649999Y-85600001D02*
X148000000Y-85250000D01*
X144149999Y-85600001D02*
X142500000Y-87250000D01*
X145750000Y-85600001D02*
X144149999Y-85600001D01*
X145750000Y-85600001D02*
X146233203Y-85600001D01*
X145600001Y-85600001D02*
X145750000Y-85600001D01*
G04 #@! TO.N,AMP_OUT*
X147525000Y-94250000D02*
X150000000Y-91775000D01*
X150000000Y-91775000D02*
X150000000Y-91750000D01*
X155123002Y-80750000D02*
X155123002Y-79876998D01*
X155123002Y-79876998D02*
X156262653Y-78737347D01*
X156250000Y-68000000D02*
X155000000Y-66750000D01*
X156250000Y-68250000D02*
X156250000Y-68000000D01*
D24*
G04 #@! TO.N,VEE*
X156000000Y-56250000D02*
X156000000Y-57750000D01*
X141000000Y-137000000D02*
X145750000Y-137000000D01*
X145750000Y-137000000D02*
X147000000Y-138250000D01*
X147000000Y-138250000D02*
X147000000Y-141250000D01*
X147000000Y-141250000D02*
X147000000Y-142500000D01*
X142500000Y-113500000D02*
X143750000Y-113500000D01*
D23*
X145000000Y-85000000D02*
X145500000Y-84500000D01*
X143250000Y-85000000D02*
X142500000Y-85750000D01*
X145000000Y-85000000D02*
X143250000Y-85000000D01*
D24*
X141699999Y-87699999D02*
X142500000Y-88500000D01*
X142500000Y-85750000D02*
X141699999Y-86550001D01*
X141699999Y-86550001D02*
X141699999Y-87699999D01*
D23*
G04 #@! TO.N,ENVELOPE*
X156015001Y-122984999D02*
X156015001Y-95765001D01*
X155500000Y-123500000D02*
X156015001Y-122984999D01*
X155774999Y-92323003D02*
X155848002Y-92250000D01*
X156015001Y-95765001D02*
X155774999Y-95524999D01*
X155774999Y-95524999D02*
X155774999Y-92323003D01*
X147000000Y-74750000D02*
X145250000Y-74750000D01*
G04 #@! TO.N,GND*
X152000000Y-116500000D02*
X151500000Y-116000000D01*
X153000000Y-116500000D02*
X152000000Y-116500000D01*
G04 #@! TO.N,GATE*
X153000000Y-76000000D02*
X152000000Y-75000000D01*
X153000000Y-76500000D02*
X153000000Y-76000000D01*
G04 #@! TO.N,CLIP*
X154750000Y-119500000D02*
X155500000Y-118750000D01*
X155500000Y-118750000D02*
X155500000Y-114000000D01*
X155500000Y-114000000D02*
X154750000Y-113250000D01*
X154750000Y-113250000D02*
X154000000Y-113250000D01*
X154000000Y-113250000D02*
X153000000Y-112250000D01*
X153000000Y-112250000D02*
X152750000Y-112000000D01*
X147000000Y-107250000D02*
X147000000Y-104750000D01*
X147000000Y-104750000D02*
X144250000Y-102000000D01*
G04 #@! TO.N,Net-(Gate1-Pad2)*
X143000000Y-127710000D02*
X145000000Y-125710000D01*
X145000000Y-125710000D02*
X145000000Y-124250000D01*
X145000000Y-124250000D02*
X145250000Y-124000000D01*
X145250000Y-124000000D02*
X145250000Y-123500000D01*
X145250000Y-123500000D02*
X146750000Y-122000000D01*
X146750000Y-122000000D02*
X146750000Y-121500000D01*
G04 #@! TO.N,Net-(Attack1-Pad2)*
X153750000Y-144000000D02*
X154500000Y-144000000D01*
X154500000Y-144000000D02*
X155250000Y-144750000D01*
X155250000Y-129510000D02*
X153500000Y-127760000D01*
X155250000Y-132250000D02*
X155250000Y-129510000D01*
X153000000Y-134500000D02*
X155250000Y-132250000D01*
X153000000Y-136000000D02*
X153000000Y-134500000D01*
X153750000Y-143800000D02*
X155000000Y-142550000D01*
X153750000Y-144000000D02*
X153750000Y-143800000D01*
X155000000Y-142550000D02*
X155000000Y-140500000D01*
X155000000Y-140500000D02*
X154500000Y-140000000D01*
X154500000Y-140000000D02*
X154500000Y-137500000D01*
X154500000Y-137500000D02*
X153000000Y-136000000D01*
G04 #@! TO.N,Net-(D6-Pad2)*
X149500000Y-129290000D02*
X151000000Y-127790000D01*
X149500000Y-134500000D02*
X149500000Y-129290000D01*
X150000000Y-135000000D02*
X149500000Y-134500000D01*
X152250000Y-135000000D02*
X150000000Y-135000000D01*
X153750000Y-141500000D02*
X153750000Y-141500000D01*
X153925011Y-137602009D02*
X152500000Y-136176998D01*
X152500000Y-136176998D02*
X152500000Y-135250000D01*
X152500000Y-135250000D02*
X152250000Y-135000000D01*
X153750000Y-140500000D02*
X153500000Y-140250000D01*
X153750000Y-141500000D02*
X153750000Y-140500000D01*
X153925011Y-139824989D02*
X153925011Y-139500000D01*
X153500000Y-140250000D02*
X153925011Y-139824989D01*
X153925011Y-139500000D02*
X153925011Y-137602009D01*
G04 #@! TO.N,Net-(J3-Pad3)*
X143750000Y-74750000D02*
X143750000Y-71830000D01*
G04 #@! TO.N,Net-(J4-Pad3)*
X153500000Y-72080000D02*
X153250000Y-71830000D01*
X153500000Y-75000000D02*
X153500000Y-72080000D01*
G04 #@! TO.N,Net-(C8-Pad1)*
X142750000Y-105250000D02*
X142750000Y-103750000D01*
X142750000Y-102050000D02*
X142800000Y-102000000D01*
X142750000Y-103750000D02*
X142750000Y-102050000D01*
G04 #@! TO.N,Net-(C3-Pad1)*
X143750000Y-66700000D02*
X143800000Y-66650000D01*
X143750000Y-68970000D02*
X143750000Y-66700000D01*
X142350000Y-66650000D02*
X142300000Y-66600000D01*
X143800000Y-66650000D02*
X142350000Y-66650000D01*
G04 #@! TO.N,Net-(J1-Pad2)*
X144750000Y-86562653D02*
X144750000Y-88710000D01*
G04 #@! TO.N,Net-(C5-Pad2)*
X143800000Y-65150000D02*
X145300000Y-65150000D01*
X145300000Y-65150000D02*
X147000000Y-65150000D01*
G04 #@! TO.N,Net-(C11-Pad1)*
X152250000Y-141700000D02*
X152250000Y-144000000D01*
X152250000Y-141500000D02*
X152250000Y-141700000D01*
X152250000Y-140800000D02*
X152250000Y-141500000D01*
X151750000Y-136500000D02*
X153024999Y-137774999D01*
X153024999Y-137774999D02*
X153274999Y-137774999D01*
X153274999Y-137774999D02*
X153475001Y-137975001D01*
X153475001Y-137975001D02*
X153475001Y-138848001D01*
X153475001Y-138848001D02*
X152250000Y-140073002D01*
X152250000Y-140073002D02*
X152250000Y-140800000D01*
G04 #@! TO.N,Net-(C14-Pad1)*
X152750000Y-138500000D02*
X152275001Y-138500000D01*
X152275001Y-138500000D02*
X151250000Y-139525001D01*
X156250000Y-139000000D02*
X156250000Y-140000000D01*
G04 #@! TO.N,Net-(C16-Pad2)*
X153250000Y-65250000D02*
X155000000Y-65250000D01*
G04 #@! TO.N,Net-(C15-Pad2)*
X155200000Y-135500000D02*
X155000000Y-135500000D01*
X156250000Y-136550000D02*
X155200000Y-135500000D01*
X156250000Y-137500000D02*
X156250000Y-136550000D01*
X155700000Y-135500000D02*
X156500000Y-134700000D01*
X155000000Y-135500000D02*
X155700000Y-135500000D01*
X156500000Y-134700000D02*
X156500000Y-110500000D01*
X156500000Y-110500000D02*
X156500000Y-94000000D01*
G04 #@! TO.N,Net-(D7-Pad1)*
X154800000Y-134000000D02*
X155000000Y-134000000D01*
X153500000Y-135300000D02*
X154800000Y-134000000D01*
X153500000Y-135863590D02*
X153500000Y-135300000D01*
X154950009Y-137313599D02*
X153500000Y-135863590D01*
X150500000Y-145000000D02*
X151000000Y-145500000D01*
X151000000Y-145500000D02*
X155573002Y-145500000D01*
X155573002Y-145500000D02*
X156000000Y-145073002D01*
X156000000Y-145073002D02*
X156000000Y-140823002D01*
X156000000Y-140823002D02*
X154950010Y-139773012D01*
X154950010Y-139773012D02*
X154950009Y-137313599D01*
G04 #@! TO.N,Net-(J2-Pad3)*
X153250000Y-66750000D02*
X153250000Y-68970000D01*
G04 #@! TO.N,Net-(LED1-Pad2)*
X142750000Y-107250000D02*
X142750000Y-106750000D01*
X143335001Y-107835001D02*
X142750000Y-107250000D01*
X143335001Y-110464999D02*
X143335001Y-107835001D01*
X142110000Y-111690000D02*
X143335001Y-110464999D01*
G04 #@! TO.N,Net-(LED3-Pad1)*
X155000000Y-108940000D02*
X154790000Y-109150000D01*
X155000000Y-107000000D02*
X155000000Y-108940000D01*
G04 #@! TO.N,Net-(R4-Pad1)*
X146750000Y-84750000D02*
X146750000Y-83500000D01*
X146750000Y-83500000D02*
X148000000Y-82250000D01*
X147000000Y-68500000D02*
X147000000Y-66650000D01*
G04 #@! TO.N,Net-(R7-Pad3)*
X151000000Y-105650000D02*
X151000000Y-103500000D01*
G04 #@! TO.N,Net-(R12-Pad2)*
X143750000Y-116250000D02*
X143750000Y-115000000D01*
G04 #@! TD*
D25*
G04 #@! TO.N,GND*
G36*
X142429375Y-50389375D02*
X142101161Y-50880582D01*
X141985908Y-51460000D01*
X142101161Y-52039418D01*
X142429375Y-52530625D01*
X142447619Y-52542816D01*
X142402235Y-52551843D01*
X142192191Y-52692191D01*
X142051843Y-52902235D01*
X142002560Y-53150000D01*
X142002560Y-54850000D01*
X142051843Y-55097765D01*
X142192191Y-55307809D01*
X142402235Y-55448157D01*
X142650000Y-55497440D01*
X144350000Y-55497440D01*
X144597765Y-55448157D01*
X144807809Y-55307809D01*
X144948157Y-55097765D01*
X144997440Y-54850000D01*
X144997440Y-53150000D01*
X144948157Y-52902235D01*
X144807809Y-52692191D01*
X144597765Y-52551843D01*
X144552381Y-52542816D01*
X144570625Y-52530625D01*
X144898839Y-52039418D01*
X145014092Y-51460000D01*
X144898839Y-50880582D01*
X144570625Y-50389375D01*
X144115335Y-50085160D01*
X153044665Y-50085160D01*
X152589375Y-50389375D01*
X152261161Y-50880582D01*
X152145908Y-51460000D01*
X152261161Y-52039418D01*
X152589375Y-52530625D01*
X152887761Y-52730000D01*
X152589375Y-52929375D01*
X152261161Y-53420582D01*
X152145908Y-54000000D01*
X152261161Y-54579418D01*
X152589375Y-55070625D01*
X153080582Y-55398839D01*
X153513744Y-55485000D01*
X153806256Y-55485000D01*
X154239418Y-55398839D01*
X154730625Y-55070625D01*
X155058839Y-54579418D01*
X155174092Y-54000000D01*
X155058839Y-53420582D01*
X154730625Y-52929375D01*
X154432239Y-52730000D01*
X154730625Y-52530625D01*
X155058839Y-52039418D01*
X155174092Y-51460000D01*
X155058839Y-50880582D01*
X154730625Y-50389375D01*
X154275335Y-50085160D01*
X157279000Y-50085160D01*
X157279000Y-56823905D01*
X157257809Y-56792191D01*
X157047765Y-56651843D01*
X156960978Y-56634580D01*
X157035000Y-56455874D01*
X157035000Y-56044126D01*
X156877431Y-55663720D01*
X156586280Y-55372569D01*
X156205874Y-55215000D01*
X155794126Y-55215000D01*
X155413720Y-55372569D01*
X155122569Y-55663720D01*
X154965000Y-56044126D01*
X154965000Y-56455874D01*
X155039022Y-56634580D01*
X154952235Y-56651843D01*
X154742191Y-56792191D01*
X154601843Y-57002235D01*
X154552560Y-57250000D01*
X154552560Y-58250000D01*
X154601843Y-58497765D01*
X154742191Y-58707809D01*
X154952235Y-58848157D01*
X155200000Y-58897440D01*
X156800000Y-58897440D01*
X157047765Y-58848157D01*
X157257809Y-58707809D01*
X157279000Y-58676095D01*
X157279000Y-68029641D01*
X157127431Y-67663720D01*
X156836280Y-67372569D01*
X156599148Y-67274346D01*
X156022440Y-66697639D01*
X156022440Y-66350000D01*
X155973157Y-66102235D01*
X155904845Y-66000000D01*
X155973157Y-65897765D01*
X156022440Y-65650000D01*
X156022440Y-64850000D01*
X155973157Y-64602235D01*
X155832809Y-64392191D01*
X155622765Y-64251843D01*
X155375000Y-64202560D01*
X154625000Y-64202560D01*
X154377235Y-64251843D01*
X154167191Y-64392191D01*
X154101837Y-64490000D01*
X154079700Y-64490000D01*
X153947765Y-64401843D01*
X153700000Y-64352560D01*
X152800000Y-64352560D01*
X152552235Y-64401843D01*
X152342191Y-64542191D01*
X152201843Y-64752235D01*
X152152560Y-65000000D01*
X152152560Y-65500000D01*
X152201843Y-65747765D01*
X152342191Y-65957809D01*
X152405334Y-66000000D01*
X152342191Y-66042191D01*
X152201843Y-66252235D01*
X152152560Y-66500000D01*
X152152560Y-67000000D01*
X152201843Y-67247765D01*
X152342191Y-67457809D01*
X152490000Y-67556573D01*
X152490000Y-67623331D01*
X152380493Y-67668690D01*
X151948690Y-68100493D01*
X151715000Y-68664670D01*
X151715000Y-69275330D01*
X151948690Y-69839507D01*
X152380493Y-70271310D01*
X152691178Y-70400000D01*
X152380493Y-70528690D01*
X151948690Y-70960493D01*
X151715000Y-71524670D01*
X151715000Y-72135330D01*
X151948690Y-72699507D01*
X152380493Y-73131310D01*
X152740001Y-73280223D01*
X152740000Y-74140368D01*
X152707809Y-74092191D01*
X152497765Y-73951843D01*
X152250000Y-73902560D01*
X151750000Y-73902560D01*
X151502235Y-73951843D01*
X151292191Y-74092191D01*
X151151843Y-74302235D01*
X151102560Y-74550000D01*
X151102560Y-75450000D01*
X151151843Y-75697765D01*
X151292191Y-75907809D01*
X151502235Y-76048157D01*
X151750000Y-76097440D01*
X152022638Y-76097440D01*
X152039490Y-76114291D01*
X151965000Y-76294126D01*
X151965000Y-76705874D01*
X152122569Y-77086280D01*
X152413720Y-77377431D01*
X152794126Y-77535000D01*
X153205874Y-77535000D01*
X153586280Y-77377431D01*
X153877431Y-77086280D01*
X154035000Y-76705874D01*
X154035000Y-76294126D01*
X153938038Y-76060037D01*
X153997765Y-76048157D01*
X154207809Y-75907809D01*
X154348157Y-75697765D01*
X154397440Y-75450000D01*
X154397440Y-74550000D01*
X154348157Y-74302235D01*
X154260000Y-74170300D01*
X154260000Y-72990817D01*
X154551310Y-72699507D01*
X154785000Y-72135330D01*
X154785000Y-71524670D01*
X154551310Y-70960493D01*
X154119507Y-70528690D01*
X153808822Y-70400000D01*
X154119507Y-70271310D01*
X154551310Y-69839507D01*
X154785000Y-69275330D01*
X154785000Y-68664670D01*
X154551310Y-68100493D01*
X154119507Y-67668690D01*
X154010000Y-67623331D01*
X154010000Y-67556573D01*
X154095004Y-67499774D01*
X154167191Y-67607809D01*
X154377235Y-67748157D01*
X154625000Y-67797440D01*
X154972639Y-67797440D01*
X155216267Y-68041068D01*
X155215000Y-68044126D01*
X155215000Y-68455874D01*
X155372569Y-68836280D01*
X155663720Y-69127431D01*
X156044126Y-69285000D01*
X156455874Y-69285000D01*
X156836280Y-69127431D01*
X157127431Y-68836280D01*
X157279000Y-68470359D01*
X157279000Y-78486441D01*
X157140084Y-78151067D01*
X156848933Y-77859916D01*
X156468527Y-77702347D01*
X156056779Y-77702347D01*
X155676373Y-77859916D01*
X155385222Y-78151067D01*
X155227653Y-78531473D01*
X155227653Y-78697545D01*
X154638530Y-79286669D01*
X154578709Y-79326640D01*
X154551310Y-79260493D01*
X154119507Y-78828690D01*
X153555330Y-78595000D01*
X152944670Y-78595000D01*
X152380493Y-78828690D01*
X151948690Y-79260493D01*
X151715000Y-79824670D01*
X151715000Y-80435330D01*
X151948690Y-80999507D01*
X152380493Y-81431310D01*
X152944670Y-81665000D01*
X153555330Y-81665000D01*
X154119507Y-81431310D01*
X154236481Y-81314336D01*
X154245571Y-81336280D01*
X154536722Y-81627431D01*
X154917128Y-81785000D01*
X155328876Y-81785000D01*
X155709282Y-81627431D01*
X156000433Y-81336280D01*
X156158002Y-80955874D01*
X156158002Y-80544126D01*
X156000433Y-80163720D01*
X155955757Y-80119044D01*
X156302455Y-79772347D01*
X156468527Y-79772347D01*
X156848933Y-79614778D01*
X157140084Y-79323627D01*
X157279000Y-78988253D01*
X157279000Y-93315289D01*
X157086280Y-93122569D01*
X156705874Y-92965000D01*
X156596713Y-92965000D01*
X156725433Y-92836280D01*
X156883002Y-92455874D01*
X156883002Y-92044126D01*
X156725433Y-91663720D01*
X156434282Y-91372569D01*
X156053876Y-91215000D01*
X155642128Y-91215000D01*
X155261722Y-91372569D01*
X154970571Y-91663720D01*
X154813002Y-92044126D01*
X154813002Y-92455874D01*
X154970571Y-92836280D01*
X155015000Y-92880709D01*
X155014999Y-95450152D01*
X155000111Y-95524999D01*
X155014999Y-95599846D01*
X155014999Y-95599850D01*
X155059095Y-95821535D01*
X155227070Y-96072928D01*
X155255002Y-96091592D01*
X155255002Y-106102560D01*
X154550000Y-106102560D01*
X154302235Y-106151843D01*
X154092191Y-106292191D01*
X153951843Y-106502235D01*
X153902560Y-106750000D01*
X153902560Y-107250000D01*
X153951843Y-107497765D01*
X154021865Y-107602560D01*
X153890000Y-107602560D01*
X153642235Y-107651843D01*
X153432191Y-107792191D01*
X153291843Y-108002235D01*
X153242560Y-108250000D01*
X153242560Y-110050000D01*
X153291843Y-110297765D01*
X153432191Y-110507809D01*
X153642235Y-110648157D01*
X153657908Y-110651275D01*
X153488690Y-110820493D01*
X153355574Y-111141863D01*
X153336280Y-111122569D01*
X152955874Y-110965000D01*
X152544126Y-110965000D01*
X152163720Y-111122569D01*
X151872569Y-111413720D01*
X151715000Y-111794126D01*
X151715000Y-112205874D01*
X151872569Y-112586280D01*
X152163720Y-112877431D01*
X152544126Y-113035000D01*
X152710199Y-113035000D01*
X153409670Y-113734472D01*
X153452071Y-113797929D01*
X153703463Y-113965904D01*
X153925148Y-114010000D01*
X153925152Y-114010000D01*
X154000000Y-114024888D01*
X154074848Y-114010000D01*
X154435199Y-114010000D01*
X154740001Y-114314803D01*
X154740000Y-118435198D01*
X154710198Y-118465000D01*
X154544126Y-118465000D01*
X154163720Y-118622569D01*
X153872569Y-118913720D01*
X153715000Y-119294126D01*
X153715000Y-119705874D01*
X153872569Y-120086280D01*
X154163720Y-120377431D01*
X154544126Y-120535000D01*
X154955874Y-120535000D01*
X155255001Y-120411098D01*
X155255001Y-122481206D01*
X154913720Y-122622569D01*
X154622569Y-122913720D01*
X154465000Y-123294126D01*
X154465000Y-123705874D01*
X154622569Y-124086280D01*
X154913720Y-124377431D01*
X155294126Y-124535000D01*
X155705874Y-124535000D01*
X155740000Y-124520864D01*
X155740000Y-128923364D01*
X155734473Y-128919671D01*
X154941209Y-128126408D01*
X155014092Y-127760000D01*
X154898839Y-127180582D01*
X154570625Y-126689375D01*
X154272239Y-126490000D01*
X154570625Y-126290625D01*
X154898839Y-125799418D01*
X155014092Y-125220000D01*
X154898839Y-124640582D01*
X154570625Y-124149375D01*
X154079418Y-123821161D01*
X153646256Y-123735000D01*
X153353744Y-123735000D01*
X152920582Y-123821161D01*
X152441039Y-124141582D01*
X152307809Y-123942191D01*
X152097765Y-123801843D01*
X151850000Y-123752560D01*
X150150000Y-123752560D01*
X149902235Y-123801843D01*
X149692191Y-123942191D01*
X149551843Y-124152235D01*
X149502560Y-124400000D01*
X149502560Y-126100000D01*
X149551843Y-126347765D01*
X149692191Y-126557809D01*
X149902235Y-126698157D01*
X149947619Y-126707184D01*
X149929375Y-126719375D01*
X149601161Y-127210582D01*
X149485908Y-127790000D01*
X149558791Y-128156407D01*
X149015528Y-128699671D01*
X148952072Y-128742071D01*
X148909672Y-128805527D01*
X148909671Y-128805528D01*
X148784097Y-128993463D01*
X148725112Y-129290000D01*
X148740001Y-129364852D01*
X148740000Y-134425153D01*
X148725112Y-134500000D01*
X148740000Y-134574847D01*
X148740000Y-134574851D01*
X148784096Y-134796536D01*
X148952071Y-135047929D01*
X149015529Y-135090331D01*
X149409671Y-135484472D01*
X149452071Y-135547929D01*
X149515527Y-135590329D01*
X149703462Y-135715904D01*
X149749755Y-135725112D01*
X149925148Y-135760000D01*
X149925152Y-135760000D01*
X150000000Y-135774888D01*
X150074848Y-135760000D01*
X151026289Y-135760000D01*
X150872569Y-135913720D01*
X150715000Y-136294126D01*
X150715000Y-136705874D01*
X150872569Y-137086280D01*
X151163720Y-137377431D01*
X151544126Y-137535000D01*
X151710199Y-137535000D01*
X151966973Y-137791774D01*
X151959845Y-137796537D01*
X151790527Y-137909671D01*
X151790525Y-137909673D01*
X151727072Y-137952071D01*
X151684674Y-138015525D01*
X151210198Y-138490001D01*
X151044126Y-138490001D01*
X150663720Y-138647570D01*
X150372569Y-138938721D01*
X150215000Y-139319127D01*
X150215000Y-139730875D01*
X150372569Y-140111281D01*
X150663720Y-140402432D01*
X151044126Y-140560001D01*
X151455874Y-140560001D01*
X151490000Y-140545866D01*
X151490000Y-140670300D01*
X151401843Y-140802235D01*
X151352560Y-141050000D01*
X151352560Y-141950000D01*
X151401843Y-142197765D01*
X151490000Y-142329701D01*
X151490001Y-143170299D01*
X151401843Y-143302235D01*
X151352560Y-143550000D01*
X151352560Y-144388849D01*
X151086280Y-144122569D01*
X150705874Y-143965000D01*
X150294126Y-143965000D01*
X149913720Y-144122569D01*
X149622569Y-144413720D01*
X149465000Y-144794126D01*
X149465000Y-145205874D01*
X149622569Y-145586280D01*
X149913720Y-145877431D01*
X150294126Y-146035000D01*
X150443432Y-146035000D01*
X150452071Y-146047929D01*
X150515527Y-146090329D01*
X150703462Y-146215904D01*
X150751605Y-146225480D01*
X150925148Y-146260000D01*
X150925152Y-146260000D01*
X151000000Y-146274888D01*
X151074848Y-146260000D01*
X155498155Y-146260000D01*
X155573002Y-146274888D01*
X155647849Y-146260000D01*
X155647854Y-146260000D01*
X155869539Y-146215904D01*
X156120931Y-146047929D01*
X156163333Y-145984471D01*
X156484473Y-145663331D01*
X156547929Y-145620931D01*
X156715904Y-145369539D01*
X156760000Y-145147854D01*
X156760000Y-145147850D01*
X156774888Y-145073003D01*
X156760000Y-144998156D01*
X156760000Y-140909027D01*
X156836280Y-140877431D01*
X157127431Y-140586280D01*
X157279001Y-140220357D01*
X157279001Y-148665160D01*
X139699000Y-148665160D01*
X139699000Y-137794126D01*
X139715000Y-137794126D01*
X139715000Y-138205874D01*
X139872569Y-138586280D01*
X140163720Y-138877431D01*
X140544126Y-139035000D01*
X140955874Y-139035000D01*
X141336280Y-138877431D01*
X141378711Y-138835000D01*
X144654133Y-138835000D01*
X144665001Y-138845868D01*
X144665000Y-140621289D01*
X144622569Y-140663720D01*
X144465000Y-141044126D01*
X144465000Y-141455874D01*
X144590016Y-141757690D01*
X144526843Y-141852235D01*
X144477560Y-142100000D01*
X144477560Y-142900000D01*
X144526843Y-143147765D01*
X144667191Y-143357809D01*
X144877235Y-143498157D01*
X145125000Y-143547440D01*
X145875000Y-143547440D01*
X146122765Y-143498157D01*
X146250000Y-143413141D01*
X146377235Y-143498157D01*
X146625000Y-143547440D01*
X147375000Y-143547440D01*
X147622765Y-143498157D01*
X147832809Y-143357809D01*
X147973157Y-143147765D01*
X148022440Y-142900000D01*
X148022440Y-142100000D01*
X147973157Y-141852235D01*
X147909984Y-141757690D01*
X148035000Y-141455874D01*
X148035000Y-141044126D01*
X147877431Y-140663720D01*
X147835000Y-140621289D01*
X147835000Y-138332237D01*
X147851358Y-138250000D01*
X147786552Y-137924199D01*
X147692938Y-137784096D01*
X147602001Y-137647999D01*
X147532283Y-137601415D01*
X146398587Y-136467720D01*
X146352001Y-136397999D01*
X146075801Y-136213448D01*
X145832237Y-136165000D01*
X145832233Y-136165000D01*
X145750000Y-136148643D01*
X145667767Y-136165000D01*
X141628711Y-136165000D01*
X141586280Y-136122569D01*
X141205874Y-135965000D01*
X140794126Y-135965000D01*
X140413720Y-136122569D01*
X140122569Y-136413720D01*
X139965000Y-136794126D01*
X139965000Y-137205874D01*
X139998804Y-137287485D01*
X139872569Y-137413720D01*
X139715000Y-137794126D01*
X139699000Y-137794126D01*
X139699000Y-125170000D01*
X141485908Y-125170000D01*
X141601161Y-125749418D01*
X141929375Y-126240625D01*
X142227761Y-126440000D01*
X141929375Y-126639375D01*
X141601161Y-127130582D01*
X141485908Y-127710000D01*
X141601161Y-128289418D01*
X141929375Y-128780625D01*
X141947619Y-128792816D01*
X141902235Y-128801843D01*
X141692191Y-128942191D01*
X141551843Y-129152235D01*
X141502560Y-129400000D01*
X141502560Y-131100000D01*
X141551843Y-131347765D01*
X141692191Y-131557809D01*
X141902235Y-131698157D01*
X142150000Y-131747440D01*
X143850000Y-131747440D01*
X144097765Y-131698157D01*
X144307809Y-131557809D01*
X144448157Y-131347765D01*
X144497440Y-131100000D01*
X144497440Y-129400000D01*
X144448157Y-129152235D01*
X144307809Y-128942191D01*
X144097765Y-128801843D01*
X144052381Y-128792816D01*
X144070625Y-128780625D01*
X144398839Y-128289418D01*
X144514092Y-127710000D01*
X144441209Y-127343592D01*
X145484473Y-126300329D01*
X145547929Y-126257929D01*
X145715904Y-126006537D01*
X145760000Y-125784852D01*
X145760000Y-125784848D01*
X145774888Y-125710001D01*
X145760000Y-125635154D01*
X145760000Y-124573272D01*
X145797929Y-124547929D01*
X145965904Y-124296537D01*
X146010000Y-124074852D01*
X146010000Y-124074848D01*
X146024888Y-124000001D01*
X146010000Y-123925154D01*
X146010000Y-123814801D01*
X147234476Y-122590327D01*
X147297929Y-122547929D01*
X147340327Y-122484476D01*
X147340329Y-122484474D01*
X147465903Y-122296538D01*
X147465904Y-122296537D01*
X147478004Y-122235707D01*
X147627431Y-122086280D01*
X147785000Y-121705874D01*
X147785000Y-121294126D01*
X147627431Y-120913720D01*
X147336280Y-120622569D01*
X146955874Y-120465000D01*
X146544126Y-120465000D01*
X146163720Y-120622569D01*
X145872569Y-120913720D01*
X145715000Y-121294126D01*
X145715000Y-121705874D01*
X145789490Y-121885708D01*
X144765528Y-122909671D01*
X144702072Y-122952071D01*
X144534096Y-123203463D01*
X144490000Y-123425148D01*
X144490000Y-123425153D01*
X144475112Y-123500000D01*
X144490000Y-123574847D01*
X144490000Y-123676728D01*
X144452072Y-123702071D01*
X144409672Y-123765527D01*
X144409671Y-123765528D01*
X144385406Y-123801843D01*
X144284097Y-123953463D01*
X144265307Y-124047929D01*
X144225112Y-124250000D01*
X144240001Y-124324851D01*
X144240001Y-124352864D01*
X144070625Y-124099375D01*
X143579418Y-123771161D01*
X143146256Y-123685000D01*
X142853744Y-123685000D01*
X142420582Y-123771161D01*
X141929375Y-124099375D01*
X141601161Y-124590582D01*
X141485908Y-125170000D01*
X139699000Y-125170000D01*
X139699000Y-116044126D01*
X140139990Y-116044126D01*
X140139990Y-116455874D01*
X140297559Y-116836280D01*
X140588710Y-117127431D01*
X140969116Y-117285000D01*
X141380864Y-117285000D01*
X141761270Y-117127431D01*
X141803701Y-117085000D01*
X141838448Y-117085000D01*
X142902031Y-118148584D01*
X142902034Y-118148586D01*
X142978128Y-118224680D01*
X143024714Y-118294401D01*
X143300914Y-118478952D01*
X143544478Y-118527400D01*
X143626715Y-118543758D01*
X143708952Y-118527400D01*
X146121289Y-118527400D01*
X146163720Y-118569831D01*
X146544126Y-118727400D01*
X146955874Y-118727400D01*
X147336280Y-118569831D01*
X147627431Y-118278680D01*
X147785000Y-117898274D01*
X147785000Y-117486526D01*
X147627431Y-117106120D01*
X147336280Y-116814969D01*
X146955874Y-116657400D01*
X146544126Y-116657400D01*
X146163720Y-116814969D01*
X146121289Y-116857400D01*
X144606311Y-116857400D01*
X144627431Y-116836280D01*
X144785000Y-116455874D01*
X144785000Y-116044126D01*
X144648320Y-115714150D01*
X144657809Y-115707809D01*
X144713140Y-115625000D01*
X148952560Y-115625000D01*
X148952560Y-116375000D01*
X149001843Y-116622765D01*
X149142191Y-116832809D01*
X149352235Y-116973157D01*
X149600000Y-117022440D01*
X149841572Y-117022440D01*
X150465000Y-117645868D01*
X150465000Y-117705874D01*
X150622569Y-118086280D01*
X150913720Y-118377431D01*
X151294126Y-118535000D01*
X151705874Y-118535000D01*
X152086280Y-118377431D01*
X152377431Y-118086280D01*
X152535000Y-117705874D01*
X152535000Y-117294126D01*
X152377431Y-116913720D01*
X152086280Y-116622569D01*
X151705874Y-116465000D01*
X151645868Y-116465000D01*
X151047440Y-115866572D01*
X151047440Y-115625000D01*
X150998157Y-115377235D01*
X150857809Y-115167191D01*
X150647765Y-115026843D01*
X150400000Y-114977560D01*
X149600000Y-114977560D01*
X149352235Y-115026843D01*
X149142191Y-115167191D01*
X149001843Y-115377235D01*
X148952560Y-115625000D01*
X144713140Y-115625000D01*
X144798157Y-115497765D01*
X144847440Y-115250000D01*
X144847440Y-114750000D01*
X144798157Y-114502235D01*
X144657809Y-114292191D01*
X144594666Y-114250000D01*
X144657809Y-114207809D01*
X144798157Y-113997765D01*
X144847440Y-113750000D01*
X144847440Y-113250000D01*
X144798157Y-113002235D01*
X144657809Y-112792191D01*
X144447765Y-112651843D01*
X144200000Y-112602560D01*
X143368257Y-112602560D01*
X143411310Y-112559507D01*
X143645000Y-111995330D01*
X143645000Y-111384670D01*
X143599640Y-111275162D01*
X143819474Y-111055328D01*
X143882930Y-111012928D01*
X144050905Y-110761536D01*
X144095001Y-110539851D01*
X144095001Y-110539847D01*
X144109889Y-110465000D01*
X144095001Y-110390153D01*
X144095001Y-107909847D01*
X144109889Y-107835000D01*
X144095001Y-107760153D01*
X144095001Y-107760149D01*
X144050905Y-107538464D01*
X143995720Y-107455874D01*
X143925330Y-107350527D01*
X143925328Y-107350525D01*
X143882930Y-107287072D01*
X143819476Y-107244673D01*
X143802207Y-107227404D01*
X143847440Y-107000000D01*
X143847440Y-106500000D01*
X143798157Y-106252235D01*
X143657809Y-106042191D01*
X143594666Y-106000000D01*
X143657809Y-105957809D01*
X143798157Y-105747765D01*
X143847440Y-105500000D01*
X143847440Y-105000000D01*
X143798157Y-104752235D01*
X143657809Y-104542191D01*
X143642005Y-104531631D01*
X143748157Y-104372765D01*
X143797440Y-104125000D01*
X143797440Y-103375000D01*
X143748157Y-103127235D01*
X143609356Y-102919506D01*
X143652235Y-102948157D01*
X143900000Y-102997440D01*
X144172639Y-102997440D01*
X145600006Y-104424809D01*
X145272106Y-104560629D01*
X144910629Y-104922106D01*
X144715000Y-105394398D01*
X144715000Y-105905602D01*
X144910629Y-106377894D01*
X145272106Y-106739371D01*
X145744398Y-106935000D01*
X146010201Y-106935000D01*
X145965000Y-107044126D01*
X145965000Y-107455874D01*
X146122569Y-107836280D01*
X146413720Y-108127431D01*
X146794126Y-108285000D01*
X146932560Y-108285000D01*
X146932560Y-110050000D01*
X146981843Y-110297765D01*
X147122191Y-110507809D01*
X147332235Y-110648157D01*
X147347908Y-110651275D01*
X147178690Y-110820493D01*
X146945000Y-111384670D01*
X146945000Y-111995330D01*
X147178690Y-112559507D01*
X147610493Y-112991310D01*
X148174670Y-113225000D01*
X148785330Y-113225000D01*
X149349507Y-112991310D01*
X149781310Y-112559507D01*
X150015000Y-111995330D01*
X150015000Y-111384670D01*
X149781310Y-110820493D01*
X149612092Y-110651275D01*
X149627765Y-110648157D01*
X149837809Y-110507809D01*
X149978157Y-110297765D01*
X150027440Y-110050000D01*
X150027440Y-108250000D01*
X149978157Y-108002235D01*
X149837809Y-107792191D01*
X149627765Y-107651843D01*
X149380000Y-107602560D01*
X147974241Y-107602560D01*
X148035000Y-107455874D01*
X148035000Y-107044126D01*
X147937070Y-106807701D01*
X148244398Y-106935000D01*
X148755602Y-106935000D01*
X149227894Y-106739371D01*
X149589371Y-106377894D01*
X149750000Y-105990100D01*
X149910629Y-106377894D01*
X150272106Y-106739371D01*
X150744398Y-106935000D01*
X151255602Y-106935000D01*
X151727894Y-106739371D01*
X152089371Y-106377894D01*
X152285000Y-105905602D01*
X152285000Y-105394398D01*
X152089371Y-104922106D01*
X151760000Y-104592735D01*
X151760000Y-104306573D01*
X151907809Y-104207809D01*
X152048157Y-103997765D01*
X152097440Y-103750000D01*
X152097440Y-103250000D01*
X152048157Y-103002235D01*
X151907809Y-102792191D01*
X151697765Y-102651843D01*
X151450000Y-102602560D01*
X150550000Y-102602560D01*
X150302235Y-102651843D01*
X150092191Y-102792191D01*
X149951843Y-103002235D01*
X149902560Y-103250000D01*
X149902560Y-103750000D01*
X149951843Y-103997765D01*
X150092191Y-104207809D01*
X150240001Y-104306573D01*
X150240000Y-104592735D01*
X149910629Y-104922106D01*
X149750000Y-105309900D01*
X149589371Y-104922106D01*
X149227894Y-104560629D01*
X148755602Y-104365000D01*
X148244398Y-104365000D01*
X147772106Y-104560629D01*
X147743009Y-104589726D01*
X147715904Y-104453463D01*
X147645541Y-104348157D01*
X147590329Y-104265526D01*
X147590327Y-104265524D01*
X147547929Y-104202071D01*
X147484476Y-104159673D01*
X145147440Y-101822639D01*
X145147440Y-101650000D01*
X145098157Y-101402235D01*
X144957809Y-101192191D01*
X144747765Y-101051843D01*
X144500000Y-101002560D01*
X143900000Y-101002560D01*
X143652235Y-101051843D01*
X143500000Y-101153564D01*
X143347765Y-101051843D01*
X143100000Y-101002560D01*
X142500000Y-101002560D01*
X142252235Y-101051843D01*
X142042191Y-101192191D01*
X141901843Y-101402235D01*
X141852560Y-101650000D01*
X141852560Y-102350000D01*
X141901843Y-102597765D01*
X141990001Y-102729701D01*
X141990001Y-102851836D01*
X141892191Y-102917191D01*
X141751843Y-103127235D01*
X141702560Y-103375000D01*
X141702560Y-104125000D01*
X141751843Y-104372765D01*
X141857995Y-104531631D01*
X141842191Y-104542191D01*
X141701843Y-104752235D01*
X141652560Y-105000000D01*
X141652560Y-105500000D01*
X141701843Y-105747765D01*
X141842191Y-105957809D01*
X141905334Y-106000000D01*
X141842191Y-106042191D01*
X141701843Y-106252235D01*
X141652560Y-106500000D01*
X141652560Y-107000000D01*
X141701843Y-107247765D01*
X141842191Y-107457809D01*
X142052235Y-107598157D01*
X142071095Y-107601908D01*
X142202071Y-107797929D01*
X142265529Y-107840330D01*
X142575002Y-108149804D01*
X142575001Y-110150197D01*
X142524838Y-110200360D01*
X142415330Y-110155000D01*
X141804670Y-110155000D01*
X141240493Y-110388690D01*
X140808690Y-110820493D01*
X140575000Y-111384670D01*
X140575000Y-111995330D01*
X140808690Y-112559507D01*
X141240493Y-112991310D01*
X141539183Y-113115032D01*
X141465000Y-113294126D01*
X141465000Y-113705874D01*
X141622569Y-114086280D01*
X141913720Y-114377431D01*
X142294126Y-114535000D01*
X142695326Y-114535000D01*
X142652560Y-114750000D01*
X142652560Y-115250000D01*
X142701843Y-115497765D01*
X142842191Y-115707809D01*
X142851680Y-115714150D01*
X142845135Y-115729953D01*
X142832902Y-115717720D01*
X142786316Y-115647999D01*
X142510116Y-115463448D01*
X142266552Y-115415000D01*
X142266548Y-115415000D01*
X142184315Y-115398643D01*
X142102082Y-115415000D01*
X141803701Y-115415000D01*
X141761270Y-115372569D01*
X141380864Y-115215000D01*
X140969116Y-115215000D01*
X140588710Y-115372569D01*
X140297559Y-115663720D01*
X140139990Y-116044126D01*
X139699000Y-116044126D01*
X139699000Y-97824778D01*
X142065000Y-97824778D01*
X142065000Y-98475222D01*
X142313914Y-99076153D01*
X142773847Y-99536086D01*
X143374778Y-99785000D01*
X144025222Y-99785000D01*
X144626153Y-99536086D01*
X145086086Y-99076153D01*
X145335000Y-98475222D01*
X145335000Y-97824778D01*
X151665000Y-97824778D01*
X151665000Y-98475222D01*
X151913914Y-99076153D01*
X152373847Y-99536086D01*
X152974778Y-99785000D01*
X153625222Y-99785000D01*
X154226153Y-99536086D01*
X154686086Y-99076153D01*
X154935000Y-98475222D01*
X154935000Y-97824778D01*
X154686086Y-97223847D01*
X154226153Y-96763914D01*
X153625222Y-96515000D01*
X152974778Y-96515000D01*
X152373847Y-96763914D01*
X151913914Y-97223847D01*
X151665000Y-97824778D01*
X145335000Y-97824778D01*
X145086086Y-97223847D01*
X144626153Y-96763914D01*
X144025222Y-96515000D01*
X143374778Y-96515000D01*
X142773847Y-96763914D01*
X142313914Y-97223847D01*
X142065000Y-97824778D01*
X139699000Y-97824778D01*
X139699000Y-94044126D01*
X146490000Y-94044126D01*
X146490000Y-94455874D01*
X146647569Y-94836280D01*
X146938720Y-95127431D01*
X147319126Y-95285000D01*
X147730874Y-95285000D01*
X148111280Y-95127431D01*
X148402431Y-94836280D01*
X148560000Y-94455874D01*
X148560000Y-94289801D01*
X150064802Y-92785000D01*
X150205874Y-92785000D01*
X150586280Y-92627431D01*
X150877431Y-92336280D01*
X151035000Y-91955874D01*
X151035000Y-91544126D01*
X150877431Y-91163720D01*
X150586280Y-90872569D01*
X150205874Y-90715000D01*
X149794126Y-90715000D01*
X149413720Y-90872569D01*
X149122569Y-91163720D01*
X148965000Y-91544126D01*
X148965000Y-91735198D01*
X147485199Y-93215000D01*
X147319126Y-93215000D01*
X146938720Y-93372569D01*
X146647569Y-93663720D01*
X146490000Y-94044126D01*
X139699000Y-94044126D01*
X139699000Y-86550001D01*
X140848642Y-86550001D01*
X140864999Y-86632235D01*
X140865000Y-87617762D01*
X140848642Y-87699999D01*
X140913447Y-88025799D01*
X140913448Y-88025800D01*
X141097999Y-88302000D01*
X141167717Y-88348584D01*
X141465000Y-88645868D01*
X141465000Y-88705874D01*
X141622569Y-89086280D01*
X141913720Y-89377431D01*
X142294126Y-89535000D01*
X142705874Y-89535000D01*
X143086280Y-89377431D01*
X143321817Y-89141894D01*
X143351161Y-89289418D01*
X143679375Y-89780625D01*
X144170582Y-90108839D01*
X144603744Y-90195000D01*
X144896256Y-90195000D01*
X145329418Y-90108839D01*
X145820625Y-89780625D01*
X146148839Y-89289418D01*
X146264092Y-88710000D01*
X146148839Y-88130582D01*
X145820625Y-87639375D01*
X145510000Y-87431822D01*
X145510000Y-87266364D01*
X145627431Y-87148933D01*
X145785000Y-86768527D01*
X145785000Y-86360001D01*
X147575152Y-86360001D01*
X147649999Y-86374889D01*
X147724846Y-86360001D01*
X147724851Y-86360001D01*
X147946536Y-86315905D01*
X147992789Y-86285000D01*
X148205874Y-86285000D01*
X148586280Y-86127431D01*
X148877431Y-85836280D01*
X149035000Y-85455874D01*
X149035000Y-85044126D01*
X148877431Y-84663720D01*
X148586280Y-84372569D01*
X148205874Y-84215000D01*
X147794126Y-84215000D01*
X147669973Y-84266426D01*
X147627431Y-84163720D01*
X147510000Y-84046289D01*
X147510000Y-83814801D01*
X148039802Y-83285000D01*
X148205874Y-83285000D01*
X148586280Y-83127431D01*
X148877431Y-82836280D01*
X149035000Y-82455874D01*
X149035000Y-82044126D01*
X148877431Y-81663720D01*
X148586280Y-81372569D01*
X148205874Y-81215000D01*
X147794126Y-81215000D01*
X147413720Y-81372569D01*
X147122569Y-81663720D01*
X146965000Y-82044126D01*
X146965000Y-82210198D01*
X146265528Y-82909671D01*
X146202072Y-82952071D01*
X146159672Y-83015527D01*
X146159671Y-83015528D01*
X146034097Y-83203463D01*
X145975112Y-83500000D01*
X145990001Y-83574851D01*
X145990001Y-83582689D01*
X145705874Y-83465000D01*
X145294126Y-83465000D01*
X144913720Y-83622569D01*
X144622569Y-83913720D01*
X144487420Y-84240000D01*
X143324846Y-84240000D01*
X143249999Y-84225112D01*
X143175152Y-84240000D01*
X143175148Y-84240000D01*
X142953463Y-84284096D01*
X142702071Y-84452071D01*
X142659671Y-84515527D01*
X142460198Y-84715000D01*
X142294126Y-84715000D01*
X141913720Y-84872569D01*
X141622569Y-85163720D01*
X141465000Y-85544126D01*
X141465000Y-85604132D01*
X141167719Y-85901414D01*
X141097998Y-85948000D01*
X140913447Y-86224201D01*
X140864999Y-86467765D01*
X140864999Y-86467768D01*
X140848642Y-86550001D01*
X139699000Y-86550001D01*
X139699000Y-79824670D01*
X142215000Y-79824670D01*
X142215000Y-80435330D01*
X142448690Y-80999507D01*
X142880493Y-81431310D01*
X143444670Y-81665000D01*
X144055330Y-81665000D01*
X144619507Y-81431310D01*
X145051310Y-80999507D01*
X145285000Y-80435330D01*
X145285000Y-79824670D01*
X145051310Y-79260493D01*
X144619507Y-78828690D01*
X144055330Y-78595000D01*
X143444670Y-78595000D01*
X142880493Y-78828690D01*
X142448690Y-79260493D01*
X142215000Y-79824670D01*
X139699000Y-79824670D01*
X139699000Y-66200000D01*
X141277560Y-66200000D01*
X141277560Y-67000000D01*
X141326843Y-67247765D01*
X141467191Y-67457809D01*
X141677235Y-67598157D01*
X141925000Y-67647440D01*
X142675000Y-67647440D01*
X142922765Y-67598157D01*
X142990001Y-67553231D01*
X142990001Y-67623330D01*
X142880493Y-67668690D01*
X142448690Y-68100493D01*
X142215000Y-68664670D01*
X142215000Y-69275330D01*
X142448690Y-69839507D01*
X142880493Y-70271310D01*
X143191178Y-70400000D01*
X142880493Y-70528690D01*
X142448690Y-70960493D01*
X142215000Y-71524670D01*
X142215000Y-72135330D01*
X142448690Y-72699507D01*
X142880493Y-73131310D01*
X142990001Y-73176670D01*
X142990000Y-73920299D01*
X142901843Y-74052235D01*
X142852560Y-74300000D01*
X142852560Y-75200000D01*
X142901843Y-75447765D01*
X143042191Y-75657809D01*
X143252235Y-75798157D01*
X143500000Y-75847440D01*
X144000000Y-75847440D01*
X144247765Y-75798157D01*
X144457809Y-75657809D01*
X144500000Y-75594666D01*
X144542191Y-75657809D01*
X144752235Y-75798157D01*
X145000000Y-75847440D01*
X145500000Y-75847440D01*
X145747765Y-75798157D01*
X145957809Y-75657809D01*
X146056573Y-75510000D01*
X146296289Y-75510000D01*
X146413720Y-75627431D01*
X146794126Y-75785000D01*
X147205874Y-75785000D01*
X147586280Y-75627431D01*
X147877431Y-75336280D01*
X148035000Y-74955874D01*
X148035000Y-74544126D01*
X147877431Y-74163720D01*
X147586280Y-73872569D01*
X147205874Y-73715000D01*
X146794126Y-73715000D01*
X146413720Y-73872569D01*
X146296289Y-73990000D01*
X146056573Y-73990000D01*
X145957809Y-73842191D01*
X145747765Y-73701843D01*
X145500000Y-73652560D01*
X145000000Y-73652560D01*
X144752235Y-73701843D01*
X144542191Y-73842191D01*
X144510000Y-73890368D01*
X144510000Y-73176669D01*
X144619507Y-73131310D01*
X145051310Y-72699507D01*
X145285000Y-72135330D01*
X145285000Y-71524670D01*
X145051310Y-70960493D01*
X144619507Y-70528690D01*
X144308822Y-70400000D01*
X144619507Y-70271310D01*
X145051310Y-69839507D01*
X145285000Y-69275330D01*
X145285000Y-68664670D01*
X145051310Y-68100493D01*
X144619507Y-67668690D01*
X144510000Y-67623331D01*
X144510000Y-67589868D01*
X144632809Y-67507809D01*
X144773157Y-67297765D01*
X144822440Y-67050000D01*
X144822440Y-66250000D01*
X144779354Y-66033388D01*
X144850000Y-66047440D01*
X145750000Y-66047440D01*
X145997765Y-65998157D01*
X146129700Y-65910000D01*
X146140368Y-65910000D01*
X146092191Y-65942191D01*
X145951843Y-66152235D01*
X145902560Y-66400000D01*
X145902560Y-66900000D01*
X145951843Y-67147765D01*
X146092191Y-67357809D01*
X146240001Y-67456573D01*
X146240000Y-67796289D01*
X146122569Y-67913720D01*
X145965000Y-68294126D01*
X145965000Y-68705874D01*
X146122569Y-69086280D01*
X146413720Y-69377431D01*
X146794126Y-69535000D01*
X147205874Y-69535000D01*
X147586280Y-69377431D01*
X147877431Y-69086280D01*
X148035000Y-68705874D01*
X148035000Y-68294126D01*
X147877431Y-67913720D01*
X147760000Y-67796289D01*
X147760000Y-67456573D01*
X147907809Y-67357809D01*
X148048157Y-67147765D01*
X148097440Y-66900000D01*
X148097440Y-66400000D01*
X148048157Y-66152235D01*
X147907809Y-65942191D01*
X147844666Y-65900000D01*
X147907809Y-65857809D01*
X148048157Y-65647765D01*
X148097440Y-65400000D01*
X148097440Y-64900000D01*
X148048157Y-64652235D01*
X147907809Y-64442191D01*
X147697765Y-64301843D01*
X147450000Y-64252560D01*
X146550000Y-64252560D01*
X146302235Y-64301843D01*
X146170300Y-64390000D01*
X146129700Y-64390000D01*
X145997765Y-64301843D01*
X145750000Y-64252560D01*
X144850000Y-64252560D01*
X144634915Y-64295343D01*
X144632809Y-64292191D01*
X144422765Y-64151843D01*
X144175000Y-64102560D01*
X143425000Y-64102560D01*
X143177235Y-64151843D01*
X142967191Y-64292191D01*
X142826843Y-64502235D01*
X142777560Y-64750000D01*
X142777560Y-65550000D01*
X142782315Y-65573906D01*
X142675000Y-65552560D01*
X141925000Y-65552560D01*
X141677235Y-65601843D01*
X141467191Y-65742191D01*
X141326843Y-65952235D01*
X141277560Y-66200000D01*
X139699000Y-66200000D01*
X139699000Y-60364670D01*
X142215000Y-60364670D01*
X142215000Y-60975330D01*
X142448690Y-61539507D01*
X142880493Y-61971310D01*
X143444670Y-62205000D01*
X144055330Y-62205000D01*
X144619507Y-61971310D01*
X145051310Y-61539507D01*
X145285000Y-60975330D01*
X145285000Y-60364670D01*
X151715000Y-60364670D01*
X151715000Y-60975330D01*
X151948690Y-61539507D01*
X152380493Y-61971310D01*
X152944670Y-62205000D01*
X153555330Y-62205000D01*
X154119507Y-61971310D01*
X154551310Y-61539507D01*
X154785000Y-60975330D01*
X154785000Y-60364670D01*
X154551310Y-59800493D01*
X154119507Y-59368690D01*
X153555330Y-59135000D01*
X152944670Y-59135000D01*
X152380493Y-59368690D01*
X151948690Y-59800493D01*
X151715000Y-60364670D01*
X145285000Y-60364670D01*
X145051310Y-59800493D01*
X144619507Y-59368690D01*
X144055330Y-59135000D01*
X143444670Y-59135000D01*
X142880493Y-59368690D01*
X142448690Y-59800493D01*
X142215000Y-60364670D01*
X139699000Y-60364670D01*
X139699000Y-58893170D01*
X139742191Y-58957809D01*
X139952235Y-59098157D01*
X140200000Y-59147440D01*
X141800000Y-59147440D01*
X142047765Y-59098157D01*
X142257809Y-58957809D01*
X142398157Y-58747765D01*
X142447440Y-58500000D01*
X142447440Y-57500000D01*
X142398157Y-57252235D01*
X142257809Y-57042191D01*
X142047765Y-56901843D01*
X141800000Y-56852560D01*
X141611151Y-56852560D01*
X141627431Y-56836280D01*
X141785000Y-56455874D01*
X141785000Y-56044126D01*
X141627431Y-55663720D01*
X141336280Y-55372569D01*
X140955874Y-55215000D01*
X140544126Y-55215000D01*
X140163720Y-55372569D01*
X139872569Y-55663720D01*
X139715000Y-56044126D01*
X139715000Y-56455874D01*
X139872569Y-56836280D01*
X139915000Y-56878711D01*
X139915000Y-56926723D01*
X139742191Y-57042191D01*
X139699000Y-57106830D01*
X139699000Y-50085160D01*
X142884665Y-50085160D01*
X142429375Y-50389375D01*
X142429375Y-50389375D01*
G37*
X142429375Y-50389375D02*
X142101161Y-50880582D01*
X141985908Y-51460000D01*
X142101161Y-52039418D01*
X142429375Y-52530625D01*
X142447619Y-52542816D01*
X142402235Y-52551843D01*
X142192191Y-52692191D01*
X142051843Y-52902235D01*
X142002560Y-53150000D01*
X142002560Y-54850000D01*
X142051843Y-55097765D01*
X142192191Y-55307809D01*
X142402235Y-55448157D01*
X142650000Y-55497440D01*
X144350000Y-55497440D01*
X144597765Y-55448157D01*
X144807809Y-55307809D01*
X144948157Y-55097765D01*
X144997440Y-54850000D01*
X144997440Y-53150000D01*
X144948157Y-52902235D01*
X144807809Y-52692191D01*
X144597765Y-52551843D01*
X144552381Y-52542816D01*
X144570625Y-52530625D01*
X144898839Y-52039418D01*
X145014092Y-51460000D01*
X144898839Y-50880582D01*
X144570625Y-50389375D01*
X144115335Y-50085160D01*
X153044665Y-50085160D01*
X152589375Y-50389375D01*
X152261161Y-50880582D01*
X152145908Y-51460000D01*
X152261161Y-52039418D01*
X152589375Y-52530625D01*
X152887761Y-52730000D01*
X152589375Y-52929375D01*
X152261161Y-53420582D01*
X152145908Y-54000000D01*
X152261161Y-54579418D01*
X152589375Y-55070625D01*
X153080582Y-55398839D01*
X153513744Y-55485000D01*
X153806256Y-55485000D01*
X154239418Y-55398839D01*
X154730625Y-55070625D01*
X155058839Y-54579418D01*
X155174092Y-54000000D01*
X155058839Y-53420582D01*
X154730625Y-52929375D01*
X154432239Y-52730000D01*
X154730625Y-52530625D01*
X155058839Y-52039418D01*
X155174092Y-51460000D01*
X155058839Y-50880582D01*
X154730625Y-50389375D01*
X154275335Y-50085160D01*
X157279000Y-50085160D01*
X157279000Y-56823905D01*
X157257809Y-56792191D01*
X157047765Y-56651843D01*
X156960978Y-56634580D01*
X157035000Y-56455874D01*
X157035000Y-56044126D01*
X156877431Y-55663720D01*
X156586280Y-55372569D01*
X156205874Y-55215000D01*
X155794126Y-55215000D01*
X155413720Y-55372569D01*
X155122569Y-55663720D01*
X154965000Y-56044126D01*
X154965000Y-56455874D01*
X155039022Y-56634580D01*
X154952235Y-56651843D01*
X154742191Y-56792191D01*
X154601843Y-57002235D01*
X154552560Y-57250000D01*
X154552560Y-58250000D01*
X154601843Y-58497765D01*
X154742191Y-58707809D01*
X154952235Y-58848157D01*
X155200000Y-58897440D01*
X156800000Y-58897440D01*
X157047765Y-58848157D01*
X157257809Y-58707809D01*
X157279000Y-58676095D01*
X157279000Y-68029641D01*
X157127431Y-67663720D01*
X156836280Y-67372569D01*
X156599148Y-67274346D01*
X156022440Y-66697639D01*
X156022440Y-66350000D01*
X155973157Y-66102235D01*
X155904845Y-66000000D01*
X155973157Y-65897765D01*
X156022440Y-65650000D01*
X156022440Y-64850000D01*
X155973157Y-64602235D01*
X155832809Y-64392191D01*
X155622765Y-64251843D01*
X155375000Y-64202560D01*
X154625000Y-64202560D01*
X154377235Y-64251843D01*
X154167191Y-64392191D01*
X154101837Y-64490000D01*
X154079700Y-64490000D01*
X153947765Y-64401843D01*
X153700000Y-64352560D01*
X152800000Y-64352560D01*
X152552235Y-64401843D01*
X152342191Y-64542191D01*
X152201843Y-64752235D01*
X152152560Y-65000000D01*
X152152560Y-65500000D01*
X152201843Y-65747765D01*
X152342191Y-65957809D01*
X152405334Y-66000000D01*
X152342191Y-66042191D01*
X152201843Y-66252235D01*
X152152560Y-66500000D01*
X152152560Y-67000000D01*
X152201843Y-67247765D01*
X152342191Y-67457809D01*
X152490000Y-67556573D01*
X152490000Y-67623331D01*
X152380493Y-67668690D01*
X151948690Y-68100493D01*
X151715000Y-68664670D01*
X151715000Y-69275330D01*
X151948690Y-69839507D01*
X152380493Y-70271310D01*
X152691178Y-70400000D01*
X152380493Y-70528690D01*
X151948690Y-70960493D01*
X151715000Y-71524670D01*
X151715000Y-72135330D01*
X151948690Y-72699507D01*
X152380493Y-73131310D01*
X152740001Y-73280223D01*
X152740000Y-74140368D01*
X152707809Y-74092191D01*
X152497765Y-73951843D01*
X152250000Y-73902560D01*
X151750000Y-73902560D01*
X151502235Y-73951843D01*
X151292191Y-74092191D01*
X151151843Y-74302235D01*
X151102560Y-74550000D01*
X151102560Y-75450000D01*
X151151843Y-75697765D01*
X151292191Y-75907809D01*
X151502235Y-76048157D01*
X151750000Y-76097440D01*
X152022638Y-76097440D01*
X152039490Y-76114291D01*
X151965000Y-76294126D01*
X151965000Y-76705874D01*
X152122569Y-77086280D01*
X152413720Y-77377431D01*
X152794126Y-77535000D01*
X153205874Y-77535000D01*
X153586280Y-77377431D01*
X153877431Y-77086280D01*
X154035000Y-76705874D01*
X154035000Y-76294126D01*
X153938038Y-76060037D01*
X153997765Y-76048157D01*
X154207809Y-75907809D01*
X154348157Y-75697765D01*
X154397440Y-75450000D01*
X154397440Y-74550000D01*
X154348157Y-74302235D01*
X154260000Y-74170300D01*
X154260000Y-72990817D01*
X154551310Y-72699507D01*
X154785000Y-72135330D01*
X154785000Y-71524670D01*
X154551310Y-70960493D01*
X154119507Y-70528690D01*
X153808822Y-70400000D01*
X154119507Y-70271310D01*
X154551310Y-69839507D01*
X154785000Y-69275330D01*
X154785000Y-68664670D01*
X154551310Y-68100493D01*
X154119507Y-67668690D01*
X154010000Y-67623331D01*
X154010000Y-67556573D01*
X154095004Y-67499774D01*
X154167191Y-67607809D01*
X154377235Y-67748157D01*
X154625000Y-67797440D01*
X154972639Y-67797440D01*
X155216267Y-68041068D01*
X155215000Y-68044126D01*
X155215000Y-68455874D01*
X155372569Y-68836280D01*
X155663720Y-69127431D01*
X156044126Y-69285000D01*
X156455874Y-69285000D01*
X156836280Y-69127431D01*
X157127431Y-68836280D01*
X157279000Y-68470359D01*
X157279000Y-78486441D01*
X157140084Y-78151067D01*
X156848933Y-77859916D01*
X156468527Y-77702347D01*
X156056779Y-77702347D01*
X155676373Y-77859916D01*
X155385222Y-78151067D01*
X155227653Y-78531473D01*
X155227653Y-78697545D01*
X154638530Y-79286669D01*
X154578709Y-79326640D01*
X154551310Y-79260493D01*
X154119507Y-78828690D01*
X153555330Y-78595000D01*
X152944670Y-78595000D01*
X152380493Y-78828690D01*
X151948690Y-79260493D01*
X151715000Y-79824670D01*
X151715000Y-80435330D01*
X151948690Y-80999507D01*
X152380493Y-81431310D01*
X152944670Y-81665000D01*
X153555330Y-81665000D01*
X154119507Y-81431310D01*
X154236481Y-81314336D01*
X154245571Y-81336280D01*
X154536722Y-81627431D01*
X154917128Y-81785000D01*
X155328876Y-81785000D01*
X155709282Y-81627431D01*
X156000433Y-81336280D01*
X156158002Y-80955874D01*
X156158002Y-80544126D01*
X156000433Y-80163720D01*
X155955757Y-80119044D01*
X156302455Y-79772347D01*
X156468527Y-79772347D01*
X156848933Y-79614778D01*
X157140084Y-79323627D01*
X157279000Y-78988253D01*
X157279000Y-93315289D01*
X157086280Y-93122569D01*
X156705874Y-92965000D01*
X156596713Y-92965000D01*
X156725433Y-92836280D01*
X156883002Y-92455874D01*
X156883002Y-92044126D01*
X156725433Y-91663720D01*
X156434282Y-91372569D01*
X156053876Y-91215000D01*
X155642128Y-91215000D01*
X155261722Y-91372569D01*
X154970571Y-91663720D01*
X154813002Y-92044126D01*
X154813002Y-92455874D01*
X154970571Y-92836280D01*
X155015000Y-92880709D01*
X155014999Y-95450152D01*
X155000111Y-95524999D01*
X155014999Y-95599846D01*
X155014999Y-95599850D01*
X155059095Y-95821535D01*
X155227070Y-96072928D01*
X155255002Y-96091592D01*
X155255002Y-106102560D01*
X154550000Y-106102560D01*
X154302235Y-106151843D01*
X154092191Y-106292191D01*
X153951843Y-106502235D01*
X153902560Y-106750000D01*
X153902560Y-107250000D01*
X153951843Y-107497765D01*
X154021865Y-107602560D01*
X153890000Y-107602560D01*
X153642235Y-107651843D01*
X153432191Y-107792191D01*
X153291843Y-108002235D01*
X153242560Y-108250000D01*
X153242560Y-110050000D01*
X153291843Y-110297765D01*
X153432191Y-110507809D01*
X153642235Y-110648157D01*
X153657908Y-110651275D01*
X153488690Y-110820493D01*
X153355574Y-111141863D01*
X153336280Y-111122569D01*
X152955874Y-110965000D01*
X152544126Y-110965000D01*
X152163720Y-111122569D01*
X151872569Y-111413720D01*
X151715000Y-111794126D01*
X151715000Y-112205874D01*
X151872569Y-112586280D01*
X152163720Y-112877431D01*
X152544126Y-113035000D01*
X152710199Y-113035000D01*
X153409670Y-113734472D01*
X153452071Y-113797929D01*
X153703463Y-113965904D01*
X153925148Y-114010000D01*
X153925152Y-114010000D01*
X154000000Y-114024888D01*
X154074848Y-114010000D01*
X154435199Y-114010000D01*
X154740001Y-114314803D01*
X154740000Y-118435198D01*
X154710198Y-118465000D01*
X154544126Y-118465000D01*
X154163720Y-118622569D01*
X153872569Y-118913720D01*
X153715000Y-119294126D01*
X153715000Y-119705874D01*
X153872569Y-120086280D01*
X154163720Y-120377431D01*
X154544126Y-120535000D01*
X154955874Y-120535000D01*
X155255001Y-120411098D01*
X155255001Y-122481206D01*
X154913720Y-122622569D01*
X154622569Y-122913720D01*
X154465000Y-123294126D01*
X154465000Y-123705874D01*
X154622569Y-124086280D01*
X154913720Y-124377431D01*
X155294126Y-124535000D01*
X155705874Y-124535000D01*
X155740000Y-124520864D01*
X155740000Y-128923364D01*
X155734473Y-128919671D01*
X154941209Y-128126408D01*
X155014092Y-127760000D01*
X154898839Y-127180582D01*
X154570625Y-126689375D01*
X154272239Y-126490000D01*
X154570625Y-126290625D01*
X154898839Y-125799418D01*
X155014092Y-125220000D01*
X154898839Y-124640582D01*
X154570625Y-124149375D01*
X154079418Y-123821161D01*
X153646256Y-123735000D01*
X153353744Y-123735000D01*
X152920582Y-123821161D01*
X152441039Y-124141582D01*
X152307809Y-123942191D01*
X152097765Y-123801843D01*
X151850000Y-123752560D01*
X150150000Y-123752560D01*
X149902235Y-123801843D01*
X149692191Y-123942191D01*
X149551843Y-124152235D01*
X149502560Y-124400000D01*
X149502560Y-126100000D01*
X149551843Y-126347765D01*
X149692191Y-126557809D01*
X149902235Y-126698157D01*
X149947619Y-126707184D01*
X149929375Y-126719375D01*
X149601161Y-127210582D01*
X149485908Y-127790000D01*
X149558791Y-128156407D01*
X149015528Y-128699671D01*
X148952072Y-128742071D01*
X148909672Y-128805527D01*
X148909671Y-128805528D01*
X148784097Y-128993463D01*
X148725112Y-129290000D01*
X148740001Y-129364852D01*
X148740000Y-134425153D01*
X148725112Y-134500000D01*
X148740000Y-134574847D01*
X148740000Y-134574851D01*
X148784096Y-134796536D01*
X148952071Y-135047929D01*
X149015529Y-135090331D01*
X149409671Y-135484472D01*
X149452071Y-135547929D01*
X149515527Y-135590329D01*
X149703462Y-135715904D01*
X149749755Y-135725112D01*
X149925148Y-135760000D01*
X149925152Y-135760000D01*
X150000000Y-135774888D01*
X150074848Y-135760000D01*
X151026289Y-135760000D01*
X150872569Y-135913720D01*
X150715000Y-136294126D01*
X150715000Y-136705874D01*
X150872569Y-137086280D01*
X151163720Y-137377431D01*
X151544126Y-137535000D01*
X151710199Y-137535000D01*
X151966973Y-137791774D01*
X151959845Y-137796537D01*
X151790527Y-137909671D01*
X151790525Y-137909673D01*
X151727072Y-137952071D01*
X151684674Y-138015525D01*
X151210198Y-138490001D01*
X151044126Y-138490001D01*
X150663720Y-138647570D01*
X150372569Y-138938721D01*
X150215000Y-139319127D01*
X150215000Y-139730875D01*
X150372569Y-140111281D01*
X150663720Y-140402432D01*
X151044126Y-140560001D01*
X151455874Y-140560001D01*
X151490000Y-140545866D01*
X151490000Y-140670300D01*
X151401843Y-140802235D01*
X151352560Y-141050000D01*
X151352560Y-141950000D01*
X151401843Y-142197765D01*
X151490000Y-142329701D01*
X151490001Y-143170299D01*
X151401843Y-143302235D01*
X151352560Y-143550000D01*
X151352560Y-144388849D01*
X151086280Y-144122569D01*
X150705874Y-143965000D01*
X150294126Y-143965000D01*
X149913720Y-144122569D01*
X149622569Y-144413720D01*
X149465000Y-144794126D01*
X149465000Y-145205874D01*
X149622569Y-145586280D01*
X149913720Y-145877431D01*
X150294126Y-146035000D01*
X150443432Y-146035000D01*
X150452071Y-146047929D01*
X150515527Y-146090329D01*
X150703462Y-146215904D01*
X150751605Y-146225480D01*
X150925148Y-146260000D01*
X150925152Y-146260000D01*
X151000000Y-146274888D01*
X151074848Y-146260000D01*
X155498155Y-146260000D01*
X155573002Y-146274888D01*
X155647849Y-146260000D01*
X155647854Y-146260000D01*
X155869539Y-146215904D01*
X156120931Y-146047929D01*
X156163333Y-145984471D01*
X156484473Y-145663331D01*
X156547929Y-145620931D01*
X156715904Y-145369539D01*
X156760000Y-145147854D01*
X156760000Y-145147850D01*
X156774888Y-145073003D01*
X156760000Y-144998156D01*
X156760000Y-140909027D01*
X156836280Y-140877431D01*
X157127431Y-140586280D01*
X157279001Y-140220357D01*
X157279001Y-148665160D01*
X139699000Y-148665160D01*
X139699000Y-137794126D01*
X139715000Y-137794126D01*
X139715000Y-138205874D01*
X139872569Y-138586280D01*
X140163720Y-138877431D01*
X140544126Y-139035000D01*
X140955874Y-139035000D01*
X141336280Y-138877431D01*
X141378711Y-138835000D01*
X144654133Y-138835000D01*
X144665001Y-138845868D01*
X144665000Y-140621289D01*
X144622569Y-140663720D01*
X144465000Y-141044126D01*
X144465000Y-141455874D01*
X144590016Y-141757690D01*
X144526843Y-141852235D01*
X144477560Y-142100000D01*
X144477560Y-142900000D01*
X144526843Y-143147765D01*
X144667191Y-143357809D01*
X144877235Y-143498157D01*
X145125000Y-143547440D01*
X145875000Y-143547440D01*
X146122765Y-143498157D01*
X146250000Y-143413141D01*
X146377235Y-143498157D01*
X146625000Y-143547440D01*
X147375000Y-143547440D01*
X147622765Y-143498157D01*
X147832809Y-143357809D01*
X147973157Y-143147765D01*
X148022440Y-142900000D01*
X148022440Y-142100000D01*
X147973157Y-141852235D01*
X147909984Y-141757690D01*
X148035000Y-141455874D01*
X148035000Y-141044126D01*
X147877431Y-140663720D01*
X147835000Y-140621289D01*
X147835000Y-138332237D01*
X147851358Y-138250000D01*
X147786552Y-137924199D01*
X147692938Y-137784096D01*
X147602001Y-137647999D01*
X147532283Y-137601415D01*
X146398587Y-136467720D01*
X146352001Y-136397999D01*
X146075801Y-136213448D01*
X145832237Y-136165000D01*
X145832233Y-136165000D01*
X145750000Y-136148643D01*
X145667767Y-136165000D01*
X141628711Y-136165000D01*
X141586280Y-136122569D01*
X141205874Y-135965000D01*
X140794126Y-135965000D01*
X140413720Y-136122569D01*
X140122569Y-136413720D01*
X139965000Y-136794126D01*
X139965000Y-137205874D01*
X139998804Y-137287485D01*
X139872569Y-137413720D01*
X139715000Y-137794126D01*
X139699000Y-137794126D01*
X139699000Y-125170000D01*
X141485908Y-125170000D01*
X141601161Y-125749418D01*
X141929375Y-126240625D01*
X142227761Y-126440000D01*
X141929375Y-126639375D01*
X141601161Y-127130582D01*
X141485908Y-127710000D01*
X141601161Y-128289418D01*
X141929375Y-128780625D01*
X141947619Y-128792816D01*
X141902235Y-128801843D01*
X141692191Y-128942191D01*
X141551843Y-129152235D01*
X141502560Y-129400000D01*
X141502560Y-131100000D01*
X141551843Y-131347765D01*
X141692191Y-131557809D01*
X141902235Y-131698157D01*
X142150000Y-131747440D01*
X143850000Y-131747440D01*
X144097765Y-131698157D01*
X144307809Y-131557809D01*
X144448157Y-131347765D01*
X144497440Y-131100000D01*
X144497440Y-129400000D01*
X144448157Y-129152235D01*
X144307809Y-128942191D01*
X144097765Y-128801843D01*
X144052381Y-128792816D01*
X144070625Y-128780625D01*
X144398839Y-128289418D01*
X144514092Y-127710000D01*
X144441209Y-127343592D01*
X145484473Y-126300329D01*
X145547929Y-126257929D01*
X145715904Y-126006537D01*
X145760000Y-125784852D01*
X145760000Y-125784848D01*
X145774888Y-125710001D01*
X145760000Y-125635154D01*
X145760000Y-124573272D01*
X145797929Y-124547929D01*
X145965904Y-124296537D01*
X146010000Y-124074852D01*
X146010000Y-124074848D01*
X146024888Y-124000001D01*
X146010000Y-123925154D01*
X146010000Y-123814801D01*
X147234476Y-122590327D01*
X147297929Y-122547929D01*
X147340327Y-122484476D01*
X147340329Y-122484474D01*
X147465903Y-122296538D01*
X147465904Y-122296537D01*
X147478004Y-122235707D01*
X147627431Y-122086280D01*
X147785000Y-121705874D01*
X147785000Y-121294126D01*
X147627431Y-120913720D01*
X147336280Y-120622569D01*
X146955874Y-120465000D01*
X146544126Y-120465000D01*
X146163720Y-120622569D01*
X145872569Y-120913720D01*
X145715000Y-121294126D01*
X145715000Y-121705874D01*
X145789490Y-121885708D01*
X144765528Y-122909671D01*
X144702072Y-122952071D01*
X144534096Y-123203463D01*
X144490000Y-123425148D01*
X144490000Y-123425153D01*
X144475112Y-123500000D01*
X144490000Y-123574847D01*
X144490000Y-123676728D01*
X144452072Y-123702071D01*
X144409672Y-123765527D01*
X144409671Y-123765528D01*
X144385406Y-123801843D01*
X144284097Y-123953463D01*
X144265307Y-124047929D01*
X144225112Y-124250000D01*
X144240001Y-124324851D01*
X144240001Y-124352864D01*
X144070625Y-124099375D01*
X143579418Y-123771161D01*
X143146256Y-123685000D01*
X142853744Y-123685000D01*
X142420582Y-123771161D01*
X141929375Y-124099375D01*
X141601161Y-124590582D01*
X141485908Y-125170000D01*
X139699000Y-125170000D01*
X139699000Y-116044126D01*
X140139990Y-116044126D01*
X140139990Y-116455874D01*
X140297559Y-116836280D01*
X140588710Y-117127431D01*
X140969116Y-117285000D01*
X141380864Y-117285000D01*
X141761270Y-117127431D01*
X141803701Y-117085000D01*
X141838448Y-117085000D01*
X142902031Y-118148584D01*
X142902034Y-118148586D01*
X142978128Y-118224680D01*
X143024714Y-118294401D01*
X143300914Y-118478952D01*
X143544478Y-118527400D01*
X143626715Y-118543758D01*
X143708952Y-118527400D01*
X146121289Y-118527400D01*
X146163720Y-118569831D01*
X146544126Y-118727400D01*
X146955874Y-118727400D01*
X147336280Y-118569831D01*
X147627431Y-118278680D01*
X147785000Y-117898274D01*
X147785000Y-117486526D01*
X147627431Y-117106120D01*
X147336280Y-116814969D01*
X146955874Y-116657400D01*
X146544126Y-116657400D01*
X146163720Y-116814969D01*
X146121289Y-116857400D01*
X144606311Y-116857400D01*
X144627431Y-116836280D01*
X144785000Y-116455874D01*
X144785000Y-116044126D01*
X144648320Y-115714150D01*
X144657809Y-115707809D01*
X144713140Y-115625000D01*
X148952560Y-115625000D01*
X148952560Y-116375000D01*
X149001843Y-116622765D01*
X149142191Y-116832809D01*
X149352235Y-116973157D01*
X149600000Y-117022440D01*
X149841572Y-117022440D01*
X150465000Y-117645868D01*
X150465000Y-117705874D01*
X150622569Y-118086280D01*
X150913720Y-118377431D01*
X151294126Y-118535000D01*
X151705874Y-118535000D01*
X152086280Y-118377431D01*
X152377431Y-118086280D01*
X152535000Y-117705874D01*
X152535000Y-117294126D01*
X152377431Y-116913720D01*
X152086280Y-116622569D01*
X151705874Y-116465000D01*
X151645868Y-116465000D01*
X151047440Y-115866572D01*
X151047440Y-115625000D01*
X150998157Y-115377235D01*
X150857809Y-115167191D01*
X150647765Y-115026843D01*
X150400000Y-114977560D01*
X149600000Y-114977560D01*
X149352235Y-115026843D01*
X149142191Y-115167191D01*
X149001843Y-115377235D01*
X148952560Y-115625000D01*
X144713140Y-115625000D01*
X144798157Y-115497765D01*
X144847440Y-115250000D01*
X144847440Y-114750000D01*
X144798157Y-114502235D01*
X144657809Y-114292191D01*
X144594666Y-114250000D01*
X144657809Y-114207809D01*
X144798157Y-113997765D01*
X144847440Y-113750000D01*
X144847440Y-113250000D01*
X144798157Y-113002235D01*
X144657809Y-112792191D01*
X144447765Y-112651843D01*
X144200000Y-112602560D01*
X143368257Y-112602560D01*
X143411310Y-112559507D01*
X143645000Y-111995330D01*
X143645000Y-111384670D01*
X143599640Y-111275162D01*
X143819474Y-111055328D01*
X143882930Y-111012928D01*
X144050905Y-110761536D01*
X144095001Y-110539851D01*
X144095001Y-110539847D01*
X144109889Y-110465000D01*
X144095001Y-110390153D01*
X144095001Y-107909847D01*
X144109889Y-107835000D01*
X144095001Y-107760153D01*
X144095001Y-107760149D01*
X144050905Y-107538464D01*
X143995720Y-107455874D01*
X143925330Y-107350527D01*
X143925328Y-107350525D01*
X143882930Y-107287072D01*
X143819476Y-107244673D01*
X143802207Y-107227404D01*
X143847440Y-107000000D01*
X143847440Y-106500000D01*
X143798157Y-106252235D01*
X143657809Y-106042191D01*
X143594666Y-106000000D01*
X143657809Y-105957809D01*
X143798157Y-105747765D01*
X143847440Y-105500000D01*
X143847440Y-105000000D01*
X143798157Y-104752235D01*
X143657809Y-104542191D01*
X143642005Y-104531631D01*
X143748157Y-104372765D01*
X143797440Y-104125000D01*
X143797440Y-103375000D01*
X143748157Y-103127235D01*
X143609356Y-102919506D01*
X143652235Y-102948157D01*
X143900000Y-102997440D01*
X144172639Y-102997440D01*
X145600006Y-104424809D01*
X145272106Y-104560629D01*
X144910629Y-104922106D01*
X144715000Y-105394398D01*
X144715000Y-105905602D01*
X144910629Y-106377894D01*
X145272106Y-106739371D01*
X145744398Y-106935000D01*
X146010201Y-106935000D01*
X145965000Y-107044126D01*
X145965000Y-107455874D01*
X146122569Y-107836280D01*
X146413720Y-108127431D01*
X146794126Y-108285000D01*
X146932560Y-108285000D01*
X146932560Y-110050000D01*
X146981843Y-110297765D01*
X147122191Y-110507809D01*
X147332235Y-110648157D01*
X147347908Y-110651275D01*
X147178690Y-110820493D01*
X146945000Y-111384670D01*
X146945000Y-111995330D01*
X147178690Y-112559507D01*
X147610493Y-112991310D01*
X148174670Y-113225000D01*
X148785330Y-113225000D01*
X149349507Y-112991310D01*
X149781310Y-112559507D01*
X150015000Y-111995330D01*
X150015000Y-111384670D01*
X149781310Y-110820493D01*
X149612092Y-110651275D01*
X149627765Y-110648157D01*
X149837809Y-110507809D01*
X149978157Y-110297765D01*
X150027440Y-110050000D01*
X150027440Y-108250000D01*
X149978157Y-108002235D01*
X149837809Y-107792191D01*
X149627765Y-107651843D01*
X149380000Y-107602560D01*
X147974241Y-107602560D01*
X148035000Y-107455874D01*
X148035000Y-107044126D01*
X147937070Y-106807701D01*
X148244398Y-106935000D01*
X148755602Y-106935000D01*
X149227894Y-106739371D01*
X149589371Y-106377894D01*
X149750000Y-105990100D01*
X149910629Y-106377894D01*
X150272106Y-106739371D01*
X150744398Y-106935000D01*
X151255602Y-106935000D01*
X151727894Y-106739371D01*
X152089371Y-106377894D01*
X152285000Y-105905602D01*
X152285000Y-105394398D01*
X152089371Y-104922106D01*
X151760000Y-104592735D01*
X151760000Y-104306573D01*
X151907809Y-104207809D01*
X152048157Y-103997765D01*
X152097440Y-103750000D01*
X152097440Y-103250000D01*
X152048157Y-103002235D01*
X151907809Y-102792191D01*
X151697765Y-102651843D01*
X151450000Y-102602560D01*
X150550000Y-102602560D01*
X150302235Y-102651843D01*
X150092191Y-102792191D01*
X149951843Y-103002235D01*
X149902560Y-103250000D01*
X149902560Y-103750000D01*
X149951843Y-103997765D01*
X150092191Y-104207809D01*
X150240001Y-104306573D01*
X150240000Y-104592735D01*
X149910629Y-104922106D01*
X149750000Y-105309900D01*
X149589371Y-104922106D01*
X149227894Y-104560629D01*
X148755602Y-104365000D01*
X148244398Y-104365000D01*
X147772106Y-104560629D01*
X147743009Y-104589726D01*
X147715904Y-104453463D01*
X147645541Y-104348157D01*
X147590329Y-104265526D01*
X147590327Y-104265524D01*
X147547929Y-104202071D01*
X147484476Y-104159673D01*
X145147440Y-101822639D01*
X145147440Y-101650000D01*
X145098157Y-101402235D01*
X144957809Y-101192191D01*
X144747765Y-101051843D01*
X144500000Y-101002560D01*
X143900000Y-101002560D01*
X143652235Y-101051843D01*
X143500000Y-101153564D01*
X143347765Y-101051843D01*
X143100000Y-101002560D01*
X142500000Y-101002560D01*
X142252235Y-101051843D01*
X142042191Y-101192191D01*
X141901843Y-101402235D01*
X141852560Y-101650000D01*
X141852560Y-102350000D01*
X141901843Y-102597765D01*
X141990001Y-102729701D01*
X141990001Y-102851836D01*
X141892191Y-102917191D01*
X141751843Y-103127235D01*
X141702560Y-103375000D01*
X141702560Y-104125000D01*
X141751843Y-104372765D01*
X141857995Y-104531631D01*
X141842191Y-104542191D01*
X141701843Y-104752235D01*
X141652560Y-105000000D01*
X141652560Y-105500000D01*
X141701843Y-105747765D01*
X141842191Y-105957809D01*
X141905334Y-106000000D01*
X141842191Y-106042191D01*
X141701843Y-106252235D01*
X141652560Y-106500000D01*
X141652560Y-107000000D01*
X141701843Y-107247765D01*
X141842191Y-107457809D01*
X142052235Y-107598157D01*
X142071095Y-107601908D01*
X142202071Y-107797929D01*
X142265529Y-107840330D01*
X142575002Y-108149804D01*
X142575001Y-110150197D01*
X142524838Y-110200360D01*
X142415330Y-110155000D01*
X141804670Y-110155000D01*
X141240493Y-110388690D01*
X140808690Y-110820493D01*
X140575000Y-111384670D01*
X140575000Y-111995330D01*
X140808690Y-112559507D01*
X141240493Y-112991310D01*
X141539183Y-113115032D01*
X141465000Y-113294126D01*
X141465000Y-113705874D01*
X141622569Y-114086280D01*
X141913720Y-114377431D01*
X142294126Y-114535000D01*
X142695326Y-114535000D01*
X142652560Y-114750000D01*
X142652560Y-115250000D01*
X142701843Y-115497765D01*
X142842191Y-115707809D01*
X142851680Y-115714150D01*
X142845135Y-115729953D01*
X142832902Y-115717720D01*
X142786316Y-115647999D01*
X142510116Y-115463448D01*
X142266552Y-115415000D01*
X142266548Y-115415000D01*
X142184315Y-115398643D01*
X142102082Y-115415000D01*
X141803701Y-115415000D01*
X141761270Y-115372569D01*
X141380864Y-115215000D01*
X140969116Y-115215000D01*
X140588710Y-115372569D01*
X140297559Y-115663720D01*
X140139990Y-116044126D01*
X139699000Y-116044126D01*
X139699000Y-97824778D01*
X142065000Y-97824778D01*
X142065000Y-98475222D01*
X142313914Y-99076153D01*
X142773847Y-99536086D01*
X143374778Y-99785000D01*
X144025222Y-99785000D01*
X144626153Y-99536086D01*
X145086086Y-99076153D01*
X145335000Y-98475222D01*
X145335000Y-97824778D01*
X151665000Y-97824778D01*
X151665000Y-98475222D01*
X151913914Y-99076153D01*
X152373847Y-99536086D01*
X152974778Y-99785000D01*
X153625222Y-99785000D01*
X154226153Y-99536086D01*
X154686086Y-99076153D01*
X154935000Y-98475222D01*
X154935000Y-97824778D01*
X154686086Y-97223847D01*
X154226153Y-96763914D01*
X153625222Y-96515000D01*
X152974778Y-96515000D01*
X152373847Y-96763914D01*
X151913914Y-97223847D01*
X151665000Y-97824778D01*
X145335000Y-97824778D01*
X145086086Y-97223847D01*
X144626153Y-96763914D01*
X144025222Y-96515000D01*
X143374778Y-96515000D01*
X142773847Y-96763914D01*
X142313914Y-97223847D01*
X142065000Y-97824778D01*
X139699000Y-97824778D01*
X139699000Y-94044126D01*
X146490000Y-94044126D01*
X146490000Y-94455874D01*
X146647569Y-94836280D01*
X146938720Y-95127431D01*
X147319126Y-95285000D01*
X147730874Y-95285000D01*
X148111280Y-95127431D01*
X148402431Y-94836280D01*
X148560000Y-94455874D01*
X148560000Y-94289801D01*
X150064802Y-92785000D01*
X150205874Y-92785000D01*
X150586280Y-92627431D01*
X150877431Y-92336280D01*
X151035000Y-91955874D01*
X151035000Y-91544126D01*
X150877431Y-91163720D01*
X150586280Y-90872569D01*
X150205874Y-90715000D01*
X149794126Y-90715000D01*
X149413720Y-90872569D01*
X149122569Y-91163720D01*
X148965000Y-91544126D01*
X148965000Y-91735198D01*
X147485199Y-93215000D01*
X147319126Y-93215000D01*
X146938720Y-93372569D01*
X146647569Y-93663720D01*
X146490000Y-94044126D01*
X139699000Y-94044126D01*
X139699000Y-86550001D01*
X140848642Y-86550001D01*
X140864999Y-86632235D01*
X140865000Y-87617762D01*
X140848642Y-87699999D01*
X140913447Y-88025799D01*
X140913448Y-88025800D01*
X141097999Y-88302000D01*
X141167717Y-88348584D01*
X141465000Y-88645868D01*
X141465000Y-88705874D01*
X141622569Y-89086280D01*
X141913720Y-89377431D01*
X142294126Y-89535000D01*
X142705874Y-89535000D01*
X143086280Y-89377431D01*
X143321817Y-89141894D01*
X143351161Y-89289418D01*
X143679375Y-89780625D01*
X144170582Y-90108839D01*
X144603744Y-90195000D01*
X144896256Y-90195000D01*
X145329418Y-90108839D01*
X145820625Y-89780625D01*
X146148839Y-89289418D01*
X146264092Y-88710000D01*
X146148839Y-88130582D01*
X145820625Y-87639375D01*
X145510000Y-87431822D01*
X145510000Y-87266364D01*
X145627431Y-87148933D01*
X145785000Y-86768527D01*
X145785000Y-86360001D01*
X147575152Y-86360001D01*
X147649999Y-86374889D01*
X147724846Y-86360001D01*
X147724851Y-86360001D01*
X147946536Y-86315905D01*
X147992789Y-86285000D01*
X148205874Y-86285000D01*
X148586280Y-86127431D01*
X148877431Y-85836280D01*
X149035000Y-85455874D01*
X149035000Y-85044126D01*
X148877431Y-84663720D01*
X148586280Y-84372569D01*
X148205874Y-84215000D01*
X147794126Y-84215000D01*
X147669973Y-84266426D01*
X147627431Y-84163720D01*
X147510000Y-84046289D01*
X147510000Y-83814801D01*
X148039802Y-83285000D01*
X148205874Y-83285000D01*
X148586280Y-83127431D01*
X148877431Y-82836280D01*
X149035000Y-82455874D01*
X149035000Y-82044126D01*
X148877431Y-81663720D01*
X148586280Y-81372569D01*
X148205874Y-81215000D01*
X147794126Y-81215000D01*
X147413720Y-81372569D01*
X147122569Y-81663720D01*
X146965000Y-82044126D01*
X146965000Y-82210198D01*
X146265528Y-82909671D01*
X146202072Y-82952071D01*
X146159672Y-83015527D01*
X146159671Y-83015528D01*
X146034097Y-83203463D01*
X145975112Y-83500000D01*
X145990001Y-83574851D01*
X145990001Y-83582689D01*
X145705874Y-83465000D01*
X145294126Y-83465000D01*
X144913720Y-83622569D01*
X144622569Y-83913720D01*
X144487420Y-84240000D01*
X143324846Y-84240000D01*
X143249999Y-84225112D01*
X143175152Y-84240000D01*
X143175148Y-84240000D01*
X142953463Y-84284096D01*
X142702071Y-84452071D01*
X142659671Y-84515527D01*
X142460198Y-84715000D01*
X142294126Y-84715000D01*
X141913720Y-84872569D01*
X141622569Y-85163720D01*
X141465000Y-85544126D01*
X141465000Y-85604132D01*
X141167719Y-85901414D01*
X141097998Y-85948000D01*
X140913447Y-86224201D01*
X140864999Y-86467765D01*
X140864999Y-86467768D01*
X140848642Y-86550001D01*
X139699000Y-86550001D01*
X139699000Y-79824670D01*
X142215000Y-79824670D01*
X142215000Y-80435330D01*
X142448690Y-80999507D01*
X142880493Y-81431310D01*
X143444670Y-81665000D01*
X144055330Y-81665000D01*
X144619507Y-81431310D01*
X145051310Y-80999507D01*
X145285000Y-80435330D01*
X145285000Y-79824670D01*
X145051310Y-79260493D01*
X144619507Y-78828690D01*
X144055330Y-78595000D01*
X143444670Y-78595000D01*
X142880493Y-78828690D01*
X142448690Y-79260493D01*
X142215000Y-79824670D01*
X139699000Y-79824670D01*
X139699000Y-66200000D01*
X141277560Y-66200000D01*
X141277560Y-67000000D01*
X141326843Y-67247765D01*
X141467191Y-67457809D01*
X141677235Y-67598157D01*
X141925000Y-67647440D01*
X142675000Y-67647440D01*
X142922765Y-67598157D01*
X142990001Y-67553231D01*
X142990001Y-67623330D01*
X142880493Y-67668690D01*
X142448690Y-68100493D01*
X142215000Y-68664670D01*
X142215000Y-69275330D01*
X142448690Y-69839507D01*
X142880493Y-70271310D01*
X143191178Y-70400000D01*
X142880493Y-70528690D01*
X142448690Y-70960493D01*
X142215000Y-71524670D01*
X142215000Y-72135330D01*
X142448690Y-72699507D01*
X142880493Y-73131310D01*
X142990001Y-73176670D01*
X142990000Y-73920299D01*
X142901843Y-74052235D01*
X142852560Y-74300000D01*
X142852560Y-75200000D01*
X142901843Y-75447765D01*
X143042191Y-75657809D01*
X143252235Y-75798157D01*
X143500000Y-75847440D01*
X144000000Y-75847440D01*
X144247765Y-75798157D01*
X144457809Y-75657809D01*
X144500000Y-75594666D01*
X144542191Y-75657809D01*
X144752235Y-75798157D01*
X145000000Y-75847440D01*
X145500000Y-75847440D01*
X145747765Y-75798157D01*
X145957809Y-75657809D01*
X146056573Y-75510000D01*
X146296289Y-75510000D01*
X146413720Y-75627431D01*
X146794126Y-75785000D01*
X147205874Y-75785000D01*
X147586280Y-75627431D01*
X147877431Y-75336280D01*
X148035000Y-74955874D01*
X148035000Y-74544126D01*
X147877431Y-74163720D01*
X147586280Y-73872569D01*
X147205874Y-73715000D01*
X146794126Y-73715000D01*
X146413720Y-73872569D01*
X146296289Y-73990000D01*
X146056573Y-73990000D01*
X145957809Y-73842191D01*
X145747765Y-73701843D01*
X145500000Y-73652560D01*
X145000000Y-73652560D01*
X144752235Y-73701843D01*
X144542191Y-73842191D01*
X144510000Y-73890368D01*
X144510000Y-73176669D01*
X144619507Y-73131310D01*
X145051310Y-72699507D01*
X145285000Y-72135330D01*
X145285000Y-71524670D01*
X145051310Y-70960493D01*
X144619507Y-70528690D01*
X144308822Y-70400000D01*
X144619507Y-70271310D01*
X145051310Y-69839507D01*
X145285000Y-69275330D01*
X145285000Y-68664670D01*
X145051310Y-68100493D01*
X144619507Y-67668690D01*
X144510000Y-67623331D01*
X144510000Y-67589868D01*
X144632809Y-67507809D01*
X144773157Y-67297765D01*
X144822440Y-67050000D01*
X144822440Y-66250000D01*
X144779354Y-66033388D01*
X144850000Y-66047440D01*
X145750000Y-66047440D01*
X145997765Y-65998157D01*
X146129700Y-65910000D01*
X146140368Y-65910000D01*
X146092191Y-65942191D01*
X145951843Y-66152235D01*
X145902560Y-66400000D01*
X145902560Y-66900000D01*
X145951843Y-67147765D01*
X146092191Y-67357809D01*
X146240001Y-67456573D01*
X146240000Y-67796289D01*
X146122569Y-67913720D01*
X145965000Y-68294126D01*
X145965000Y-68705874D01*
X146122569Y-69086280D01*
X146413720Y-69377431D01*
X146794126Y-69535000D01*
X147205874Y-69535000D01*
X147586280Y-69377431D01*
X147877431Y-69086280D01*
X148035000Y-68705874D01*
X148035000Y-68294126D01*
X147877431Y-67913720D01*
X147760000Y-67796289D01*
X147760000Y-67456573D01*
X147907809Y-67357809D01*
X148048157Y-67147765D01*
X148097440Y-66900000D01*
X148097440Y-66400000D01*
X148048157Y-66152235D01*
X147907809Y-65942191D01*
X147844666Y-65900000D01*
X147907809Y-65857809D01*
X148048157Y-65647765D01*
X148097440Y-65400000D01*
X148097440Y-64900000D01*
X148048157Y-64652235D01*
X147907809Y-64442191D01*
X147697765Y-64301843D01*
X147450000Y-64252560D01*
X146550000Y-64252560D01*
X146302235Y-64301843D01*
X146170300Y-64390000D01*
X146129700Y-64390000D01*
X145997765Y-64301843D01*
X145750000Y-64252560D01*
X144850000Y-64252560D01*
X144634915Y-64295343D01*
X144632809Y-64292191D01*
X144422765Y-64151843D01*
X144175000Y-64102560D01*
X143425000Y-64102560D01*
X143177235Y-64151843D01*
X142967191Y-64292191D01*
X142826843Y-64502235D01*
X142777560Y-64750000D01*
X142777560Y-65550000D01*
X142782315Y-65573906D01*
X142675000Y-65552560D01*
X141925000Y-65552560D01*
X141677235Y-65601843D01*
X141467191Y-65742191D01*
X141326843Y-65952235D01*
X141277560Y-66200000D01*
X139699000Y-66200000D01*
X139699000Y-60364670D01*
X142215000Y-60364670D01*
X142215000Y-60975330D01*
X142448690Y-61539507D01*
X142880493Y-61971310D01*
X143444670Y-62205000D01*
X144055330Y-62205000D01*
X144619507Y-61971310D01*
X145051310Y-61539507D01*
X145285000Y-60975330D01*
X145285000Y-60364670D01*
X151715000Y-60364670D01*
X151715000Y-60975330D01*
X151948690Y-61539507D01*
X152380493Y-61971310D01*
X152944670Y-62205000D01*
X153555330Y-62205000D01*
X154119507Y-61971310D01*
X154551310Y-61539507D01*
X154785000Y-60975330D01*
X154785000Y-60364670D01*
X154551310Y-59800493D01*
X154119507Y-59368690D01*
X153555330Y-59135000D01*
X152944670Y-59135000D01*
X152380493Y-59368690D01*
X151948690Y-59800493D01*
X151715000Y-60364670D01*
X145285000Y-60364670D01*
X145051310Y-59800493D01*
X144619507Y-59368690D01*
X144055330Y-59135000D01*
X143444670Y-59135000D01*
X142880493Y-59368690D01*
X142448690Y-59800493D01*
X142215000Y-60364670D01*
X139699000Y-60364670D01*
X139699000Y-58893170D01*
X139742191Y-58957809D01*
X139952235Y-59098157D01*
X140200000Y-59147440D01*
X141800000Y-59147440D01*
X142047765Y-59098157D01*
X142257809Y-58957809D01*
X142398157Y-58747765D01*
X142447440Y-58500000D01*
X142447440Y-57500000D01*
X142398157Y-57252235D01*
X142257809Y-57042191D01*
X142047765Y-56901843D01*
X141800000Y-56852560D01*
X141611151Y-56852560D01*
X141627431Y-56836280D01*
X141785000Y-56455874D01*
X141785000Y-56044126D01*
X141627431Y-55663720D01*
X141336280Y-55372569D01*
X140955874Y-55215000D01*
X140544126Y-55215000D01*
X140163720Y-55372569D01*
X139872569Y-55663720D01*
X139715000Y-56044126D01*
X139715000Y-56455874D01*
X139872569Y-56836280D01*
X139915000Y-56878711D01*
X139915000Y-56926723D01*
X139742191Y-57042191D01*
X139699000Y-57106830D01*
X139699000Y-50085160D01*
X142884665Y-50085160D01*
X142429375Y-50389375D01*
G04 #@! TD*
M02*
